<?xml version="1.0" encoding="UTF-8" standalone="no"?>
<svg width="15px" height="15px" viewBox="0 0 15 15" version="1.1" xmlns="http://www.w3.org/2000/svg" xmlns:xlink="http://www.w3.org/1999/xlink" xmlns:sketch="http://www.bohemiancoding.com/sketch/ns">
    <!-- Generator: Sketch 3.4 (15575) - http://www.bohemiancoding.com/sketch -->
    <title>contact</title>
    <desc>Created with Sketch.</desc>
    <defs></defs>
    <g id="Page-1" stroke="none" stroke-width="1" fill="none" fill-rule="evenodd" sketch:type="MSPage">
        <g id="contact" sketch:type="MSLayerGroup" fill="#FFFFFF">
            <g id="Group" sketch:type="MSShapeGroup">
                <path d="M12.3507563,0.00966268211 L2.62572884,0.00966268211 C1.17788095,0.00966268211 0,1.18758564 0,2.63543353 L0,8.63385854 C0,10.0817064 1.17788095,11.2595874 2.62572884,11.2595874 L8.82005422,11.2596294 L11.7852793,14.2248124 C11.8857712,14.3253463 12.0200405,14.3786591 12.1567464,14.3786591 C12.2243852,14.3786591 12.2926121,14.3655515 12.3575621,14.338622 C12.5537986,14.2573715 12.6817661,14.0659664 12.6817661,13.8535134 L12.6817661,11.2388336 C13.9740028,11.0756183 14.9764851,9.96961931 14.9764851,8.63385854 L14.9764851,2.63543353 C14.9764851,1.18758564 13.7986041,0.00966268211 12.3507563,0.00966268211 L12.3507563,0.00966268211 Z M13.9261936,8.63390055 C13.9261936,9.50261768 13.2194734,10.2093379 12.3507563,10.2093379 L12.1566204,10.2093379 C11.8666139,10.2093379 11.6314746,10.4445191 11.6314746,10.7344836 L11.6314746,12.5856855 L9.40893168,10.3631425 C9.31045634,10.2646252 9.17694328,10.2093379 9.0375906,10.2093379 L2.62572884,10.2093379 C1.7570117,10.2093379 1.05029153,9.50261768 1.05029153,8.63390055 L1.05029153,2.63547554 C1.05029153,1.76675841 1.7570117,1.06003824 2.62572884,1.06003824 L12.3507563,1.06003824 C13.2194734,1.06003824 13.9261936,1.76675841 13.9261936,2.63547554 L13.9261936,8.63390055 L13.9261936,8.63390055 Z" id="Shape"></path>
                <path d="M11.3533154,3.72824086 L3.6231697,3.72824086 C3.3331632,3.72824086 3.09802393,3.96333812 3.09802393,4.25338663 C3.09802393,4.54339313 3.3331632,4.7785324 3.6231697,4.7785324 L11.3533154,4.7785324 C11.6433219,4.7785324 11.8784612,4.54339313 11.8784612,4.25338663 C11.8784612,3.96333812 11.6433639,3.72824086 11.3533154,3.72824086 L11.3533154,3.72824086 Z" id="Shape"></path>
                <path d="M11.3533154,6.66905716 L3.6231697,6.66905716 C3.3331632,6.66905716 3.09802393,6.90415442 3.09802393,7.19420293 C3.09802393,7.48425144 3.3331632,7.71934869 3.6231697,7.71934869 L11.3533154,7.71934869 C11.6433219,7.71934869 11.8784612,7.48420943 11.8784612,7.19420293 C11.8784612,6.90419643 11.6433639,6.66905716 11.3533154,6.66905716 L11.3533154,6.66905716 Z" id="Shape"></path>
            </g>
        </g>
    </g>
</svg>