<?xml version="1.0" encoding="UTF-8" standalone="no"?>
<svg width="15px" height="15px" viewBox="0 0 15 15" version="1.1" xmlns="http://www.w3.org/2000/svg" xmlns:xlink="http://www.w3.org/1999/xlink" xmlns:sketch="http://www.bohemiancoding.com/sketch/ns">
    <!-- Generator: Sketch 3.4 (15575) - http://www.bohemiancoding.com/sketch -->
    <title>home</title>
    <desc>Created with Sketch.</desc>
    <defs></defs>
    <g id="Page-1" stroke="none" stroke-width="1" fill="none" fill-rule="evenodd" sketch:type="MSPage">
        <g id="home" sketch:type="MSLayerGroup" fill="#FFFFFF">
            <g id="Group" sketch:type="MSShapeGroup">
                <path d="M14.7819661,6.24030747 L7.8351694,0.151644485 C7.64241622,-0.0172444012 7.35445107,-0.0172444012 7.16173876,0.151644485 L0.214942062,6.24030747 C0.00281958219,6.42623644 -0.018429443,6.74897644 0.167499527,6.96118065 C0.353428498,7.17326227 0.676209363,7.19455215 0.888331843,7.00858232 L1.42621822,6.53718087 L1.42621822,14.1342795 C1.42621822,14.4163603 1.65489043,14.6450733 1.9370121,14.6450733 L5.80813499,14.6450733 L9.18877317,14.6450733 L13.0598552,14.6450733 C13.3419769,14.6450733 13.5706491,14.4163603 13.5706491,14.1342795 L13.5706491,6.53722173 L14.1085354,7.00866405 C14.2055046,7.09357842 14.3255616,7.13534093 14.4450056,7.13534093 C14.5870472,7.13534093 14.7283532,7.07645661 14.8293269,6.96122151 C15.0153785,6.74897644 14.9941294,6.4262773 14.7819661,6.24030747 L14.7819661,6.24030747 Z M6.31892886,13.6234856 L6.31892886,9.41568824 L8.67793843,9.41568824 L8.67793843,13.6235264 L6.31892886,13.6234856 L6.31892886,13.6234856 L6.31892886,13.6234856 Z M12.549143,5.6457434 L12.549143,13.6234856 L9.69964877,13.6234856 L9.69964877,8.90489436 C9.69964877,8.62281355 9.47089484,8.39410049 9.18885489,8.39410049 L5.80821672,8.39410049 C5.52613591,8.39410049 5.29742284,8.62281355 5.29742284,8.90489436 L5.29742284,13.6235264 L2.44784684,13.6235264 L2.44784684,5.6457434 C2.44784684,5.64443577 2.44768338,5.64320986 2.44768338,5.64194309 L7.49845408,1.21499474 L12.5493065,5.64190223 C12.5493474,5.64325073 12.549143,5.64443577 12.549143,5.6457434 L12.549143,5.6457434 Z" id="Shape"></path>
                <path d="M6.3542758,4.81118794 C6.3542758,5.09330961 6.582948,5.32198181 6.86506967,5.32198181 L8.13183848,5.32198181 C8.41391929,5.32198181 8.64263236,5.09330961 8.64263236,4.81118794 C8.64263236,4.52906626 8.41391929,4.30039406 8.13183848,4.30039406 L6.86506967,4.30039406 C6.58298886,4.30039406 6.3542758,4.52906626 6.3542758,4.81118794 L6.3542758,4.81118794 Z" id="Shape"></path>
            </g>
        </g>
    </g>
</svg>