<?xml version="1.0" encoding="UTF-8" standalone="no"?>
<svg width="15px" height="13px" viewBox="0 0 15 13" version="1.1" xmlns="http://www.w3.org/2000/svg" xmlns:xlink="http://www.w3.org/1999/xlink" xmlns:sketch="http://www.bohemiancoding.com/sketch/ns">
    <!-- Generator: Sketch 3.4 (15575) - http://www.bohemiancoding.com/sketch -->
    <title>services</title>
    <desc>Created with Sketch.</desc>
    <defs></defs>
    <g id="Page-1" stroke="none" stroke-width="1" fill="none" fill-rule="evenodd" sketch:type="MSPage">
        <g id="services" sketch:type="MSLayerGroup" fill="#FFFFFF">
            <g id="Group" sketch:type="MSShapeGroup">
                <path d="M14.7183671,3.11146967 C14.6630701,2.98647053 14.5498207,2.89675394 14.4154948,2.87152841 C14.2809365,2.84623649 14.1429595,2.88888755 14.0461399,2.98537521 L12.5144523,4.51102196 C12.2825766,4.74296408 11.9741281,4.87068493 11.6460966,4.87068493 C11.3181315,4.87068493 11.0097494,4.74296408 10.7778073,4.51102196 C10.5458651,4.27907984 10.4181111,3.97069773 10.4180779,3.64266625 C10.4180779,3.31463477 10.5458651,3.00631904 10.7773094,2.77477522 L12.3076361,1.24886293 C12.4045885,1.15220932 12.447671,1.0138672 12.4226115,0.879275712 C12.3975851,0.744617845 12.3077689,0.631036573 12.1826038,0.575639979 C11.7802898,0.397700411 11.3331009,0.303569351 10.8893307,0.303569351 C10.0648873,0.303569351 9.30008902,0.614274871 8.73583372,1.17853017 L8.23145587,1.68294121 C7.35692654,2.55747054 7.09809931,3.84629603 7.54372823,4.97576918 L7.0303223,5.48917512 L6.49564061,4.95455982 L6.7105555,4.73967812 C6.87259634,4.57763728 6.87259634,4.31495984 6.7105555,4.152919 L4.62178196,2.06414546 C4.75647302,1.50337526 4.59466451,0.910309754 4.17575474,0.491632322 C3.85917433,0.175018717 3.43823987,0.000630638275 2.99051989,0.000630638275 C2.5428331,0.000630638275 2.12189865,0.174952334 1.80525185,0.491532748 L0.491001684,1.80588249 C0.174388079,2.12242971 0,2.54336416 0,2.99108415 C0,3.43880413 0.174388079,3.85977177 0.490968493,4.17641857 C0.807349758,4.49279984 1.22811825,4.66705515 1.67567228,4.66708834 L1.67573866,4.66708834 C1.80750887,4.66708834 1.93708844,4.65198621 2.06331567,4.62208068 L4.15232155,6.71115295 C4.2301224,6.78895379 4.33563814,6.83266698 4.44570111,6.83266698 C4.55576409,6.83266698 4.66127983,6.78895379 4.73908068,6.71115295 L4.9538628,6.49633763 L5.48851129,7.03091974 L3.3968169,9.12261413 C3.02696414,9.49250008 2.82326798,9.98423197 2.82323479,10.5072634 C2.8232016,11.0303945 3.02689776,11.5220268 3.39675051,11.8920123 C3.76666965,12.2618651 4.25843474,12.4654617 4.78146621,12.4654617 C5.30453087,12.4654617 5.79626277,12.2617655 6.1661819,11.8920123 L8.25820821,9.79998602 L10.3402771,11.8826855 C10.3865128,11.9289876 10.4430047,11.9636064 10.5051724,11.98382 L11.92142,12.4451153 C11.9636064,12.4588566 12.0069213,12.4655281 12.049871,12.4655281 C12.1582413,12.4655281 12.2642217,12.4230761 12.343317,12.3439808 C12.4537119,12.2336523 12.4927451,12.0706157 12.4444515,11.9221502 L11.9832225,10.5057698 C11.9629425,10.4436354 11.9283238,10.3871103 11.8820881,10.3408745 L9.80001922,8.25814182 L10.3135247,7.74460312 C10.6693375,7.88370865 11.051637,7.95633162 11.4353306,7.95633162 C12.2553264,7.95633162 13.0261655,7.63699632 13.6059212,7.05724059 L14.1102659,6.55289593 C14.9938233,5.66937171 15.2382122,4.28634878 14.7183671,3.11146967 L14.7183671,3.11146967 Z M4.44570111,5.83104745 L2.47017693,3.85545688 C2.39071651,3.77599646 2.28460332,3.73394284 2.17669779,3.73394284 C2.12123482,3.73394284 2.06530716,3.74506199 2.01226716,3.76793093 C1.90575567,3.81396752 1.79253951,3.83730114 1.67570547,3.83730114 C1.44970463,3.83726794 1.23734549,3.74934369 1.07766124,3.58969263 C0.91781103,3.42980924 0.829754012,3.21721775 0.829754012,2.99115053 C0.829754012,2.7650833 0.917777839,2.5525582 1.07766124,2.392708 L2.39194459,1.07835826 C2.55182799,0.918508051 2.76441947,0.830451033 2.9904867,0.830451033 C3.21655392,0.830451033 3.42907902,0.91847486 3.58899561,1.07845783 C3.8358739,1.32523655 3.90587475,1.69200249 3.7672671,2.01286461 C3.69985518,2.16899737 3.73454029,2.35048842 3.85479305,2.47074119 L5.83038362,4.44633175 L4.44570111,5.83104745 L4.44570111,5.83104745 Z M5.54065512,5.9096117 L5.90894787,5.54131895 L6.44356317,6.07593425 L6.07527042,6.444227 L5.54065512,5.9096117 L5.54065512,5.9096117 Z M11.224963,10.8573009 L11.402803,11.4035332 L10.856637,11.22566 L8.84493414,9.2132269 L9.21326009,8.84490095 L11.224963,10.8573009 L11.224963,10.8573009 Z M13.5234735,5.96620319 L13.0191289,6.47054785 C12.5960702,6.89360656 12.0336072,7.12664399 11.4352643,7.12664399 C11.0767298,7.12657761 10.7224439,7.04230442 10.4062949,6.87830528 C10.2304796,6.78722784 10.0280115,6.84252486 9.89119623,6.98760485 L5.57945597,11.3052532 C5.36630023,11.5184089 5.0829113,11.6357408 4.7814994,11.6357408 C4.4800875,11.6357408 4.19669857,11.5184089 3.98354283,11.3052532 C3.77045348,11.0920311 3.65305519,10.8087085 3.65305519,10.5073298 C3.65305519,10.2058847 3.77045348,9.92256219 3.98360922,9.70937326 L8.30049416,5.39693597 C8.44935799,5.25547385 8.50100394,5.05755301 8.40982693,4.88177088 C7.95855545,4.01139049 8.12444651,2.96346883 8.81824819,2.26970034 L9.32265923,1.7652893 C9.73015113,1.3577974 10.2865732,1.13335655 10.8893307,1.13335655 C11.0012856,1.13335655 11.1134396,1.14138889 11.2244319,1.15722123 L10.1910149,2.18765098 C9.80234262,2.57629012 9.5883239,3.09308159 9.5883239,3.64269944 C9.58839029,4.19238368 9.802409,4.70917515 10.1910813,5.09781428 C10.5797537,5.4865198 11.0965119,5.70057171 11.6461962,5.70050532 C12.1959136,5.70043894 12.7126387,5.48645342 13.1006472,5.09837854 L14.1367527,4.06638879 C14.2351322,4.76105344 14.0171969,5.4724798 13.5234735,5.96620319 L13.5234735,5.96620319 Z" id="Shape"></path>
                <path d="M4.87762195,9.76397326 C4.70472749,9.76397326 4.54218877,9.83125241 4.41994452,9.95352985 C4.29773346,10.0758073 4.23038793,10.2383128 4.23038793,10.4112073 C4.23038793,10.5841017 4.29770027,10.7465741 4.41994452,10.8688847 C4.54218877,10.9910958 4.70472749,11.0584413 4.87762195,11.0584413 C5.05051641,11.0583749 5.21302194,10.9910958 5.33529938,10.8688183 C5.45757682,10.7465741 5.52485597,10.5840354 5.52485597,10.4112073 C5.52485597,10.2383128 5.45754363,10.0757409 5.33529938,9.95352985 C5.21305513,9.8312856 5.05051641,9.76397326 4.87762195,9.76397326 L4.87762195,9.76397326 Z" id="Shape"></path>
            </g>
        </g>
    </g>
</svg>