<svg width="40" height="40" viewBox="0 0 40 40" xmlns="http://www.w3.org/2000/svg"><title>telephone</title><path d="M39.286 31.74c0-.194 0-.39-.084-.585-.195-.586-1.562-1.2-2.12-1.48-1.59-.892-3.21-1.756-4.772-2.677-.725-.447-1.618-1.284-2.483-1.284-1.702 0-4.185 5.05-5.692 5.05-.753 0-1.73-.697-2.4-1.088-5.078-2.818-8.593-6.333-11.41-11.412-.392-.67-1.09-1.646-1.09-2.4 0-1.506 5.05-3.99 5.05-5.69 0-.866-.836-1.76-1.283-2.484-.92-1.563-1.785-3.18-2.678-4.772-.28-.558-.893-1.925-1.48-2.12C8.65.714 8.455.714 8.26.714c-1.006 0-2.96.447-3.88.865-1.367.585-2.26 2.148-2.957 3.403C.53 6.63 0 8.303 0 10.173c0 2.595 1.06 4.94 1.925 7.31.614 1.702 1.367 3.348 2.316 4.883C7.17 27.11 12.89 32.83 17.635 35.76c1.535.948 3.18 1.7 4.883 2.315 2.37.865 4.715 1.925 7.31 1.925 1.87 0 3.544-.53 5.19-1.423 1.255-.698 2.818-1.59 3.404-2.958.42-.92.866-2.874.866-3.88z" fill="#ffffff" class="svg--telephone" fill-rule="evenodd"/></svg>