<?xml version="1.0" standalone="no"?>
<!DOCTYPE svg PUBLIC "-//W3C//DTD SVG 1.1//EN" "http://www.w3.org/Graphics/SVG/1.1/DTD/svg11.dtd" >
<svg xmlns="http://www.w3.org/2000/svg">
<metadata></metadata>
<defs>
<font id="aliceregular" horiz-adv-x="1337" >
<font-face units-per-em="2048" ascent="1638" descent="-410" />
<missing-glyph horiz-adv-x="456" />
<glyph unicode="&#xfb01;" horiz-adv-x="1259" d="M51 858q2 33 15.5 36t33.5 3h144q2 145 44 255t113.5 183.5t169 110.5t211.5 37q47 0 92.5 -13.5t81 -39t58 -62.5t22.5 -86q0 -59 -35.5 -109.5t-103.5 -50.5q-47 0 -71.5 22.5t-24.5 33.5q0 4 11 12t24.5 23.5t24.5 39t11 54.5q0 57 -37.5 84.5t-105.5 27.5 q-61 0 -116.5 -30.5t-96.5 -94t-63.5 -163t-20.5 -234.5q199 -2 349.5 14.5t260.5 51.5q18 4 19 -15v-737v-52.5t9 -45t31.5 -30.5t65.5 -11q18 0 31.5 -3t15.5 -34q0 -16 -8 -28.5t-24 -12.5q-59 4 -109.5 5t-105.5 1t-104.5 -1t-108.5 -5q-16 0 -24.5 12t-8.5 29 q4 31 16.5 34t32.5 3q43 0 64.5 11t30.5 30.5t9 45v52.5v467v52.5t-9 45t-30.5 30.5t-64.5 11h-338v-606v-52.5t9.5 -45t31 -30.5t64.5 -11q20 0 32.5 -3t14.5 -34q0 -16 -7.5 -28.5t-23.5 -12.5q-59 4 -110.5 5t-104.5 1q-55 0 -104.5 -1t-108.5 -5q-16 0 -24.5 12t-8.5 29 q2 31 14.5 34t32.5 3q43 0 64.5 11t31 30.5t9.5 45v52.5v606h-158q-16 0 -25.5 12.5t-9.5 28.5z" />
<glyph horiz-adv-x="0" />
<glyph unicode="&#xd;" horiz-adv-x="0" />
<glyph unicode=" "  horiz-adv-x="456" />
<glyph unicode="&#x09;" horiz-adv-x="456" />
<glyph unicode="&#xa0;" horiz-adv-x="456" />
<glyph unicode="!" horiz-adv-x="536" d="M137 106q0 53 37 91.5t94 38.5t94 -38t37 -92q0 -59 -37 -95t-96 -36q-55 0 -92 36t-37 95zM158 1167q0 104 23.5 172t86.5 68t87 -67.5t24 -172.5q0 -84 -9.5 -182t-21.5 -195.5t-21.5 -185.5t-9.5 -151q0 -16 -15 -22.5t-34 -6.5q-16 0 -32.5 7t-16.5 22q0 63 -9 151 t-21.5 185.5t-21.5 195.5t-9 182z" />
<glyph unicode="&#x22;" horiz-adv-x="694" d="M92 1264q0 63 21.5 104t76.5 41t76 -40t21 -103q0 -49 -8.5 -106.5t-19.5 -116t-20.5 -112.5t-11.5 -95q0 -12 -11 -17.5t-26 -5.5q-12 0 -24 6t-12 17q-2 41 -12.5 95t-20.5 111.5t-19.5 114.5t-9.5 107zM406 1264q0 63 21.5 104t76.5 41t75.5 -40t20.5 -103 q0 -49 -8 -106.5t-19.5 -116t-20.5 -112.5t-11 -95q0 -12 -11.5 -17.5t-25.5 -5.5q-12 0 -24.5 6t-12.5 17q-2 41 -12.5 95t-20.5 111.5t-19 114.5t-9 107z" />
<glyph unicode="#" horiz-adv-x="1261" d="M86 416q0 23 10 41t29 20h203l71 338h-192q-18 0 -28.5 16.5t-10.5 34.5q0 23 10 41.5t29 20.5h215l70 327q4 16 18 26.5t31 10.5q25 0 42 -10t19 -27l-70 -327h314l74 325q10 39 51 39q23 0 40 -10t19 -29l-69 -325h176q18 -2 28.5 -20.5t10.5 -41.5q0 -18 -10.5 -34.5 t-28.5 -16.5h-199l-72 -338h189q18 -2 28.5 -20.5t10.5 -40.5q0 -18 -10.5 -34.5t-28.5 -16.5h-209l-70 -328q-4 -16 -18.5 -26.5t-30.5 -10.5q-25 0 -42 10t-19 27l69 328h-319l-68 -326q-4 -18 -18.5 -28.5t-32.5 -10.5q-23 0 -41 10t-20 29l67 326h-178q-18 0 -28.5 16 t-10.5 35zM438 477h318l69 338h-315z" />
<glyph unicode="$" horiz-adv-x="1024" d="M124 210q5 34 20.5 60.5t42 44t61.5 17.5q43 0 64.5 -20.5t21.5 -30.5q0 -4 -9.5 -11.5t-20.5 -19.5t-20.5 -30.5t-9.5 -43.5q2 -35 17.5 -58.5t40 -39t56.5 -24.5t67 -11v483q-59 25 -117.5 52.5t-105 63.5t-75 85t-30.5 119q-2 66 21.5 118t68.5 91t105.5 63.5 t132.5 34.5v111q0 47 39 47q41 0 41 -47v-105h8q25 0 69.5 -5t91 -23.5t85 -52.5t53.5 -91q8 -31 3 -64.5t-21.5 -60t-43 -44t-61.5 -17.5q-41 0 -64.5 20.5t-23.5 30.5q0 2 10 10t21.5 20.5t21.5 31t10 42.5q0 33 -15 56.5t-38 39t-51.5 23.5t-54.5 10v-409 q63 -25 130.5 -58.5t123 -77.5t92.5 -101.5t39 -129.5q2 -172 -96.5 -249.5t-288.5 -86.5v-108q0 -47 -41 -47q-39 0 -39 47v108h-27q-27 0 -72 5.5t-91 23.5t-86 52t-54 91q-6 31 -1 65zM279 913q0 -51 14 -84.5t38.5 -57t56.5 -38t67 -26.5v376q-92 -14 -134 -62.5 t-42 -107.5zM535 43q90 10 155.5 57t67.5 131q0 51 -17.5 90t-48 70t-71.5 54.5t-86 43.5v-446z" />
<glyph unicode="%" horiz-adv-x="1589" d="M90 979q0 86 30 150.5t76 109.5t102.5 67.5t111.5 22.5q74 0 133 -27.5t101 -73.5t64.5 -106.5t22.5 -126.5q0 -86 -29.5 -152.5t-76.5 -111.5t-103.5 -68.5t-111.5 -23.5q-74 0 -133.5 27.5t-100.5 74.5t-63.5 108.5t-22.5 129.5zM227 21.5q-12 21.5 4 41.5l990 1201 q18 23 38.5 24.5t36.5 -2.5q25 -10 36 -31.5t-5 -44.5l-993 -1198q-18 -20 -35.5 -24t-36.5 2q-23 10 -35 31.5zM242 981q0 -51 8 -97t27.5 -82t52.5 -56.5t80 -20.5t79.5 21.5t52 58.5t29 86t9.5 104q0 49 -9.5 95.5t-29 80t-52 54t-79.5 20.5q-49 0 -82 -21.5t-52.5 -57.5 t-26.5 -84t-7 -101zM858 299q0 86 30 151.5t76 110.5t102.5 67.5t111.5 22.5q74 0 133 -27.5t101 -73.5t65.5 -106.5t23.5 -128.5q0 -86 -29.5 -152.5t-76.5 -111.5t-104.5 -68.5t-112.5 -23.5q-74 0 -132.5 27.5t-100.5 75t-64.5 108.5t-22.5 129zM1012 301q0 -49 8 -95 t27.5 -82t51.5 -56.5t79 -20.5t79.5 21.5t52 58.5t29 86t9.5 102q0 49 -9.5 95.5t-29 81t-52 55t-79.5 20.5q-49 0 -81 -21.5t-51.5 -58t-26.5 -85t-7 -101.5z" />
<glyph unicode="&#x26;" horiz-adv-x="1792" d="M84 504q0 72 21.5 138.5t63.5 120.5t105.5 91t147.5 51v6q-68 51 -98.5 110.5t-30.5 129.5q0 135 97 217t272 82q55 0 108 -12.5t93 -39t64.5 -66.5t24.5 -95q0 -61 -35.5 -110.5t-103.5 -49.5q-45 0 -69.5 22.5t-24.5 33.5q0 2 10 10t23.5 22.5t23.5 34t10 45.5 q0 61 -43 96t-104 35q-104 0 -155.5 -62.5t-51.5 -144.5q0 -150 125 -217h68q25 0 40 -4t17 -45q0 -18 -9 -33.5t-30 -15.5h-72q-72 -6 -122 -36t-83.5 -74t-49 -98t-15.5 -109q0 -100 36 -181.5t99.5 -137.5t152.5 -86t193 -30q113 0 212.5 36t174 99.5t117.5 153t43 193.5 q0 55 -16.5 108t-47 94t-76.5 67t-106 26q-25 0 -55.5 -8.5t-57 -25t-44 -42t-15.5 -60.5q2 -29 18.5 -51t51.5 -28q27 -4 48.5 4t36.5 17t24.5 18.5t13.5 9.5q10 -2 27.5 -31t11.5 -72q-8 -55 -48 -84.5t-96 -29.5q-78 0 -125 62.5t-47 160.5q0 106 41 172.5t105.5 106.5 t147.5 59.5t167 30t162 19.5t135 28q45 16 76 45.5t29 70.5q-2 25 -18.5 43.5t-57.5 24.5q-27 2 -48.5 -5t-37 -16.5t-25.5 -18.5t-12 -9q-10 2 -27.5 30.5t-11.5 71.5q6 41 29.5 66.5t55.5 38t67.5 11.5t68.5 -15q55 -27 75.5 -81.5t18.5 -107.5q-2 -84 -44 -150.5 t-113.5 -112.5t-165.5 -69.5t-199 -23.5q86 -72 131 -157t45 -189q0 -147 -54 -263t-149.5 -197t-223.5 -123t-275 -40q-121 2 -235.5 34t-204 98.5t-142.5 168.5t-53 244z" />
<glyph unicode="'" horiz-adv-x="380" d="M92 1264q0 63 21.5 104t76.5 41t76 -40t21 -103q0 -49 -8.5 -106.5t-19.5 -116t-20.5 -112.5t-11.5 -95q0 -12 -11 -17.5t-26 -5.5q-12 0 -24 6t-12 17q-2 41 -12.5 95t-20.5 111.5t-19.5 114.5t-9.5 107z" />
<glyph unicode="(" horiz-adv-x="600" d="M74 578q0 283 115.5 519t338.5 394q20 12 32.5 5t19.5 -21q12 -31 -15 -56q-70 -68 -128 -160t-100 -200.5t-65.5 -231t-23.5 -252.5q0 -129 23.5 -251.5t64.5 -231t99.5 -200t127.5 -158.5q27 -25 15 -56q-6 -14 -19 -21t-33 5q-223 154 -337.5 391.5t-114.5 524.5z" />
<glyph unicode=")" horiz-adv-x="600" d="M20 1475q6 14 18.5 21t33.5 -5q223 -158 338.5 -394.5t115.5 -518.5q0 -287 -114.5 -524.5t-337.5 -391.5q-20 -12 -32.5 -5t-18.5 21q-12 31 14 56q70 68 128 159t99 199.5t64.5 231t23.5 251.5t-23.5 252t-65.5 231.5t-100.5 201t-127.5 159.5q-27 25 -15 56z" />
<glyph unicode="*" horiz-adv-x="1077" d="M90 1108q-2 37 26.5 65.5t78.5 28.5q27 0 55.5 -10t63 -23.5t77.5 -27t105 -19.5l12 13q-39 45 -75 75.5t-65.5 52t-52 39t-36.5 39.5q-23 45 -13 81t43 57q35 20 75 10t67 -49q12 -23 18 -50.5t11 -63.5t15.5 -80t32.5 -97l19 2q25 51 34 94t13 79t9 64.5t18 51.5 q27 41 65.5 49t71.5 -10q35 -16 48 -53t-13 -78q-12 -25 -36 -43.5t-53.5 -40t-63.5 -51t-69 -76.5l7 -17q61 8 105 21.5t79 28t62.5 24.5t54.5 10q53 0 81.5 -28.5t26.5 -65.5q0 -37 -28.5 -65.5t-79.5 -28.5q-27 0 -54.5 9t-62.5 22.5t-79 26.5t-103 20l-13 -13 q37 -45 73 -74.5t65.5 -51t53 -40t36.5 -38.5q25 -45 15.5 -81t-42.5 -57q-37 -20 -78 -10t-65 49q-14 23 -19.5 50.5t-11.5 63.5t-16.5 79t-32.5 96l-19 -2q-25 -53 -34 -95t-14 -78t-9 -63.5t-16 -50.5q-23 -43 -63 -50t-71 11q-35 16 -50 53t14 78q12 23 34.5 41.5t52 40 t63.5 51t69 76.5l-6 17q-59 -6 -104.5 -20.5t-80.5 -28t-62.5 -23.5t-53.5 -10q-49 -2 -78 27.5t-27 66.5z" />
<glyph unicode="+" horiz-adv-x="1159" d="M74 541q0 20 12 37.5t33 17.5h397v385q0 23 20.5 37t45.5 14q23 0 43 -14t20 -37v-385h395q20 0 32.5 -17.5t12.5 -37.5t-12 -38t-33 -18h-395v-434q0 -23 -20.5 -37t-44.5 -14q-23 0 -43.5 14.5t-20.5 36.5v434h-397q-20 0 -32.5 17.5t-12.5 38.5z" />
<glyph unicode="," horiz-adv-x="485" d="M52 -200.5q3 12.5 20 18.5q86 33 130 77t44 105q0 37 -23.5 59.5t-53.5 42t-53.5 41t-23.5 56.5q0 39 30 70.5t73 31.5q45 0 82.5 -21.5t65.5 -57.5t43 -79t15 -86q0 -63 -27.5 -113t-70.5 -87t-97 -62.5t-108 -40.5q-16 -6 -27.5 1t-16.5 19.5t-2 25z" />
<glyph unicode="-" horiz-adv-x="788" d="M123 473q0 23 12 44.5t35 21.5h448q23 0 35.5 -21.5t12.5 -44.5q0 -20 -12.5 -42.5t-35.5 -22.5h-448q-23 0 -35 22.5t-12 42.5z" />
<glyph unicode="." horiz-adv-x="454" d="M96 104q0 53 37 90t94 37q55 0 93 -36.5t38 -90.5q0 -59 -38 -94t-95 -35q-55 0 -92 35t-37 94z" />
<glyph unicode="/" horiz-adv-x="806" d="M70 -340l553 1743q8 23 27.5 33t39.5 6q23 -4 37 -22.5t10 -39.5l-557 -1742q-8 -23 -27.5 -32t-37.5 -5q-23 4 -36 20.5t-9 38.5z" />
<glyph unicode="0" horiz-adv-x="1198" d="M113 524q0 111 29.5 212.5t89 179t151.5 123.5t217 46q119 0 210 -47t152.5 -124.5t93 -179t31.5 -210.5t-31.5 -210t-93 -180t-152.5 -127t-210 -48q-125 0 -217 47t-151.5 126t-89 181.5t-29.5 210.5zM309 524q0 -240 76 -364.5t217 -124.5q137 0 213 124.5t76 364.5 t-76 363t-213 123q-141 0 -217 -123t-76 -363z" />
<glyph unicode="1" horiz-adv-x="876" d="M104 43q2 37 16.5 39t37.5 2q66 0 111.5 4t73.5 22.5t40 56.5t12 105v426q2 88 -7 131t-36.5 58.5t-75.5 14.5t-124 1q-23 0 -30 15.5t-7 33.5q2 37 16 41t37 4q51 0 108.5 12.5t106.5 29t87 31.5t50 22q16 6 34.5 0.5t18.5 -43.5v-777q0 -68 12.5 -105.5t40 -56 t73.5 -22.5t112 -4q23 0 37 -2t16 -39q0 -18 -7 -33.5t-30 -15.5q-37 2 -85 3t-97 2t-92 1h-70h-69.5t-91 -1t-96.5 -2t-85 -3q-23 0 -30 15.5t-7 33.5z" />
<glyph unicode="2" horiz-adv-x="1005" d="M94 74q4 47 26.5 73.5t67.5 55.5q76 51 161 110.5t157 132t119 160.5t47 199q0 98 -52.5 152.5t-146.5 54.5q-78 0 -131 -39t-53 -111q0 -27 10 -46t23.5 -33.5t23.5 -22.5t10 -10q0 -10 -24.5 -33t-69.5 -23q-66 0 -102.5 41.5t-36.5 100.5q0 66 35 112.5t88 77.5 t118.5 45t127.5 14q68 0 135 -16t120.5 -53t87 -95.5t33.5 -142.5q0 -119 -64.5 -209t-156.5 -162.5t-194.5 -133t-176.5 -117.5v-11h549q41 0 70 -9t29 -62q0 -35 -16.5 -54.5t-55.5 -19.5h-686q-41 0 -56.5 19.5t-15.5 54.5z" />
<glyph unicode="3" horiz-adv-x="997" d="M104 188q0 53 34 99.5t106 46.5q45 0 69.5 -22.5t24.5 -32.5q0 -4 -10.5 -10.5t-23.5 -18.5t-23.5 -31.5t-10.5 -48.5q0 -66 54.5 -100.5t140.5 -34.5q45 0 85 14t70.5 43t48 75t17.5 112q0 96 -51 158.5t-162 68.5h-76q-16 0 -23 12t-7 29q0 16 7 30.5t23 16.5h76 q82 8 129 72.5t47 152.5q0 82 -41 138.5t-141 56.5q-70 0 -121 -34t-51 -106q0 -27 10 -46t23.5 -31.5t23.5 -19.5t10 -9q0 -10 -24.5 -32.5t-69.5 -22.5q-68 0 -103.5 42t-35.5 103q0 59 30.5 102.5t80 71t110 40.5t121.5 13q66 0 131.5 -13t117.5 -44t84 -82t32 -127 q0 -80 -56.5 -155.5t-177.5 -108.5v-8q45 -4 94 -18.5t91 -44t70 -79t28 -122.5q0 -90 -36 -151.5t-94.5 -99.5t-135 -55.5t-158.5 -17.5q-61 0 -124 12.5t-115 39t-85 70.5t-33 107z" />
<glyph unicode="4" horiz-adv-x="1015" d="M31 399q0 27 14 45l576 629q12 12 29.5 16.5t33.5 4.5q29 0 53.5 -16.5t26.5 -55.5v-594h123q23 0 38 -5t17 -44q0 -20 -8 -35.5t-31 -15.5h-139v-314q0 -18 -27.5 -28.5t-60.5 -10.5t-59.5 10.5t-30.5 28.5v314h-490q-35 0 -50 21.5t-15 49.5zM150 428h436v485z" />
<glyph unicode="5" horiz-adv-x="993" d="M106 214q5 36 22 65.5t47 48t69 18.5q45 0 69.5 -22.5t24.5 -32.5q0 -4 -10.5 -11.5t-23.5 -21.5t-23.5 -33.5t-10.5 -46.5q0 -35 15.5 -61.5t40 -45t54.5 -28.5t60 -10q59 0 105.5 25.5t77 67.5t47 93t16.5 105q0 53 -12 102t-39 87t-71 62.5t-105 26.5 q-51 2 -99.5 -19.5t-95.5 -54.5q-10 -8 -31.5 -20t-39.5 -12q-14 0 -20.5 9t-9.5 22.5t-2 27.5t1 23l63 487h523h37.5t30.5 -6t21.5 -20.5t10.5 -43.5q0 -29 -16.5 -52t-57.5 -23h-455l-43 -285q43 25 99.5 41t122.5 16q61 0 128.5 -20.5t124 -63.5t94.5 -111.5t38 -162.5 q0 -92 -41 -162t-105.5 -118t-144.5 -71.5t-156 -23.5q-29 0 -77 6t-99 25.5t-94 55.5t-57 97q-8 35 -3 71z" />
<glyph unicode="6" horiz-adv-x="1042" d="M109 410q0 125 46 237.5t129 202.5t198.5 152.5t254.5 87.5q33 4 52.5 -1.5t19.5 -33.5q0 -10 -7 -23.5t-30 -19.5q-199 -61 -305.5 -170t-140.5 -250q72 47 137 64.5t135 17.5q74 0 139.5 -25.5t113.5 -71t75.5 -107.5t27.5 -136q0 -86 -35.5 -154.5t-94 -118 t-134.5 -76t-155 -26.5q-96 0 -175 30.5t-134.5 89t-86 141.5t-30.5 190zM305 408q0 -53 11.5 -120t37 -125.5t69.5 -98t112 -39.5q96 0 159.5 79.5t63.5 210.5q0 123 -63.5 195t-166.5 72q-53 0 -108 -26t-103 -69q-4 -12 -8 -34.5t-4 -44.5z" />
<glyph unicode="7" horiz-adv-x="872" d="M82 784l8 240q0 29 18.5 37t41.5 8h624q39 0 50.5 -14.5t7 -37t-17.5 -48t-26 -45.5q-61 -104 -115.5 -230.5t-101.5 -250.5t-86 -234.5t-71 -183.5q-16 -37 -39 -51.5t-45 -14.5q-25 0 -46.5 21.5t-21.5 66.5q0 39 22.5 104.5t58.5 145.5t82 168t92 172t88 158.5 t71 128.5h-359q-37 0 -62.5 -4.5t-43.5 -18.5t-29.5 -43t-17.5 -78q-4 -16 -12.5 -23t-34.5 -7q-35 0 -35 34z" />
<glyph unicode="8" horiz-adv-x="1050" d="M111 258q0 94 62.5 159.5t176.5 114.5q-98 59 -144 121t-46 140q0 61 31.5 115.5t85 93t122 61t144.5 22.5q78 0 142.5 -21.5t111.5 -59t72.5 -89t25.5 -110.5q0 -150 -205 -254q135 -57 191.5 -121t56.5 -162q0 -61 -30.5 -117.5t-87 -99.5t-135.5 -67.5t-175 -24.5 q-92 0 -166 22.5t-126 62.5t-79.5 94.5t-27.5 119.5zM295 266q0 -106 63.5 -172.5t169.5 -66.5q104 0 165 58t61 146q0 47 -23.5 83t-65.5 66t-102.5 58.5t-134.5 61.5q-61 -41 -97 -101.5t-36 -132.5zM330 827q0 -41 23.5 -74.5t63.5 -62t93 -53.5t111 -49q55 41 84.5 99 t29.5 120q0 41 -12 79t-38 66.5t-63.5 46t-89.5 17.5q-96 0 -149 -54.5t-53 -134.5z" />
<glyph unicode="9" horiz-adv-x="1040" d="M86 711q0 86 36 154.5t94 117.5t134 75.5t156 26.5q96 0 175 -30.5t134 -89t86 -141.5t31 -189q0 -127 -46 -238.5t-129 -202t-199 -152.5t-255 -87q-33 -4 -52.5 1t-19.5 34q0 10 7 23.5t30 19.5q199 61 305.5 169.5t141.5 250.5q-72 -47 -137.5 -64.5t-135.5 -17.5 q-74 0 -139 25.5t-113.5 70.5t-76 107.5t-27.5 136.5zM283 729q0 -123 63.5 -194.5t165.5 -71.5q53 0 108.5 25.5t102.5 68.5q4 12 8 34.5t4 45.5q0 53 -11 119.5t-36.5 125t-70 98.5t-111.5 40q-96 0 -159.5 -80t-63.5 -211z" />
<glyph unicode=":" horiz-adv-x="507" d="M123 106q0 53 37 89t94 36q59 0 95 -35.5t36 -89.5q0 -59 -37 -95t-96 -36q-55 0 -92 36t-37 95zM123 750q0 57 36 93t95 36q57 0 93 -36t36 -93t-36 -92t-95 -35q-57 0 -93 34.5t-36 92.5z" />
<glyph unicode=";" horiz-adv-x="534" d="M79 -200.5q3 12.5 19 18.5q86 33 130 77t44 105q0 37 -23.5 59.5t-53 42t-53 41t-23.5 56.5q0 39 29.5 70.5t72.5 31.5q45 0 83 -21.5t65.5 -57.5t43 -79t15.5 -86q0 -63 -27.5 -113t-70.5 -87t-97.5 -62.5t-107.5 -40.5q-16 -6 -27.5 1t-16.5 19.5t-2 25zM131 743 q0 57 39 93t92 36q57 0 93 -35.5t36 -93.5q0 -55 -36 -91t-95 -36q-53 0 -91 36t-38 91z" />
<glyph unicode="&#x3c;" horiz-adv-x="1083" d="M74 526q0 14 6 28.5t20 23.5l803 421q16 4 25 5q27 0 37 -19.5t10 -40.5q0 -39 -37 -57l-684 -357v-6l684 -356q37 -23 37 -57q0 -20 -10.5 -41t-36.5 -21q-12 0 -25 6l-803 420q-27 18 -26 51z" />
<glyph unicode="=" horiz-adv-x="1290" d="M139 356q0 23 12.5 39.5t34.5 16.5h918q23 0 35 -16.5t12 -39.5q0 -20 -12.5 -37.5t-34.5 -17.5h-918q-23 0 -35 17.5t-12 37.5zM139 700q0 23 12.5 39.5t34.5 16.5h918q23 0 35 -16.5t12 -39.5q0 -20 -12.5 -37.5t-34.5 -17.5h-918q-23 0 -35 17.5t-12 37.5z" />
<glyph unicode="&#x3e;" horiz-adv-x="1083" d="M109 111q0 35 36 57l684 356v6l-684 357q-37 18 -36 57q0 20 10 40t37 20q8 0 24 -5l803 -421q14 -8 20.5 -22.5t6.5 -29.5q0 -33 -27 -51l-803 -420q-12 -6 -24 -6q-27 0 -37 20.5t-10 41.5z" />
<glyph unicode="?" horiz-adv-x="890" d="M93 1152q-5 36 3 71q14 61 57.5 97t94.5 55.5t99 25.5t77 6q72 2 139.5 -12.5t119.5 -48t83 -89t31 -135.5q0 -57 -21.5 -103t-57.5 -86t-80 -73t-87 -61q-39 -27 -75 -53.5t-64.5 -55t-46 -62.5t-17.5 -73t25.5 -63.5t54.5 -24.5q35 0 65.5 17.5t59.5 45.5 q18 18 36.5 24.5t35.5 4.5q33 -4 52 -28.5t-7 -53.5q-45 -45 -100.5 -69.5t-106.5 -24.5q-47 0 -90 17.5t-77 50t-54.5 78.5t-20.5 106q0 47 18.5 85t49 69.5t68.5 58t79 51.5q39 25 76 49.5t65.5 53t46 62.5t17.5 77q0 80 -52 137t-155 55q-31 0 -62.5 -9t-56 -27.5 t-41 -46t-16.5 -62.5q0 -27 10.5 -46.5t23.5 -33.5t23.5 -22.5t10.5 -10.5q0 -10 -25 -32.5t-70 -22.5q-39 0 -68.5 18.5t-47 48t-22.5 65.5zM303 106q0 53 37 91.5t94 38.5t94 -38t37 -92q0 -59 -37 -95t-96 -36q-55 0 -92 36t-37 95z" />
<glyph unicode="@" horiz-adv-x="1798" d="M104 449q0 160 66 310t186.5 267t290.5 187.5t379 70.5q172 0 300 -50t213 -135t128 -195.5t43 -231.5q0 -113 -36 -212.5t-100.5 -174t-153.5 -117.5t-195 -43q-86 0 -147.5 39t-69.5 117q-51 -70 -114 -111t-128 -41q-45 0 -87 14.5t-76 45t-54.5 80.5t-20.5 124 q0 68 34 156t97.5 166t151.5 131t197 53q57 0 101 -24.5t60 -79.5l33 73q8 16 24.5 22.5t35.5 6.5q14 0 31.5 -5t30.5 -15.5t20.5 -25.5t3.5 -34l-172 -444q-12 -29 -16.5 -59.5t2.5 -56.5t27.5 -42t57.5 -16q78 0 144.5 35.5t115.5 99t77 152.5t28 196q0 106 -38 198.5 t-113 162t-186.5 109.5t-260.5 40q-131 0 -262 -48t-235.5 -141.5t-170 -228.5t-65.5 -309q0 -168 51 -293t140 -208t211 -124t263 -41q158 0 277 40.5t223 99.5q14 8 24.5 1.5t15.5 -17.5t3 -25.5t-14 -22.5q-104 -74 -238.5 -119t-296.5 -45q-152 0 -301.5 45t-268 136.5 t-192.5 229.5t-74 327zM707 354q0 -86 39.5 -111.5t92 -11t104.5 57.5t75 96l117 309q-23 137 -134 137q-51 0 -103 -49t-95 -121.5t-69.5 -155.5t-26.5 -151z" />
<glyph unicode="A" d="M-25 39q2 35 15.5 39t36.5 4q41 0 66.5 13.5t43 36t29.5 51t24 57.5l359 847q14 37 10 59.5t-19.5 37t-39 21.5t-47.5 12q-31 6 -41.5 11t-10.5 36q0 35 23.5 38t58.5 3q63 0 111.5 -9.5t86.5 -32t68.5 -65.5t59.5 -111l344 -847q10 -27 22.5 -54.5t29 -50t39 -38 t54.5 -15.5q23 0 36.5 -4t15.5 -39q0 -16 -9.5 -30.5t-27.5 -14.5q-66 4 -115 5t-111 1q-123 0 -253 -6q-20 0 -28.5 14.5t-8.5 30.5q2 35 15 39t36 4q49 0 75.5 9t34 27.5t2 48.5t-21.5 73l-70 170h-506q-49 -125 -65 -170q-16 -53 -22.5 -84t6 -47.5t46 -21.5t93.5 -5 q23 0 36 -4t15 -39q0 -16 -9 -30.5t-28 -14.5q-66 4 -114 5t-109 1h-53.5t-44 -1t-45 -2t-56.5 -3q-20 0 -28.5 14.5t-8.5 30.5zM401 498h430l-206 526h-7z" />
<glyph unicode="B" horiz-adv-x="1271" d="M86 39q2 35 15.5 39t35.5 4q49 0 76 13.5t39 36t15 51t3 57.5v813q0 29 -3 57.5t-15 51t-39 35.5t-76 13q-23 0 -36 4.5t-15 38.5q0 16 8 30.5t29 14.5q66 -4 123 -5t119 -1h288q119 0 186.5 -17.5t121.5 -49.5q53 -35 83.5 -95.5t30.5 -132.5q0 -70 -25.5 -122 t-66.5 -88.5t-90 -59t-94 -33.5v-6q82 0 150.5 -23.5t117.5 -64.5t78 -94t31 -113v-8q0 -111 -52 -185q-54 -76 -136.5 -120.5t-182.5 -63t-193 -18.5l-245 2q-61 0 -120 -1t-124 -5q-20 0 -28.5 14.5t-8.5 30.5zM473 240q0 -51 7 -83t23.5 -48.5t45.5 -22.5t72 -6 q68 0 129 16.5t106 52t71.5 95t26.5 149.5q-4 49 -26.5 94t-68.5 81t-119.5 57.5t-182.5 21.5h-84v-407zM473 729h86q41 0 93.5 4t97.5 26.5t75.5 72t30.5 141.5q0 109 -52 176.5t-188 67.5h-143v-488z" />
<glyph unicode="C" horiz-adv-x="1308" d="M100 637q0 156 47.5 285t134.5 220t210.5 141t277.5 50q74 0 154 -14t146.5 -48t108.5 -89.5t42 -137.5q0 -43 -13.5 -82.5t-40 -70.5t-66.5 -49.5t-89 -18.5q-31 0 -52.5 9.5t-35 21.5t-18.5 24.5t-5 18.5q0 4 16.5 13.5t35 26.5t35 45t16.5 69q0 92 -61.5 146 t-174.5 54q-92 0 -171 -40t-136.5 -116.5t-89 -188t-31.5 -257.5q0 -123 34 -230.5t95 -187t147 -126t191 -46.5q111 0 188.5 45.5t143.5 149.5q10 19 28 19q15 0 37 -13q18 -12 28 -30q4 -8 5 -15q0 -10 -8 -20q-59 -74 -111.5 -120t-109 -72t-123 -35t-152.5 -9 q-129 0 -243.5 46t-201.5 134t-137.5 214t-50.5 284z" />
<glyph unicode="D" horiz-adv-x="1490" d="M88 39q2 35 15.5 39t35.5 4q49 0 76 13.5t39 36t15 51t3 57.5v813q0 29 -3 57.5t-15 51t-39 35.5t-76 13q-23 0 -36 4.5t-15 38.5q0 16 8 30.5t27 14.5q68 -4 125 -5t119 -1h319q147 0 275.5 -44t223.5 -128t150.5 -205.5t55.5 -275.5q0 -164 -64.5 -285t-169 -199.5 t-238 -116.5t-270.5 -38h-282q-61 0 -119 -1t-125 -5q-18 0 -26.5 14.5t-8.5 30.5zM475 215q0 -84 50 -111.5t155 -27.5q125 0 213 41t143.5 114.5t81 177t25.5 230.5q0 125 -34 231.5t-98.5 184.5t-159.5 121t-216 43q-16 0 -160 -2v-1002z" />
<glyph unicode="E" horiz-adv-x="1216" d="M88 39q2 35 15.5 39t35.5 4q49 0 76 13.5t39 36t15 51t3 57.5v813q0 29 -3 57.5t-15 51t-39 35.5t-76 13q-23 0 -36 4.5t-15 38.5q0 16 8 30.5t27 14.5q68 -4 125 -5t119 -1h643q23 0 38 -10t15 -39l6 -287q0 -20 -19.5 -30.5t-35.5 -10.5q-23 0 -41.5 9.5t-22.5 27.5 q-10 70 -23.5 118t-35 79t-55 45t-86.5 16h-275v-520h371q16 -2 23.5 -16.5t7.5 -30.5t-7.5 -28.5t-23.5 -12.5h-371v-387q2 -20 4 -44t15.5 -44.5t41.5 -33.5q25 -11 68 -11h14h189q53 2 87 13t56.5 39t39 73t36.5 112q8 20 27.5 26.5t42.5 2.5q16 -4 33.5 -15t15.5 -32 l-41 -258q-6 -29 -19.5 -36t-40.5 -7h-675q-61 0 -120 -1t-126 -5q-18 0 -26.5 14.5t-8.5 30.5z" />
<glyph unicode="F" horiz-adv-x="1075" d="M88 39q2 35 15.5 39t35.5 4q49 0 76 13.5t39 36t15 51t3 57.5v813q0 29 -3 57.5t-15 51t-39 35.5t-76 13q-23 0 -36 4.5t-15 38.5q0 16 8 30.5t27 14.5q66 -4 124 -5t120 -1h591q23 0 38.5 -10t15.5 -39l6 -287q0 -20 -19.5 -30.5t-35.5 -10.5q-23 0 -42.5 9.5 t-23.5 27.5q-10 70 -22.5 118t-34 79t-55 45t-87.5 16h-223v-532h367q16 -2 24 -16.5t8 -30.5t-8 -28.5t-24 -12.5h-367v-350q0 -29 3 -57.5t15.5 -51t39 -36t75.5 -13.5q20 0 34.5 -4t16.5 -39q0 -16 -8 -30.5t-28 -14.5q-133 6 -254 6q-61 0 -121 -1t-125 -5 q-18 0 -26.5 14.5t-8.5 30.5z" />
<glyph unicode="G" horiz-adv-x="1417" d="M100 637q0 156 52.5 285t147.5 220t226 141t289 50q72 0 148.5 -16.5t140 -51t104.5 -89t41 -132.5q0 -43 -13 -82.5t-37.5 -70.5t-61.5 -49.5t-82 -18.5q-39 0 -81 19.5t-44 54.5q0 4 16.5 14.5t34.5 28.5t34.5 47t16.5 72q0 88 -67.5 140t-173.5 52q-94 0 -176.5 -40 t-143.5 -116.5t-96 -188t-35 -257.5q0 -139 34 -247.5t95 -185.5t147 -117t191 -40q68 0 117 8.5t104 24.5v209q0 43 -1 72.5t-12 48t-36 28t-70 9.5q-23 0 -39 4t-18 39q0 16 10 30.5t33 14.5q33 -2 58.5 -3l51 -2t53 -1h62.5h61.5t51 1t50.5 2t58 3q20 0 29.5 -14.5 t9.5 -30.5q-2 -35 -18 -39t-39 -4q-43 0 -66.5 -10.5t-34 -30t-12.5 -49t-2 -68.5v-242q-59 -29 -112.5 -48t-107.5 -30.5t-115.5 -16.5t-137.5 -5q-129 0 -244.5 41t-202.5 125t-137.5 211t-50.5 301z" />
<glyph unicode="H" horiz-adv-x="1591" d="M88 39q2 35 15.5 39t35.5 4q49 0 76 13.5t39 36t15 51t3 57.5v813q0 29 -3 57.5t-15 51t-39 35.5t-76 13q-23 0 -36 4.5t-15 38.5q0 16 8 30.5t29 14.5q66 -4 123 -5t119 -1q123 0 256 6q20 0 28 -14t8 -31q-2 -35 -15 -39t-36 -4q-49 0 -75.5 -13t-39 -35.5t-15.5 -51.5 t-3 -57v-363h643v363q0 29 -3 57.5t-15.5 51t-39 35.5t-75.5 13q-23 0 -37 4.5t-16 38.5q0 16 9 30.5t28 14.5q131 -6 256 -6q61 0 119.5 1t123.5 5q18 0 27.5 -14t9.5 -31q-2 -35 -16 -39t-35 -4q-49 0 -75.5 -13t-40 -35.5t-16.5 -51.5t-3 -57v-813q0 -29 3 -57.5 t16.5 -51t40 -36t75.5 -13.5q20 0 34.5 -4t16.5 -39q0 -16 -9 -30.5t-28 -14.5q-66 4 -125 5t-120 1q-123 0 -254 -6q-18 0 -27.5 14.5t-9.5 30.5q2 35 16.5 39t36.5 4q49 0 75.5 13.5t39 36t15.5 51t3 57.5v362h-643v-362q0 -29 3 -57.5t15.5 -51t39 -36t75.5 -13.5 q23 0 36 -4t15 -39q0 -16 -8 -30.5t-28 -14.5q-133 6 -254 6q-61 0 -120 -1t-124 -5q-20 0 -28.5 14.5t-8.5 30.5z" />
<glyph unicode="I" horiz-adv-x="745" d="M86 39q2 35 16.5 39t34.5 4q49 0 76 13.5t39 36t15 51t5 57.5v813q-2 29 -5 57.5t-15 51t-39 35.5t-76 13q-20 0 -34.5 4.5t-16.5 38.5q0 16 8 30.5t29 14.5q66 -4 124 -5t120 -1q123 0 256 6q18 0 27 -14t9 -31q-4 -35 -17 -39t-36 -4q-49 0 -75.5 -13t-39 -35.5 t-15.5 -51.5t-3 -57v-813q0 -29 3 -57.5t15.5 -51t39 -36t75.5 -13.5q23 0 36 -4t17 -39q0 -16 -9 -30.5t-27 -14.5q-133 6 -254 6q-61 0 -121 -1t-125 -5q-20 0 -28.5 14.5t-8.5 30.5z" />
<glyph unicode="J" horiz-adv-x="706" d="M4 -358q-2 10 -2 17q0 25 23 34q80 33 125 87t68.5 133t29.5 182.5t6 236.5v721q0 29 -3 57.5t-15.5 51t-39 35.5t-75.5 13q-23 0 -37 4.5t-16 38.5q0 16 9 30.5t27 14.5q66 -4 124.5 -5t119.5 -1q123 0 256 6q18 0 27.5 -14t9.5 -31q-2 -35 -16.5 -39t-36.5 -4 q-49 0 -76 -13t-39 -35.5t-15 -51.5t-3 -57v-791q0 -123 -19.5 -229.5t-66.5 -192.5t-125 -146t-193 -87q-4 -1 -9 -1q-28 0 -38 36z" />
<glyph unicode="K" horiz-adv-x="1433" d="M88 39q2 35 15.5 39t35.5 4q49 0 76 13.5t39 36t15 51t3 57.5v813q0 29 -3 57.5t-15 51t-39 35.5t-76 13q-23 0 -36 4.5t-15 38.5q0 18 8 31.5t29 13.5q66 -4 123 -5t119 -1q123 0 256 6q20 0 28 -12t8 -33q-2 -31 -13 -37t-38 -6q-49 0 -75.5 -13t-39 -35.5t-15.5 -51.5 t-3 -57v-371q35 8 81 41t93 74q78 72 152 154.5t137 158.5q38 42 38 66q0 28 -56 32q-27 2 -29 43q0 18 10 32.5t27 14.5q53 -4 112.5 -5t112.5 -1q41 0 93 2t93 4q20 0 29.5 -14t9.5 -33q-4 -31 -14 -37t-27 -6h-19q-68 0 -132 -24q-72 -28 -156 -113q-35 -37 -91 -95 t-110 -114q-63 -66 -131 -137q121 -147 245 -269t212 -216q35 -35 61.5 -62.5t52 -47t52.5 -32t61 -16.5q16 -2 33 -5t19 -38q0 -16 -8.5 -30.5t-28.5 -14.5q-33 2 -52.5 3t-37 2t-36 1h-48.5h-131q-113 125 -231 257t-253 290q-37 43 -68.5 60.5t-64.5 21.5v-389 q0 -29 3 -57.5t15.5 -51t39 -36t75.5 -13.5q23 0 36 -4t15 -39q0 -16 -8 -30.5t-28 -14.5q-133 6 -254 6q-61 0 -120 -1t-124 -5q-20 0 -28.5 14.5t-8.5 30.5z" />
<glyph unicode="L" horiz-adv-x="1169" d="M88 39q2 31 15.5 37t35.5 6q49 0 76 13.5t39 36t15 51t3 57.5v813q0 29 -3 57.5t-15 51t-39 35.5t-76 13q-23 0 -36 5.5t-15 37.5q0 20 8 32.5t27 12.5q68 -4 125 -5t119 -1q123 0 256 6q20 0 28 -14t8 -31q-2 -35 -16 -39t-35 -4q-49 0 -75.5 -13t-39 -35.5t-15.5 -51.5 t-3 -57v-844q2 -20 4 -43t15.5 -42.5t41.5 -31.5q24 -10 67 -10h15h185q53 2 87 13t56.5 39t38.5 73t37 112q8 20 27.5 26.5t42.5 2.5q16 -4 33.5 -15t15.5 -32l-41 -258q-6 -29 -19.5 -36t-40.5 -7h-671q-61 0 -120 -1t-126 -5q-18 0 -26.5 14.5t-8.5 30.5z" />
<glyph unicode="M" horiz-adv-x="1820" d="M86 1264q0 35 23.5 38t58.5 3q76 0 137.5 -9.5t111.5 -32t89 -65.5t67 -111l353 -790h6l403 995h117q61 0 119.5 1t124.5 5q20 0 28.5 -14t8.5 -31q-2 -35 -16.5 -39t-35.5 -4q-49 0 -75.5 -13t-39 -35.5t-15.5 -51.5t-3 -57v-813q0 -29 3 -57.5t15.5 -51t39 -36 t75.5 -13.5q20 0 35 -4t17 -39q0 -16 -8.5 -30.5t-28.5 -14.5q-66 4 -125.5 5t-120.5 1q-121 0 -252 -6q-20 0 -28.5 14.5t-8.5 30.5q2 35 15.5 39t35.5 4q49 0 76 13.5t39 36t15.5 51t3.5 57.5v813h-7l-421 -1043q-4 -10 -16.5 -15t-24.5 -5t-24.5 5t-18.5 15l-461 1043h-6 l4 -813q0 -29 2 -57.5t14 -51t38 -36t75 -13.5q23 0 36 -4t17 -39q0 -16 -9 -30.5t-28 -14.5q-33 2 -54.5 3t-41 2t-40 1h-50.5h-54.5t-45 -1t-46 -2t-57.5 -3q-20 0 -28.5 14.5t-8.5 30.5q2 35 15.5 39t35.5 4q49 0 75 13.5t38 36t14 51t2 57.5l4 813q0 49 -8 77.5 t-25.5 45t-43 25.5t-60.5 16q-29 6 -40 10t-11 37z" />
<glyph unicode="N" horiz-adv-x="1509" d="M86 1264q0 35 23.5 38t58.5 3q86 0 145.5 -10.5t106.5 -35t88 -66.5t88 -106l561 -737h6l-4 703q0 29 -2 57.5t-14.5 51t-38 35.5t-74.5 13q-23 0 -36 4.5t-17 38.5q0 16 9 30.5t28 14.5q33 -2 56.5 -3t44 -2t43 -1h52.5h52.5t42 1t43 2t55.5 3q20 0 28.5 -14t8.5 -31 q-2 -35 -15.5 -39t-35.5 -4q-49 0 -75 -13t-38 -35.5t-14 -51.5t-2 -57l-5 -1033q-2 -16 -19 -21t-32 -5q-39 0 -59 26l-772 1033h-6l4 -813q0 -29 2 -57.5t14 -51t38 -36t75 -13.5q23 0 37 -4t16 -39q0 -16 -9 -30.5t-28 -14.5q-33 2 -56.5 3t-45 2t-44 1h-53.5h-52 t-40.5 -1t-42 -2t-55.5 -3q-20 0 -28.5 14.5t-8.5 30.5q2 35 15.5 39t35.5 4q49 0 75 13.5t38 36t14 51t2 57.5l4 813q0 47 -8 76.5t-24.5 46t-42 25.5t-62.5 16q-31 6 -41 11t-10 36z" />
<glyph unicode="O" horiz-adv-x="1505" d="M96 629q0 170 59.5 301t153.5 221t211 136t230 46q154 0 275.5 -55t206.5 -148.5t131 -214t46 -249.5q0 -170 -60.5 -301.5t-155.5 -221.5t-213 -137t-230 -47q-152 0 -273 55.5t-205 148.5t-130 214t-46 252zM336 635q0 -117 24.5 -222.5t75.5 -186.5t129.5 -129 t182.5 -48q109 0 187.5 50.5t129.5 135t75.5 196.5t24.5 235q0 115 -25.5 220t-77.5 185t-131 127t-183 47q-109 0 -187 -49t-128 -133t-73.5 -194.5t-23.5 -233.5z" />
<glyph unicode="P" horiz-adv-x="1236" d="M86 39q2 35 16.5 39t36.5 4q49 0 76 13.5t39 36t15 51t3 57.5v813q0 29 -3 57.5t-15 51t-39 35.5t-76 13q-23 0 -37 4.5t-16 38.5q0 16 9 30.5t28 14.5q66 -4 125 -5t121 -1h307q33 0 83 -3t106.5 -15t113.5 -37t104 -66t76 -101t29 -146q0 -96 -44 -174t-117 -133.5 t-164 -85t-185 -29.5q-47 0 -99.5 6t-105.5 27v-295q0 -29 3 -57.5t15.5 -51t39 -36t75.5 -13.5q23 0 37 -4t16 -39q0 -16 -9 -30.5t-27 -14.5q-133 6 -256 6q-61 0 -120 -1t-124 -5q-18 0 -27.5 14.5t-9.5 30.5zM473 616q20 -10 59 -16t86 -6t106.5 14.5t112 51t88.5 99 t36 159.5q0 104 -42 163.5t-100.5 90t-119 38t-97.5 7.5t-62.5 -5.5t-40 -21.5t-20.5 -48t-6 -83v-443z" />
<glyph unicode="Q" horiz-adv-x="1505" d="M96 629q0 170 59.5 301t153.5 221t211 136t230 46q154 0 276.5 -55t207.5 -148.5t131 -214t46 -249.5q0 -117 -31.5 -219.5t-87 -185.5t-133.5 -144.5t-170 -98.5q-10 -4 -29.5 -9t-54.5 -7v-4q55 -6 101 -29q76 -37 142 -85t126.5 -91t117 -71.5t111.5 -28.5 q39 4 55.5 24.5t16.5 46.5q0 47 -36 90.5t-99 45.5q-1 5 -1 10q0 25 23 52q29 32 94 32q16 0 41 -9.5t48.5 -28.5t40 -51t16.5 -75q0 -47 -25.5 -90t-65.5 -76t-89 -52.5t-99 -21.5q-104 0 -179 34t-139.5 83t-131 105.5t-154.5 101.5q-37 18 -72.5 30.5t-82.5 22.5 q-90 20 -173 50t-141 75q-123 94 -188.5 235.5t-65.5 301.5zM338 635q0 -117 24.5 -223.5t75.5 -188.5t128.5 -131t181.5 -49q109 0 188.5 51t130.5 137t75.5 199t24.5 236q0 115 -25.5 220t-77.5 185t-131 127t-185 47q-109 0 -187 -49t-127 -133t-72.5 -194.5 t-23.5 -233.5z" />
<glyph unicode="R" horiz-adv-x="1374" d="M88 39q2 35 15.5 39t35.5 4q49 0 76 13.5t39 36t15 51t3 57.5v811q0 29 -3 57.5t-15 51t-39 36.5t-76 14q-23 0 -36 4.5t-15 38.5q0 16 8 30.5t29 14.5q66 -4 124 -5t120 -1h352q125 -2 213 -31.5t144.5 -75.5t83 -105.5t26.5 -121.5q0 -55 -22.5 -107t-65.5 -97 t-104.5 -81.5t-139.5 -56.5q78 -123 158 -246.5t184 -232.5q29 -23 56.5 -37t66.5 -18q16 -2 32.5 -5t18.5 -38q0 -16 -8 -30.5t-29 -14.5q-33 2 -54 3t-39.5 2t-39 1h-51.5q-86 16 -143.5 58t-112.5 120q-57 78 -106.5 157t-96.5 157q-14 20 -26.5 36.5t-28.5 25.5t-41 14 t-61 5h-60v-333q0 -29 3 -57.5t15.5 -51t39 -36t75.5 -13.5q20 0 34.5 -4t16.5 -39q0 -16 -8 -30.5t-28 -14.5q-133 6 -256 6q-61 0 -119 -1t-123 -5q-20 0 -28.5 14.5t-8.5 30.5zM475 653h180q104 0 165 30t91.5 73t40 93t9.5 91q0 49 -16.5 99.5t-55.5 89t-105 63.5 t-166 25q-43 0 -71.5 -7.5t-44 -27t-21.5 -52t-6 -83.5v-394z" />
<glyph unicode="S" horiz-adv-x="1116" d="M100 254q0 74 50.5 122t130.5 48q53 -4 74.5 -27.5t21.5 -36.5q0 -4 -11.5 -9t-25.5 -17t-25.5 -33.5t-11.5 -58.5q0 -92 56.5 -146.5t183.5 -54.5q66 0 118 20.5t87.5 53t54 74.5t18.5 85q0 84 -51 139.5t-127 96.5t-165 78t-167 85t-130 117.5t-54 176.5v11 q1 88 31 154q32 70 92.5 114t142.5 65.5t176 21.5q68 0 137.5 -14t125 -45t90 -80t34.5 -119q0 -74 -50 -122t-130 -48q-53 4 -74.5 27.5t-21.5 36.5q0 4 15.5 9t34 17.5t33.5 34t15 57.5q0 78 -59.5 120t-147.5 42q-68 0 -115.5 -17.5t-78.5 -45t-45.5 -64.5t-14.5 -75 q0 -76 41 -123t123 -93q92 -49 187.5 -90t174.5 -94t129 -129t50 -196q0 -78 -38 -144.5t-102.5 -115t-152.5 -76t-186 -27.5q-215 0 -329 73.5t-114 221.5z" />
<glyph unicode="T" horiz-adv-x="1228" d="M53 954l6 289q0 29 16.5 39t39.5 10h1001q23 0 38 -10t15 -39l9 -289q0 -20 -17.5 -30.5t-34.5 -10.5q-23 0 -44 9.5t-25 27.5q-10 70 -23.5 119t-35 82t-55.5 48t-87 18h-139v-977q0 -29 3 -57.5t15.5 -51t39 -36t75.5 -13.5q20 0 34.5 -4t16.5 -39q0 -16 -8 -30.5 t-29 -14.5q-66 4 -124 5t-117 1q-125 0 -256 -6q-20 0 -28.5 14.5t-8.5 30.5q2 35 15 39t36 4q49 0 75.5 13.5t39 36t15.5 51t3 57.5v977h-141q-53 -2 -87 -17.5t-55.5 -48.5t-34 -82t-22.5 -119q-4 -18 -26.5 -27.5t-45.5 -9.5q-16 0 -32.5 10.5t-16.5 30.5z" />
<glyph unicode="U" horiz-adv-x="1474" d="M55 1253q0 16 8.5 30.5t28.5 14.5q66 -4 123 -5t119 -1q123 0 256 6q20 0 28.5 -14t8.5 -31q-2 -31 -12.5 -37t-28.5 -6q-53 0 -81 -13t-42 -34.5t-17.5 -50.5t-3.5 -59v-639q0 -53 10.5 -111.5t44 -108t98 -82t173.5 -32.5q104 0 171 26.5t105.5 70.5t54 98.5 t15.5 109.5v539q0 100 -5 157.5t-21.5 86t-48 35.5t-83.5 7q-20 0 -34.5 4.5t-16.5 38.5q0 16 8.5 30.5t28.5 14.5q66 -4 117 -5t112 -1t112.5 1t117.5 5q20 0 28.5 -14t8.5 -31q-2 -31 -12.5 -37t-28.5 -6q-55 0 -89 -6t-51.5 -32.5t-22.5 -82t-5 -153.5v-571 q0 -109 -47 -186t-120 -126t-160 -71.5t-167 -22.5q-123 0 -216 34t-154.5 89t-93 126t-31.5 146v699q0 29 -3.5 57.5t-15.5 51t-38.5 35.5t-76.5 13q-23 0 -36 4.5t-15 38.5z" />
<glyph unicode="V" horiz-adv-x="1327" d="M18 1262q0 35 24 38t58 3q137 -2 212 -50.5t122 -165.5l297 -798h6l283 821q12 34 12 56q0 19 -10 27q-21 17 -92 17q-23 0 -36 4.5t-15 38.5q0 16 8 30.5t26 14.5q66 -4 114 -5t110 -1h52t41.5 1t43 2t55.5 3q20 0 28.5 -14t8.5 -31q-2 -35 -15.5 -39t-35.5 -4 q-78 0 -123 -28.5t-78 -110.5l-18 -46q-17 -46 -44.5 -122t-63.5 -174t-73 -201l-196 -548h-96q-111 301 -195 534q-37 100 -71.5 195.5t-62.5 170t-44 119.5l-17 45q-16 41 -31.5 71t-33.5 49.5t-42 31.5t-56 18q-29 6 -40.5 10.5t-11.5 37.5z" />
<glyph unicode="W" horiz-adv-x="1912" d="M16 1262q0 35 23.5 38t58.5 3q137 -2 212 -50.5t122 -165.5l234 -749h8l250 954h106l334 -954h6l232 772q8 32 8 52q0 22 -10 31q-18 17 -89 17q-23 0 -36 4.5t-15 38.5q0 16 8.5 30.5t26.5 14.5q66 -4 114 -5t109 -1h52.5t42 1t43 2t55.5 3q20 0 28.5 -14t8.5 -31 q-2 -35 -15.5 -39t-36.5 -4q-78 0 -128 -29.5t-72 -109.5l-336 -1091h-96l-332 976l-264 -976h-97l-340 1064q-16 41 -31.5 71t-34 49.5t-41.5 31.5t-56 18q-29 6 -40.5 10.5t-11.5 37.5z" />
<glyph unicode="X" d="M14 39q2 35 15.5 39t36.5 4q39 0 66.5 7t51 22.5t46 42t51.5 67.5l297 422l-263 412q-51 78 -98 111.5t-113 47.5q-29 6 -40 10.5t-11 37.5q0 35 23.5 38t58.5 3q72 0 128 -11.5t102.5 -37t85 -66.5t79.5 -98l168 -275l203 295q23 33 25 53.5t-12.5 30.5t-41 13t-61.5 3 q-23 0 -36 4.5t-15 38.5q0 16 8 30.5t27 14.5q66 -4 113.5 -5t109.5 -1h54.5t47 1t48 2t57.5 3q20 0 28.5 -14t8.5 -31q-2 -35 -15.5 -39t-36.5 -4q-39 0 -67.5 -7t-52 -22.5t-46 -43t-49.5 -66.5l-239 -340l356 -508q35 -51 77 -96t109 -45q23 0 36.5 -4t15.5 -39 q0 -16 -8.5 -30.5t-26.5 -14.5q-66 4 -125.5 5t-120.5 1q-119 0 -250 -6q-20 0 -28.5 14.5t-8.5 30.5q2 35 16.5 39t35.5 4q62 0 78 30q6 11 5 24q0 21 -18 46l-262 375l-262 -375q-23 -33 -25 -52t11.5 -30.5t41 -14.5t62.5 -3q23 0 36 -4t15 -39q0 -16 -8 -30.5t-27 -14.5 q-66 4 -114 5t-109 1h-54.5t-47 -1t-48 -2t-57.5 -3q-20 0 -28.5 14.5t-8.5 30.5z" />
<glyph unicode="Y" horiz-adv-x="1271" d="M8 1262q0 35 23.5 38t58.5 3q72 0 129 -10.5t104.5 -35t86 -65.5t73.5 -102q59 -111 107.5 -214.5t107.5 -213.5h7l227 448q18 35 19 54.5t-11 29.5t-37.5 13t-60.5 3q-23 0 -36 4.5t-15 38.5q0 16 8 30.5t26 14.5q66 -4 114 -5t110 -1h54t47 1t48.5 2t56.5 3 q20 0 28.5 -14t8.5 -31q-2 -35 -15 -39t-36 -4q-78 0 -127 -33.5t-88 -105.5l-231 -436q-14 -31 -24.5 -51.5t-18 -41t-10.5 -45t-3 -59.5v-198q0 -29 3 -57.5t15.5 -51t39 -36t75.5 -13.5q23 0 36.5 -4t15.5 -39q0 -16 -8.5 -30.5t-26.5 -14.5q-66 4 -125 5t-121 1 q-123 0 -254 -6q-20 0 -28.5 14.5t-8.5 30.5q2 35 16.5 39t34.5 4q49 0 76 13.5t39 36t15.5 51t3.5 57.5v256q0 12 -15.5 51t-40 92t-55.5 114.5t-60.5 120t-55 106.5t-40.5 75q-43 78 -94 111.5t-117 47.5q-29 6 -40 10.5t-11 37.5z" />
<glyph unicode="Z" horiz-adv-x="1271" d="M70 39q4 35 17 39t36 4q25 0 43 4t35.5 16.5t34 37t38.5 65.5l459 850q27 57 35 89t-3 46t-39 17t-73 3h-223q-53 -2 -86 -13t-55.5 -39t-40 -73t-37.5 -112q-6 -20 -25.5 -26.5t-42.5 -2.5q-16 4 -30.5 15.5t-12.5 31.5l41 258q6 29 19.5 36t40.5 7h702q119 0 252 6 q20 0 28.5 -14t8.5 -31q-2 -35 -15.5 -38t-35.5 -5q-37 -2 -65.5 -17t-50 -36.5t-37 -48.5t-30.5 -53l-448 -850q-8 -18 -14.5 -40t0 -40.5t30 -30.5t76.5 -12h242q53 2 87 13t56.5 39t39.5 73t38 112q6 20 25.5 26.5t42.5 2.5q16 -4 30.5 -15t12.5 -32l-41 -258 q-6 -29 -19.5 -36t-40.5 -7h-723q-61 0 -120.5 -1t-125.5 -5q-18 0 -27 14.5t-9 30.5z" />
<glyph unicode="[" horiz-adv-x="634" d="M96 -309v1663q0 43 6.5 70.5t20.5 43t38.5 19.5t61.5 4h295q47 0 47 -45q0 -43 -47 -43h-248q-20 0 -20 -25v-1712q0 -25 20 -24h248q47 0 47 -43q0 -45 -47 -45h-295q-37 0 -61.5 4t-38.5 19t-20.5 43t-6.5 71z" />
<glyph unicode="\" horiz-adv-x="806" d="M70 1380q-4 20 10 39t37 23q20 4 39.5 -6.5t27.5 -32.5l553 -1743q4 -23 -9 -39t-36 -20q-18 -4 -37.5 5t-27.5 32z" />
<glyph unicode="]" horiz-adv-x="634" d="M70 -401q0 43 47 43h248q20 0 20 24v1712q0 25 -20 25h-248q-47 0 -47 43q0 45 47 45h295q37 0 61.5 -4t38.5 -19.5t20.5 -43t6.5 -70.5v-1663q0 -43 -6.5 -71t-20.5 -43t-38.5 -19t-61.5 -4h-295q-47 0 -47 45z" />
<glyph unicode="^" horiz-adv-x="1034" d="M82 848l383 614q18 29 53 29q37 0 55 -29l381 -614q16 -31 -3 -49.5t-48 -20.5q-18 -2 -35.5 5.5t-27.5 23.5l-322 524l-321 -524q-10 -20 -27.5 -25.5t-36.5 -3.5q-29 2 -49.5 21.5t-1.5 48.5z" />
<glyph unicode="_" horiz-adv-x="1368" d="M168 -197q0 23 12.5 39.5t34.5 16.5h938q23 0 35 -16.5t12 -39.5q0 -20 -12 -37.5t-35 -17.5h-938q-23 0 -35 17.5t-12 37.5z" />
<glyph unicode="`" horiz-adv-x="577" d="M84 1352q0 31 26.5 58.5t63.5 27.5q47 0 74 -47l153 -281q8 -16 9 -29q0 -23 -14.5 -34t-35.5 -11q-27 0 -49 25l-209 244q-18 20 -18 47z" />
<glyph unicode="a" horiz-adv-x="1026" d="M70 219q0 74 35.5 125t91 84t124 51.5t135 27.5t123 12t89.5 7v162q0 96 -47 150.5t-164 54.5q-59 0 -108.5 -37t-49.5 -106q0 -25 10 -44.5t22.5 -31.5t23 -20.5t10.5 -10.5q0 -10 -24 -30.5t-65 -20.5q-66 0 -99.5 47t-33.5 104t29 97.5t75 65t104.5 35.5t117.5 11 q70 0 137.5 -11t120.5 -44t87 -91t34 -153v-477q0 -16 5 -36.5t17.5 -39t33 -32t50.5 -13.5q14 0 22.5 -5t8.5 -27q0 -14 -12 -23.5t-30.5 -14.5t-38 -7.5t-32.5 -2.5q-76 0 -135 44t-69 122q-23 -41 -64 -71.5t-89 -52t-98 -32t-93 -10.5q-53 0 -99.5 19.5t-80 52.5t-54 77 t-20.5 95zM276 246q0 -66 37 -113t97 -47q51 0 98 20.5t83 55.5t56.5 84t20.5 104v115q-98 -12 -172 -28.5t-122 -41t-73 -61.5t-25 -88z" />
<glyph unicode="b" horiz-adv-x="1148" d="M6 1389q0 12 8.5 22t24.5 14q70 10 115 21.5t73.5 21t46 15.5t33.5 8h6q11 0 21 -6q12 -8 12 -33v-618h6q61 61 136 89.5t147 28.5q90 0 169 -34.5t137 -98t91 -152.5t33 -196q0 -104 -39 -195.5t-103.5 -158t-149.5 -104.5t-177 -38q-182 0 -315 101h-11 q-8 -16 -14 -33.5t-14 -34t-18.5 -27t-24.5 -10.5q-18 0 -28.5 12.5t-10.5 28.5v1196v52.5t-9.5 45t-31 31t-64.5 11.5q-18 0 -33.5 5t-15.5 36zM346 215q4 -23 20.5 -51.5t46 -55t70.5 -45t95 -18.5q61 0 112 28.5t88 83t57.5 132.5t20.5 174q0 72 -16.5 141.5t-52 123.5 t-91 88t-133.5 34q-70 0 -123 -24.5t-94 -69.5v-541z" />
<glyph unicode="c" horiz-adv-x="972" d="M84 465q4 106 42 194.5t102.5 153t151.5 100t185 39.5q27 0 75 -4t96 -20.5t89 -50t58 -95.5q5 -22 5 -43q0 -13 -2 -27q-5 -36 -22.5 -66t-47.5 -48t-68 -18q-45 0 -70 22.5t-25 32.5q0 2 10.5 10t23.5 22.5t23.5 34t10.5 46.5q0 66 -47 96t-107 33q-90 0 -144 -38 t-83 -97.5t-38 -131t-9 -139.5q0 -84 19.5 -156.5t56.5 -125t90 -82t119 -29.5q90 0 151.5 37.5t112.5 115.5q14 20 43 5q14 -8 20 -22q2 -5 2 -11q0 -9 -6 -19q-68 -98 -167 -153.5t-204 -55.5q-104 0 -187 35t-140.5 99.5t-88 154.5t-30.5 201z" />
<glyph unicode="d" horiz-adv-x="1187" d="M84 465q0 94 35 182t98.5 155.5t149.5 108.5t190 41q66 0 128.5 -15t109.5 -42h6v313v52.5t-9.5 45t-31 31t-64.5 11.5q-18 0 -33.5 5t-15.5 36q0 12 8.5 22t24.5 14q70 10 115 21.5t73.5 21t46 15.5t33.5 8h6q12 0 22 -6q12 -8 11 -33v-1264q0 -59 38 -89.5t122 -30.5 q23 0 29 -11.5t6 -21.5q0 -29 -35 -35l-326 -23q-16 0 -17 12.5t-1 28.5v82h-6q-53 -53 -129 -89t-154 -36q-86 0 -164 36t-137 100.5t-94 154.5t-35 199zM295 455q0 -74 17.5 -141.5t53 -120t90 -84t128.5 -31.5q78 0 129 31.5t88 70.5v541q-8 25 -25.5 53.5t-45.5 51 t-65.5 38t-86.5 15.5q-59 0 -110.5 -29t-90.5 -83t-60.5 -133t-21.5 -179z" />
<glyph unicode="e" horiz-adv-x="1028" d="M84 469q0 88 31.5 175t91 155.5t143.5 110.5t191 42q94 0 164.5 -25.5t118.5 -71.5t76 -109.5t34 -137.5q0 -72 -40 -94t-103 -22h-498q0 -90 18.5 -166t57.5 -131.5t100 -86t147 -30.5t147.5 37t119.5 129q16 20 45 2q16 -10 20 -27q1 -6 1 -11q0 -10 -5 -18 q-63 -100 -159.5 -157.5t-221.5 -57.5q-119 0 -209 39t-149.5 106.5t-90 158t-30.5 190.5zM293 569h334q49 0 77.5 19.5t32.5 66.5q0 43 -12 84t-36.5 73t-61.5 50.5t-86 18.5q-104 0 -172 -82t-76 -230z" />
<glyph unicode="f" horiz-adv-x="702" d="M66 889q2 33 15 36t34 3h123v76q0 102 24.5 189t71.5 150.5t118.5 100.5t163.5 39q47 0 93.5 -13.5t83 -40t60.5 -63.5t24 -84q0 -57 -35 -105.5t-101 -48.5q-43 0 -66.5 21.5t-23.5 32.5q0 4 11.5 12t23.5 23.5t23.5 37t11.5 52.5q0 45 -34 76.5t-85 31.5 q-68 0 -103.5 -42t-52 -101.5t-18.5 -124t-2 -107.5v-112h201q20 0 34.5 -3t16.5 -36q0 -16 -9.5 -28.5t-25.5 -12.5h-217v-637v-52.5t9 -45t30.5 -30.5t105.5 -11q20 0 32.5 -3t14.5 -34q0 -16 -7 -28.5t-23 -12.5q-100 4 -151.5 5t-104.5 1q-55 0 -104.5 -1t-108.5 -5 q-16 0 -24.5 12t-8.5 29q2 31 14.5 34t32.5 3q43 0 64.5 11t31 30.5t9.5 45v52.5v637h-138q-16 0 -25 12t-9 29z" />
<glyph unicode="g" horiz-adv-x="1071" d="M55 -201q0 68 43 120t115 52q25 0 44 -7t33.5 -17t23 -20.5t8.5 -16.5q0 -4 -9.5 -12.5t-21.5 -22.5t-21.5 -35.5t-9.5 -52.5q0 -96 70.5 -127t220.5 -31q139 0 221 52.5t82 162.5q0 49 -27.5 79t-72.5 45.5t-104.5 20.5t-123 6t-127 3t-116.5 12q-72 12 -120 47t-48 119 q0 76 53 132.5t164 56.5q-66 25 -108 56.5t-66.5 67t-34.5 74.5t-10 78q0 66 28.5 123t80.5 99t125 66.5t161 24.5q57 0 119.5 -9t107.5 -32l281 54h5q19 0 26 -15q8 -16 8 -34q0 -29 -8.5 -53.5t-22.5 -24.5l-203 8v-4q35 -35 59.5 -92.5t24.5 -108.5q0 -74 -32.5 -133 t-87 -100t-123 -62.5t-138.5 -21.5h-90q-106 0 -154.5 -20.5t-48.5 -67.5q0 -37 26 -56.5t93 -23.5l281 -8q217 0 311 -67t94 -187q0 -82 -39 -145.5t-111.5 -107.5t-173 -66.5t-223.5 -22.5q-98 0 -179 12t-137 40.5t-87 76t-31 116.5zM295 647q0 -127 60.5 -194.5 t152.5 -67.5q94 0 153.5 66.5t59.5 191.5q0 117 -60.5 182.5t-154.5 65.5q-92 0 -151.5 -63.5t-59.5 -180.5z" />
<glyph unicode="h" horiz-adv-x="1206" d="M47 35q2 31 15.5 34t31.5 3q43 0 64.5 11t31 30.5t10.5 45t1 52.5v999v52.5t-9.5 45t-31 31t-64.5 11.5q-18 0 -33.5 5t-15.5 36q0 12 8 22t25 14q70 10 115 21.5t73.5 21t46 15.5t33.5 8h6q12 0 22 -6q12 -8 11 -33v-659h4q31 29 61.5 56.5t68.5 50t86 36.5t114 14 q141 0 222 -84t81 -221v-436v-52.5t9 -45t30.5 -30.5t64.5 -11q20 0 33 -3t15 -34q0 -16 -7.5 -28.5t-23.5 -12.5q-59 4 -110.5 5t-104.5 1q-55 0 -104.5 -1t-108.5 -5q-16 0 -24.5 12t-8.5 29q2 31 14.5 34t32.5 3q43 0 64.5 11t31 30.5t9.5 45v52.5v434q0 51 -17.5 88 t-45.5 60.5t-62.5 35t-69.5 11.5q-53 0 -96 -15.5t-76 -38t-53.5 -46t-28.5 -42.5v-487v-52.5t9.5 -45t31 -30.5t64.5 -11q20 0 32.5 -3t14.5 -34q0 -16 -7.5 -28.5t-23.5 -12.5q-59 4 -110.5 5t-104.5 1q-55 0 -104.5 -1t-108.5 -5q-16 0 -24.5 12t-8.5 29z" />
<glyph unicode="i" horiz-adv-x="608" d="M70 35q4 31 16 34t33 3q43 0 64.5 11t30.5 30.5t9 45v52.5v469v52.5t-9 45t-30.5 30.5t-64.5 11q-18 0 -33.5 5t-15.5 36q0 12 8 22.5t24 14.5q70 10 115 21.5t73.5 20.5t46 15.5t34.5 8.5q16 2 27.5 -6.5t11.5 -32.5v-713v-52.5t9 -45t31.5 -30.5t65.5 -11q18 0 31.5 -3 t15.5 -34q0 -16 -8 -28.5t-25 -12.5q-59 4 -109 5t-106 1q-55 0 -104 -1t-109 -5q-16 0 -24 12t-8 29zM160 1335q0 16 9 38t28.5 40.5t48 30.5t67.5 12q18 0 39 -7t38.5 -22.5t28.5 -39t11 -58.5q0 -43 -34.5 -81t-100.5 -38q-23 0 -46.5 6.5t-43 21.5t-32.5 38.5t-13 58.5z " />
<glyph unicode="j" horiz-adv-x="544" d="M-35 -362q2 14 19 20q74 31 117.5 83t65 128t28 175t6.5 224v412v52.5t-9.5 45t-31 30.5t-64.5 11q-18 0 -33.5 5t-15.5 36q0 12 8 22.5t25 14.5q70 10 115 21.5t73.5 20.5t46 15.5t33.5 8.5t27.5 -6.5t11.5 -32.5v-721q0 -117 -18.5 -218.5t-62.5 -183.5t-116.5 -138 t-181.5 -83q-6 -1 -11 -1q-8 0 -13 4q-9 7 -17 26q-3 11 -3 20q0 5 1 9zM104 1335q0 16 9.5 38t29 40.5t48 30.5t67.5 12q18 0 38.5 -7t38 -22.5t29 -39t11.5 -58.5q0 -43 -34.5 -81t-100.5 -38q-23 0 -46.5 6.5t-43 21.5t-33 38.5t-13.5 58.5z" />
<glyph unicode="k" horiz-adv-x="1161" d="M47 35q2 31 15.5 34t31.5 3q43 0 64.5 11t31 30.5t10.5 45t1 52.5v997v52.5t-9.5 45t-31 31t-64.5 11.5q-18 0 -33.5 5t-15.5 36q0 12 8 22t25 14q70 10 115 21.5t73.5 21t46 15.5t33.5 8h6q12 0 22 -6q12 -8 11 -33v-936q45 10 83 29.5t65 46.5l172 176q12 14 27.5 30.5 t17.5 31t-18 21.5q-15 5 -53 5h-24q-23 4 -24 37q0 16 8 28.5t25 12.5q47 -4 112.5 -5t112.5 -1q35 0 68.5 2t68.5 4q16 0 24.5 -12.5t8.5 -28.5q-2 -27 -11.5 -32t-23.5 -5q-80 0 -129 -28.5t-111 -92.5l-172 -176q25 -33 66 -81t86 -99t87 -97t67 -75q59 -63 99 -97 t99 -38q16 -2 30.5 -5.5t14.5 -31.5q0 -16 -7 -28.5t-26 -12.5q-29 2 -46 3t-41.5 2t-66.5 1h-118q-72 78 -165 185.5t-185 215.5q-24 23 -54 43q-25 16 -55 16q-6 0 -12 -1v-248v-52.5t9.5 -45t31 -30.5t64.5 -11q20 0 32.5 -3t16.5 -34q0 -16 -8.5 -28.5t-24.5 -12.5 q-59 4 -110.5 5t-104.5 1q-55 0 -104.5 -1t-108.5 -5q-16 0 -24.5 12t-8.5 29z" />
<glyph unicode="l" horiz-adv-x="585" d="M47 35q2 31 15.5 34t31.5 3q43 0 64.5 11t31 30.5t10.5 45t1 52.5v999v52.5t-9.5 45t-31 31t-64.5 11.5q-18 0 -33.5 5t-15.5 36q0 12 8 22t25 14q70 10 115 21.5t73.5 21t46 15.5t33.5 8h6q12 0 22 -6q12 -8 11 -33v-1243v-52.5t9.5 -45t32 -30.5t65.5 -11q18 0 31.5 -3 t15.5 -34q0 -16 -8.5 -28.5t-24.5 -12.5q-59 4 -109.5 5t-105.5 1t-104.5 -1t-108.5 -5q-16 0 -24.5 12t-8.5 29z" />
<glyph unicode="m" horiz-adv-x="1835" d="M70 35q2 31 15 34t32 3q43 0 64.5 11t30.5 30.5t10 45t1 52.5v469v52.5t-9 45t-30.5 30.5t-64.5 11q-18 0 -33.5 5t-15.5 36q0 12 8 22.5t24 14.5q70 10 115 21.5t73.5 20.5t45 15.5t33.5 8.5h6q11 -1 21 -7q12 -8 12 -32v-129h6q31 29 59.5 56.5t63 50t81 36.5t111.5 14 q100 0 171 -42t106 -115h4q31 29 63.5 56.5t72.5 50t89 36.5t115 14q141 0 222 -84t81 -221v-436v-52.5t9 -45t31.5 -30.5t65.5 -11q18 0 31.5 -3t15.5 -34q0 -16 -8 -28.5t-24 -12.5q-59 4 -109.5 5t-105.5 1t-104.5 -1t-108.5 -5q-16 0 -24.5 12t-8.5 29q2 31 15 34t32 3 q43 0 64.5 11t30.5 30.5t10 45t1 52.5v434q0 51 -17 88t-45 60.5t-63.5 35t-70.5 11.5q-53 0 -94 -15.5t-70 -38t-47.5 -46t-26.5 -42.5v-487q0 -27 -1 -52.5t7.5 -45t28.5 -30.5t63 -11q20 0 33 -3t15 -34q0 -16 -8.5 -28.5t-24.5 -12.5q-59 4 -106.5 5t-102.5 1 q-53 0 -99 -1t-106 -5q-16 0 -24.5 12t-8.5 29q2 31 14.5 34t32.5 3q43 0 63.5 11t29 30.5t7.5 45t-1 52.5v434q0 51 -17.5 88t-45 60.5t-62.5 35t-70 11.5q-53 0 -94 -15.5t-70.5 -38t-48 -46t-26.5 -42.5v-487v-52.5t9 -45t31.5 -30.5t65.5 -11q18 0 31.5 -3t15.5 -34 q0 -16 -8 -28.5t-25 -12.5q-59 4 -109 5t-106 1q-55 0 -104 -1t-109 -5q-16 0 -24 12t-8 29z" />
<glyph unicode="n" horiz-adv-x="1226" d="M68 35q4 31 16 34t33 3q43 0 64.5 11t30.5 30.5t9 45v52.5v469v52.5t-9 45t-30.5 30.5t-64.5 11q-18 0 -33.5 5t-15.5 36q0 12 8 22.5t24 14.5q70 10 115 21.5t73.5 20.5t45 15.5t33.5 8.5h6q11 -1 21 -7q12 -8 12 -32v-129h6q31 29 61.5 56.5t68.5 50t86 36.5t113 14 q141 0 222 -84t81 -221v-436v-52.5t9.5 -45t32 -30.5t65.5 -11q18 0 31.5 -3t15.5 -34q0 -16 -8 -28.5t-25 -12.5q-59 4 -109 5t-106 1q-55 0 -104 -1t-109 -5q-16 0 -24 12t-8 29q2 31 15 34t32 3q43 0 64.5 11t30.5 30.5t10 45t1 52.5v434q0 51 -17.5 88t-45 60.5 t-63.5 35t-70 11.5q-53 0 -96.5 -15.5t-75 -38t-53 -46t-29.5 -42.5v-487v-52.5t9 -45t31.5 -30.5t65.5 -11q18 0 31.5 -3t15.5 -34q0 -16 -8 -28.5t-25 -12.5q-59 4 -109 5t-106 1q-55 0 -104 -1t-109 -5q-16 0 -24 12t-8 29z" />
<glyph unicode="o" horiz-adv-x="1122" d="M84 451q0 121 44 215t112.5 157.5t153.5 96t167 32.5q106 0 194.5 -40t152 -105.5t97 -151.5t33.5 -178q0 -121 -45 -215t-113.5 -157.5t-153.5 -96.5t-165 -33q-109 0 -195.5 40t-150 105.5t-97.5 151.5t-34 179zM293 455q0 -80 14.5 -153t46 -129t82.5 -89t125 -33 t125 35t83 93.5t46 135t14 162.5q0 80 -15 152.5t-47 128t-83 87.5t-123 32q-76 0 -127 -34t-83 -92.5t-45 -134t-13 -161.5z" />
<glyph unicode="p" horiz-adv-x="1196" d="M47 -385q2 31 15.5 34t31.5 3q41 0 62.5 11t32 30.5t11.5 45t1 52.5v889v52.5t-9.5 45t-31 30.5t-64.5 11q-18 0 -33.5 5t-15.5 36q0 12 8 22.5t25 14.5q70 10 115 21.5t73.5 20.5t45 15.5t32.5 8.5h6q12 0 22 -7q11 -8 11 -32v-99h6q57 53 137 90t154 37q92 0 171 -35.5 t136.5 -100t89 -154t31.5 -197.5q0 -111 -40 -202t-105.5 -154.5t-149.5 -98.5t-174 -35q-92 0 -148.5 19.5t-97.5 44.5h-8v-248q0 -27 1 -52.5t11.5 -45t32 -30.5t62.5 -11q18 0 31.5 -3t15.5 -34q0 -16 -8.5 -28.5t-24.5 -12.5q-59 4 -109.5 5t-105.5 1t-104.5 -1 t-108.5 -5q-16 0 -24.5 12.5t-8.5 28.5zM387 195q10 -27 30.5 -53.5t51.5 -48t70 -35t86 -13.5q80 0 133 40t84.5 101.5t45 134t13.5 138.5q0 72 -16.5 141.5t-52 124.5t-91 90t-133.5 35t-129 -32t-92 -75v-548z" />
<glyph unicode="q" horiz-adv-x="1144" d="M84 475q0 100 39 188.5t104.5 152t151.5 100t178 36.5q59 0 105.5 -10t82 -24.5t61 -31t46.5 -26.5h10q8 14 16.5 34.5t18.5 38t22.5 30t28.5 12.5q18 0 28.5 -12.5t10.5 -28.5v-1143q0 -27 1 -52.5t10.5 -45t31 -30.5t62.5 -11q20 0 32.5 -3t14.5 -34q0 -16 -8.5 -28.5 t-24.5 -12.5q-59 4 -109.5 5t-105.5 1q-53 0 -103.5 -1t-109.5 -5q-16 0 -23.5 12.5t-7.5 28.5q2 31 14.5 34t32.5 3q39 0 60.5 11t32 30.5t11.5 45t1 52.5v301h-6q-37 -41 -108 -79t-165 -38q-90 0 -169 35t-138 100.5t-94 157.5t-35 207zM291 455q0 -74 16.5 -141.5 t51 -121t92 -85t137.5 -31.5q74 0 124 28.5t87 67.5v555q-8 25 -25.5 51.5t-45.5 50t-67.5 38t-93.5 14.5q-59 0 -109 -30t-87 -85t-58.5 -134t-21.5 -177z" />
<glyph unicode="r" horiz-adv-x="870" d="M68 35q4 31 16 34t33 3q43 0 64.5 11t30.5 30.5t9 45v52.5v469v52.5t-9 45t-30.5 30.5t-64.5 11q-18 0 -33.5 5t-15.5 36q0 12 8 22.5t24 14.5q70 10 115 21.5t73.5 20.5t45 15.5t33.5 8.5h6q11 -1 21 -7q12 -8 12 -32v-127h6q70 68 143.5 111.5t134.5 43.5 q37 0 64.5 -14t46 -37.5t28 -53.5t9.5 -61q0 -27 -8.5 -52t-25 -46.5t-41 -35t-56.5 -13.5q-33 0 -52.5 13.5t-21.5 19.5q0 4 19.5 24.5t19.5 51.5q0 37 -19.5 59t-52.5 22q-35 0 -89 -34.5t-103 -83.5v-500v-52.5t9 -45t31.5 -30.5t65.5 -11q18 0 31.5 -3t15.5 -34 q0 -16 -8 -28.5t-25 -12.5q-59 4 -109 5t-106 1q-55 0 -104 -1t-109 -5q-16 0 -24 12t-8 29z" />
<glyph unicode="s" horiz-adv-x="907" d="M78 195q0 59 36 96t93 37q37 0 60.5 -19.5t23.5 -27.5q0 -4 -7.5 -10.5t-16.5 -17.5t-16 -28.5t-7 -40.5q0 -59 54 -96t165 -37q96 0 150.5 41t54.5 119q0 61 -41 94t-102.5 55.5t-133.5 41t-133 51t-102 86t-41 143.5q0 68 32.5 119t86 85t119 50t132.5 16 q55 0 109.5 -12t96.5 -37t67.5 -60.5t25.5 -84.5q0 -53 -32.5 -93t-89.5 -40q-37 0 -60.5 19.5t-23.5 27.5q0 2 9 9t20 18.5t20.5 28.5t9.5 40q-2 29 -17.5 51.5t-40 36.5t-55 21.5t-63.5 7.5q-37 0 -72 -9.5t-62.5 -25.5t-44 -42t-16.5 -58q0 -45 14.5 -74t45 -50.5t79 -39 t115.5 -37.5q68 -23 123 -44.5t95 -51t62.5 -73.5t22.5 -108q0 -66 -28.5 -120t-78.5 -93t-119 -61.5t-151 -22.5q-80 0 -147.5 14.5t-116.5 42t-76.5 68.5t-27.5 95z" />
<glyph unicode="t" horiz-adv-x="776" d="M51 885q0 16 7.5 29.5t21.5 17.5q57 10 92 32.5t57.5 52.5t37 67.5t28.5 78.5q6 16 17.5 21.5t27.5 5.5q12 0 27.5 -6t15.5 -23l-14 -233l239 14q18 2 24.5 -10t6.5 -29q0 -23 -7 -42t-18 -19l-229 6v-623q0 -31 6 -58.5t19.5 -50t36 -35.5t57.5 -13q23 0 50.5 3t61.5 19 q8 4 16.5 7t16.5 3q16 0 24.5 -13t14.5 -28q2 -5 2 -9q0 -12 -12 -19q-63 -41 -116.5 -53.5t-119.5 -12.5q-47 0 -90 17.5t-77.5 52.5t-55 89t-20.5 126v602l-119 -4q-14 0 -21.5 11t-7.5 26z" />
<glyph unicode="u" horiz-adv-x="1220" d="M35 840q0 12 8 22t25 15q70 10 114.5 21t73.5 20.5t46 15.5t34 8h6q12 0 22 -6q12 -8 11 -33v-620q0 -51 17.5 -88t45 -60.5t63.5 -35t70 -11.5q53 0 96.5 15.5t76 38t53 46t28.5 41.5v430v52.5t-9 45t-30.5 31t-64.5 11.5q-18 0 -33.5 5t-15.5 36q0 12 8 22t25 15 q70 10 114.5 21t73.5 20.5t46 15.5t34 8h6q11 0 21 -6q12 -8 12 -33v-708q0 -121 162 -121q23 0 28.5 -12.5t5.5 -26.5q0 -29 -34 -35l-330 -23q-16 0 -17.5 12.5t-1.5 28.5v115h-4q-31 -29 -61.5 -56.5t-68.5 -50t-87 -37t-112 -14.5q-141 0 -222.5 84t-81.5 222v378v52.5 t-9 45t-30.5 31t-64.5 11.5q-18 0 -33.5 5t-15.5 36z" />
<glyph unicode="v" horiz-adv-x="1128" d="M16 893v6q0 30 20 32q22 3 52 5q15 1 30 1q104 0 166 -38q72 -43 119 -145q20 -49 47 -115t54.5 -137.5t56.5 -142t57 -128.5h7l202 537q11 31 11 50q0 18 -9 24q-18 14 -79 14q-18 0 -30.5 3t-14.5 34q0 12 6 26.5t22 14.5q59 -4 102.5 -5t96.5 -1h45t36.5 1t38 2 t50.5 3q16 0 23.5 -14.5t7.5 -26.5q-2 -31 -15.5 -34t-30.5 -3q-68 0 -107.5 -24.5t-68.5 -96.5l-151 -377q-29 -72 -56.5 -139t-50 -120.5t-37.5 -86.5l-14 -32h-86q-39 84 -77 182t-75.5 195.5t-74.5 187.5t-70 162q-16 37 -31.5 63.5t-33 43.5t-39 26.5t-52.5 13.5 q-27 4 -36 7t-11 32z" />
<glyph unicode="w" horiz-adv-x="1634" d="M18 893v6q0 30 20 32q22 3 52 5q15 1 30 1q104 0 166 -38q72 -43 120 -145l188 -531h6q14 43 31.5 103.5t37 128t39 139.5t37 135.5t32 115.5t22.5 83h98l281 -705h6q20 63 40.5 140t39 151t35 140.5t28.5 113.5q5 24 5 40q0 22 -9 32q-16 16 -74 16q-18 0 -30.5 3 t-14.5 34q0 12 6.5 26.5t22.5 14.5q59 -4 103 -5t98 -1h46t36.5 1t38 2t51.5 3q16 0 23 -14.5t7 -26.5q-2 -31 -15 -34t-30 -3q-74 0 -115.5 -24.5t-60.5 -96.5l-227 -755h-121l-260 669l-203 -669h-121l-262 727q-16 37 -31.5 63.5t-33 43.5t-39 26.5t-51.5 13.5 q-27 4 -36.5 7t-11.5 32z" />
<glyph unicode="x" horiz-adv-x="1107" d="M35 35q2 31 15 34t30 3q33 0 55.5 7t41 22.5t37.5 38t44 53.5q39 43 93.5 110.5t113.5 138.5l-234 330q-27 35 -55.5 53.5t-73.5 28.5q-27 4 -36 7t-11 32q-2 35 19.5 38t52.5 5q15 1 30 1q186 0 273 -116q23 -29 59.5 -91t96.5 -140l137 178q18 27 28.5 44t6.5 26.5 t-24.5 13.5t-61.5 4q-18 0 -30.5 3t-14.5 34q0 12 6 26.5t22 14.5q29 -2 49.5 -3t39 -2t38 -1h45.5h46.5t39 1t40 2t51.5 3q16 0 23 -14.5t7 -26.5q-2 -31 -15 -33t-30 -4q-31 -2 -52.5 -8t-39.5 -19.5t-38.5 -36t-47.5 -57.5q-27 -31 -71 -88t-101 -127 q68 -88 134.5 -174.5t115.5 -152.5q33 -47 71.5 -84t92.5 -37q18 0 31.5 -3t15.5 -34q0 -16 -8.5 -28.5t-24.5 -12.5q-59 4 -100 5t-97 1q-55 0 -106 -1t-111 -5q-16 0 -24 12t-8 29q2 31 15 34t32 3q43 0 43 26q0 23 -29 62l-160 213l-176 -213q-34 -43 -34 -63q0 -5 2 -9 q12 -16 83 -16q18 0 30.5 -3t14.5 -34q0 -12 -6 -26.5t-22 -14.5q-29 2 -49.5 3t-39 2t-38 1h-45.5h-46.5t-39 -1t-40 -2t-50.5 -3q-16 0 -23.5 14.5t-7.5 26.5z" />
<glyph unicode="y" horiz-adv-x="1130" d="M-27 -254q2 55 24.5 84t47.5 42t44.5 14t14.5 1q39 0 59.5 -15t20.5 -26q0 -4 -15 -19t-17 -54v-6q0 -34 22 -66q25 -35 76 -35q43 0 80 25.5t68.5 63.5t57 85t46.5 90q7 21 7 43q0 25 -9 52q-37 82 -73 174t-69.5 183t-67.5 175t-65 150q-16 37 -31.5 63.5t-33 43.5 t-39 26.5t-51.5 13.5q-27 4 -36 7t-11 32q-2 35 19 38t52 5q15 1 30 1q104 0 166 -38q72 -43 120 -145q20 -49 45.5 -115t53.5 -137.5t56.5 -142t57.5 -128.5h6l200 537q11 31 11 50q0 17 -9 24q-18 14 -79 14q-18 0 -30.5 3t-14.5 34q0 12 6 26.5t22 14.5q59 -4 102.5 -5 t96.5 -1h45t36.5 1t38 2t50.5 3q16 0 23.5 -14.5t7.5 -26.5q-2 -31 -15.5 -34t-29.5 -3q-68 0 -108 -24.5t-69 -96.5l-151 -373q-29 -72 -56.5 -139t-49 -120.5t-36 -87t-14.5 -35.5q-27 -66 -64.5 -139.5t-88 -138t-114 -106.5t-140.5 -42q-45 0 -86 15t-72 42t-49.5 61.5 t-18.5 73.5z" />
<glyph unicode="z" horiz-adv-x="1028" d="M74 35q2 31 14 34t33 3q29 0 48 3t33.5 13t28 29.5t29.5 52.5l283 588q18 37 22 58.5t-3 31.5t-25.5 12t-47.5 2h-86q-49 0 -82.5 -8t-57 -33.5t-38 -73t-24.5 -122.5q-2 -16 -20.5 -24.5t-41.5 -8.5q-16 0 -30.5 9t-14.5 28l35 252q4 31 16.5 39t30.5 8h561h45.5t36 1 t35.5 2t49 3q16 0 24.5 -12.5t8.5 -28.5q-2 -31 -15.5 -34t-31.5 -3q-29 0 -48.5 -3t-34.5 -13.5t-28.5 -29.5t-29.5 -52l-281 -588q-18 -37 -22.5 -58.5t3 -31.5t26 -12t46.5 -2h115q49 0 83 8t57.5 33.5t37.5 71.5t25 124q2 16 20.5 24.5t40.5 8.5q16 0 30.5 -9.5 t14.5 -27.5l-35 -252q-4 -31 -16 -39t-31 -8h-592h-45t-34.5 -1t-36 -2t-48.5 -3q-16 0 -24 12t-8 29z" />
<glyph unicode="{" horiz-adv-x="585" d="M35 520q0 10 6 23.5t16 15.5q63 6 98 24.5t51.5 43t20.5 53.5t4 55q0 51 -3 111.5t-6 123t-5 123t-2 111.5q0 88 26.5 142.5t68.5 85t93.5 43t100.5 14.5q16 0 27.5 -2t13.5 -31q0 -12 -7.5 -22.5t-23.5 -14.5q-53 -10 -85 -28.5t-48 -44t-21.5 -57.5t-5.5 -64 q0 -51 4 -109.5t10.5 -119t10.5 -119t4 -109.5q0 -86 -40 -154.5t-138 -89.5v-8q96 -20 137 -88t41 -156q0 -53 -4 -111.5t-10.5 -117.5t-10.5 -115.5t-4 -105.5q0 -35 5.5 -66.5t20.5 -58.5t45 -45.5t79 -28.5q16 -4 27.5 -7t13.5 -26q2 -14 -6.5 -25t-28.5 -11 q-49 2 -101.5 12t-95.5 39.5t-70.5 83t-27.5 139.5q0 55 2 117.5t5 125t6 123t3 111.5q0 27 -4 55.5t-20.5 53t-51 43t-98.5 24.5q-10 2 -16 15.5t-6 23.5z" />
<glyph unicode="|" horiz-adv-x="434" d="M160 -399v1843q0 23 17.5 35t39.5 12q20 0 38.5 -12.5t18.5 -34.5v-1843q0 -23 -18 -35t-39 -12q-23 0 -40 12t-17 35z" />
<glyph unicode="}" horiz-adv-x="585" d="M41 -410q2 23 13.5 26t27.5 7q49 10 78.5 28.5t45 45.5t20.5 58.5t5 66.5q0 49 -4 105.5t-10 115.5t-10 117.5t-4 111.5q0 88 41 156t137 88v8q-98 20 -138 89t-40 155q0 51 4 109.5t10 119t10 119t4 109.5q0 33 -5 64.5t-21.5 57t-48 44t-84.5 28.5q-16 4 -23.5 14.5 t-7.5 22.5q2 29 13.5 31t27.5 2q49 -2 100 -14.5t93 -43t69 -85t27 -142.5q0 -51 -3 -111.5t-6.5 -123t-5.5 -123t-2 -111.5q0 -27 3 -55.5t20.5 -53t52.5 -43t98 -24.5q10 -2 16.5 -15.5t6.5 -23.5t-6 -23.5t-17 -15.5q-63 -6 -98 -24.5t-52.5 -43t-20.5 -53t-3 -55.5 q0 -51 2 -111.5t5.5 -123t6.5 -125t3 -117.5q0 -86 -28 -139.5t-71 -83t-95 -39.5t-101 -12q-20 0 -28.5 11t-6.5 25z" />
<glyph unicode="~" horiz-adv-x="1138" d="M90 391q18 47 46 98.5t67 94.5t88 70.5t108 27.5q61 0 118.5 -20.5t112 -46t103.5 -46t92 -20.5q41 0 77 29.5t67 103.5q10 23 24.5 27t30.5 0t25.5 -14.5t3.5 -32.5q-14 -45 -42 -96.5t-67 -93.5t-89 -68.5t-110 -24.5q-78 2 -133 23.5t-100 46t-85 44t-89 19.5 q-66 0 -98.5 -42t-63.5 -97q-10 -25 -24.5 -31t-32.5 0q-16 6 -25.5 17.5t-3.5 31.5z" />
<glyph unicode="&#xa1;" horiz-adv-x="495" d="M117 821q0 59 37 95t96 36q55 0 92 -35.5t37 -95.5q0 -53 -37 -91t-94 -38t-94 38t-37 91zM137 -240q0 84 9.5 182.5t21.5 196t21.5 185.5t9.5 151q0 16 15 22.5t34 6.5q16 0 32.5 -7.5t16.5 -21.5q0 -63 9 -151t21.5 -185.5t21.5 -196t9 -182.5q0 -104 -23.5 -171.5 t-86.5 -67.5t-87 67.5t-24 171.5z" />
<glyph unicode="&#xa2;" horiz-adv-x="1003" d="M90 465q2 92 32 170t80 139.5t118.5 103.5t148.5 60v55q0 23 9 37t34 14q45 0 45 -51v-43h31q39 0 91 -7t99 -29.5t81 -64.5t34 -112q0 -59 -36 -108t-103 -49q-45 0 -70 22.5t-25 32.5q0 2 10.5 10t24 22.5t23.5 34t10 46.5q0 66 -47 96t-107 33h-16v-799h27 q92 0 152.5 38t111.5 115q8 10 20 11q14 0 29.5 -12.5t15.5 -28.5q0 -8 -6 -17q-66 -92 -159 -147t-191 -60v-83q0 -51 -45 -52q-25 0 -34 13.5t-9 38.5v86q-180 23 -279.5 151.5t-99.5 333.5zM299 471q0 -129 44 -226.5t126 -140.5v754q-55 -20 -88 -62t-51.5 -95.5 t-24.5 -114t-6 -115.5z" />
<glyph unicode="&#xa3;" horiz-adv-x="1116" d="M90 55q0 23 10.5 41.5t30.5 26.5q55 18 91 56t56.5 88t27.5 108.5t7 118.5h-108q-18 0 -28.5 11t-10.5 25t10 27.5t27 15.5h110q0 14 -2 40t-5 53.5t-5 55.5t-2 48q0 82 28.5 153.5t79 124t121 82t156.5 29.5q31 0 77 -6t90 -23.5t81 -51.5t51 -89q8 -35 3 -70.5 t-22.5 -65.5t-47 -48.5t-68.5 -18.5q-45 0 -69.5 22.5t-24.5 33.5q0 2 10 10t23.5 22.5t23.5 34t10 45.5q0 63 -42 95t-99 34q-27 0 -60.5 -8t-64.5 -31.5t-52.5 -67.5t-21.5 -116q0 -23 1 -61.5t3 -80.5t3 -81t1 -64h293q16 -2 26.5 -15t10.5 -28q0 -14 -10 -25t-29 -11 h-291q0 -106 -50 -195.5t-148 -153.5h620q41 0 70 -9t29 -62q0 -35 -16.5 -54.5t-55.5 -19.5h-807q-20 0 -30.5 15.5t-10.5 39.5z" />
<glyph unicode="&#xa4;" horiz-adv-x="1245" d="M135 966.5q2 18.5 15 32.5q14 16 31.5 20.5t33.5 -9.5l139 -142q14 12 38 28.5t56.5 32t75.5 27t97 11.5q57 0 101 -11.5t78 -27t56.5 -32.5t34.5 -28l139 142q16 14 33.5 10t32.5 -21q12 -14 14 -32.5t-10 -30.5l-135 -133q53 -72 72.5 -142.5t19.5 -128.5 q0 -59 -20.5 -131.5t-73.5 -140.5l135 -131q12 -12 11 -30.5t-13 -32.5q-14 -16 -31.5 -20.5t-34.5 9.5l-139 140q-37 -29 -76 -48.5t-76 -31t-67.5 -15.5t-50.5 -4q-53 0 -96.5 11.5t-77 27t-57 32.5t-36.5 28l-139 -140q-16 -14 -33.5 -10t-31.5 21q-12 14 -13.5 32.5 t10.5 30.5l134 131q-10 12 -25.5 37t-30 59.5t-26 78.5t-11.5 97q0 57 19.5 130t73.5 141q-35 31 -68 64.5t-68 68.5q-12 12 -10 30.5zM285 532q0 -74 25.5 -137t71.5 -111t106.5 -76t132.5 -28q70 0 132 28t109 76t74 111.5t27 136.5q0 72 -27 135.5t-74 110.5t-109.5 75 t-131.5 28q-72 0 -132.5 -27t-106.5 -74t-71.5 -110.5t-25.5 -137.5z" />
<glyph unicode="&#xa5;" horiz-adv-x="1296" d="M76 1106q0 31 21.5 34t49.5 3q125 0 205 -39t142 -150q53 -96 103 -187t101 -187h7l200 393q31 61 6.5 74.5t-86.5 13.5q-18 0 -30.5 3t-14.5 36q0 14 7.5 26.5t23.5 12.5q59 -4 101 -5t96 -1h47t39.5 1t42 2t51.5 3q18 0 25.5 -12.5t7.5 -26.5q-2 -33 -14.5 -36 t-30.5 -3q-70 0 -112 -28.5t-77 -92.5l-203 -383q-10 -20 -18 -34.5t-12 -26.5h182q16 -2 26.5 -15.5t10.5 -27.5t-10.5 -25.5t-28.5 -11.5h-199v-33v-92h201q16 -2 26.5 -15.5t10.5 -27.5t-10.5 -25.5t-28.5 -11.5h-199v-2q0 -25 3 -49.5t14.5 -44t34 -31.5t65.5 -12 q18 0 30.5 -3t14.5 -36q0 -14 -7 -26.5t-24 -12.5q-59 4 -110 5t-107 1q-104 0 -221 -6q-18 0 -25.5 12t-7.5 27q2 33 15.5 36t29.5 3q43 0 66.5 12t35 31.5t13.5 44t2 49.5v2h-199q-18 0 -28.5 11t-10.5 26q0 14 10.5 27.5t26.5 15.5h201v125h-199q-18 0 -28.5 11t-10.5 26 q0 14 10.5 27.5t26.5 15.5h179q-20 43 -52 105.5t-66 124.5t-64.5 116.5t-47.5 83.5q-37 68 -81 97.5t-103 41.5q-27 4 -36 8t-9 33z" />
<glyph unicode="&#xa6;" horiz-adv-x="434" d="M160 264q0 23 17.5 35t39.5 12q20 0 38.5 -12t18.5 -35v-663q0 -23 -18 -35t-39 -12q-23 0 -40 12t-17 35v663zM160 754v690q0 23 17.5 35t39.5 12q20 0 38.5 -12.5t18.5 -34.5v-690q0 -23 -17 -35t-40 -12q-20 0 -38.5 12t-18.5 35z" />
<glyph unicode="&#xa7;" horiz-adv-x="960" d="M111 864q0 127 41 216t106.5 144.5t150.5 81t171 25.5q37 0 77.5 -11t76.5 -35.5t59.5 -62.5t23.5 -92q0 -61 -36 -113t-107 -52q-41 0 -63.5 17t-26.5 28q0 2 9 11t20.5 23.5t20.5 34t9 43.5q0 33 -13.5 56.5t-32.5 40t-44 24.5t-47 8q-55 0 -85 -33.5t-30 -80.5 q0 -8 1 -16.5t3 -18.5q10 -45 48 -104.5t88.5 -130t105.5 -151.5t102 -169t78 -181.5t31 -187.5q0 -104 -32 -194t-92 -156t-146 -103.5t-195 -37.5q-37 0 -79 11t-76.5 34.5t-58.5 61.5t-24 93q0 61 36 113.5t108 52.5q41 0 63.5 -17.5t26.5 -27.5q0 -4 -9.5 -13 t-20.5 -23.5t-20.5 -34t-9.5 -43.5q0 -31 12.5 -55.5t33 -40t45 -23.5t47.5 -8q57 0 85.5 35.5t28.5 82.5q0 51 -33.5 110.5t-85 134.5t-111.5 162t-111.5 180t-85 192.5t-33.5 199.5zM223 905q0 -123 54.5 -252t128 -255t148.5 -247.5t116 -232.5q33 61 46 127t13 123 q0 127 -57.5 248t-133 241.5t-148 243.5t-105.5 254q-35 -57 -48.5 -123.5t-13.5 -126.5z" />
<glyph unicode="&#xa8;" horiz-adv-x="792" d="M104 1243q0 53 38 88t91 35t88 -35t35 -88q0 -49 -35.5 -86t-89.5 -37q-53 0 -90 37t-37 86zM459 1243q0 53 38 88t91 35t88 -35t35 -88q0 -49 -36 -86t-89 -37t-90 37t-37 86z" />
<glyph unicode="&#xa9;" horiz-adv-x="1695" d="M96 649q0 156 60.5 292t163 238.5t239.5 162t289 59.5t288 -59.5t239.5 -162t163.5 -238.5t60 -292t-61 -293q-59 -135 -162.5 -237.5t-240 -161.5t-287.5 -59q-152 0 -289 59t-239.5 161.5t-163 239t-60.5 291.5zM184 649q0 -137 51.5 -258t141.5 -212t211 -143t260 -52 t260 51q121 53 211 144t141 212t51 258t-51 258t-141 211t-211 143.5t-260 53.5t-260 -53.5t-211 -143.5t-141.5 -211t-51.5 -258zM471 637q0 94 29.5 171t83 132t127 85t161.5 30q20 0 64.5 -5.5t90.5 -23.5t82 -53t42 -94q0 -55 -33 -98.5t-92 -43.5q-47 0 -65.5 21.5 t-18.5 32.5q0 6 10.5 14t22.5 19.5t22.5 27.5t10.5 41q0 47 -39 71.5t-99 26.5q-111 -4 -176 -92t-65 -256q0 -72 19.5 -133t54 -107.5t84 -73t110.5 -26.5q86 0 138 45t81 105q16 29 35 28q16 0 30.5 -11t14.5 -26q0 -6 -4 -18q-53 -111 -135 -155t-205 -44 q-78 0 -146.5 29t-121 81t-83 128t-30.5 172z" />
<glyph unicode="&#xaa;" horiz-adv-x="811" d="M86 780q0 70 43 112t103.5 64.5t126 29.5t112.5 11l33 2v109q0 61 -32 98t-110 37q-39 0 -71.5 -23.5t-32.5 -68.5q0 -27 15.5 -45.5t29.5 -28.5q0 -4 -17.5 -23.5t-47.5 -19.5q-49 0 -76 35t-27 78q0 41 21.5 69.5t55.5 46t76 25.5t83 8q49 0 96 -7t86 -30.5t62.5 -65.5 t23.5 -110v-331q0 -10 4 -24.5t11.5 -27t20.5 -20.5t34 -8q14 0 21 -4t7 -25q0 -12 -9 -19.5t-22.5 -12.5t-27.5 -6t-25 -1q-51 0 -92 27.5t-53 75.5q-18 -27 -46 -46.5t-61.5 -32t-67.5 -18.5t-65 -6q-78 0 -130 51.5t-52 124.5zM240 799q0 -47 23.5 -78t64.5 -31 q76 0 128 51.5t52 128.5v80q-137 -18 -202.5 -48t-65.5 -103z" />
<glyph unicode="&#xab;" horiz-adv-x="970" d="M82 481q0 23 27 45q39 37 90 85t96 91t79 73t40 32q14 6 29.5 -6.5t11.5 -34.5q-4 -16 -31 -64.5t-84 -123.5l-84 -99q86 -123 140.5 -191.5t58.5 -94.5q2 -31 -26 -36t-46 13q-63 66 -126.5 130.5t-147.5 133.5q-27 25 -27 47zM492 481q0 23 26 45q39 37 90 85t96.5 91 t79 73t39.5 32q14 6 29.5 -6.5t11.5 -34.5q-4 -16 -30.5 -64.5t-83.5 -123.5l-84 -99q86 -123 140 -191.5t58 -94.5q2 -31 -25.5 -36t-45.5 13q-63 66 -127 130.5t-148 133.5q-27 25 -26 47z" />
<glyph unicode="&#xac;" horiz-adv-x="1294" d="M139 537q0 20 12.5 39.5t32.5 19.5h840q76 2 101.5 -24.5t25.5 -114.5v-250q0 -23 -19.5 -35t-39.5 -12q-23 0 -42.5 12t-19.5 35v254q0 25 -20 24h-826q-20 0 -32.5 15.5t-12.5 36.5z" />
<glyph unicode="&#xad;" horiz-adv-x="933" d="M127 483q0 23 12.5 39.5t34.5 16.5h586q23 0 35 -16.5t12 -39.5q0 -20 -12.5 -37.5t-34.5 -17.5h-586q-23 0 -35 17.5t-12 37.5z" />
<glyph unicode="&#xae;" horiz-adv-x="1695" d="M96 647q0 156 60.5 292t163 238.5t239.5 162t289 59.5t288 -59.5t239.5 -162t163.5 -238.5t60 -292t-60 -292t-163.5 -238.5t-240 -161.5t-287.5 -59q-152 0 -289 59t-239.5 161.5t-163 238.5t-60.5 292zM184 647q0 -137 51.5 -258t141.5 -212t211 -143t260 -52t260 52 t211 143t141 212t51 258t-51 258t-141 211t-211 143.5t-260 53.5t-260 -53.5t-211 -143.5t-141.5 -211t-51.5 -258zM477 287q0 25 17.5 26.5t38 3.5t38 16.5t17.5 65.5v15v473q-4 47 -21.5 60.5t-38 14.5t-36 5t-15.5 32q0 16 6 24.5t25 8.5q39 -2 72.5 -2h70.5h207 q76 -2 130 -20.5t88 -47t49.5 -65.5t15.5 -74q0 -66 -51.5 -123t-143.5 -84l21 -30q20 -33 46.5 -77t57.5 -85t67 -71.5t76 -37.5q12 -2 24.5 -5t12.5 -29q0 -23 -20.5 -30t-42.5 -7q-72 0 -123 25.5t-90 67.5t-71 96t-68 112q-14 20 -31 31.5t-57 11.5h-27v-187 q0 -39 11 -60.5t65 -25.5q12 0 23 -4t11 -30q0 -12 -7 -23.5t-23 -11.5q-35 2 -58.5 3t-33.5 1h-60q-39 0 -73.5 -2t-67.5 -2q-23 0 -27 13t-4 28zM721 653h100q57 0 91 16.5t52.5 41t23.5 52.5t5 50q0 29 -9 56.5t-31.5 50t-59.5 36t-94 11.5q-47 -2 -62.5 -18.5 t-15.5 -71.5v-224z" />
<glyph unicode="&#xaf;" horiz-adv-x="1236" d="M102 1550q0 23 12.5 39.5t35.5 16.5h937q23 0 35.5 -16.5t12.5 -39.5q0 -20 -12.5 -37.5t-35.5 -17.5h-937q-23 0 -35.5 17.5t-12.5 37.5z" />
<glyph unicode="&#xb0;" horiz-adv-x="829" d="M76 975q0 78 30.5 137t80 100t110 62.5t119.5 21.5q76 0 138 -25.5t107.5 -67.5t70 -96t24.5 -114q0 -78 -32 -137t-82 -100t-110.5 -62.5t-115.5 -21.5q-78 0 -140.5 25.5t-106.5 67.5t-68.5 96t-24.5 114zM236 979q0 -49 9 -93t30.5 -78t55.5 -53.5t85 -19.5t85 20.5 t54 56.5t29.5 82t9.5 99q0 49 -9.5 93t-31 76t-55 51.5t-82.5 19.5q-51 0 -86 -19.5t-55.5 -54.5t-29.5 -81t-9 -99z" />
<glyph unicode="&#xb1;" horiz-adv-x="1200" d="M94 55q0 23 12.5 39.5t34.5 16.5h918q23 0 35 -16.5t12 -39.5q0 -20 -12.5 -37.5t-34.5 -17.5h-918q-23 0 -35 17.5t-12 37.5zM94 541q0 20 12.5 37.5t32.5 17.5h398v385q0 23 20.5 37t44.5 14q23 0 43.5 -14t20.5 -37v-385h395q20 0 32.5 -17.5t12.5 -37.5t-12.5 -38 t-32.5 -18h-395v-270q0 -23 -20.5 -37t-45.5 -14q-23 0 -43 14.5t-20 36.5v270h-398q-20 0 -32.5 17.5t-12.5 38.5z" />
<glyph unicode="&#xb2;" horiz-adv-x="776" d="M98 596q0 35 19.5 55.5t48.5 38.5q51 33 108.5 74t106.5 90t81 109.5t32 132.5q0 63 -34 98t-95 35q-49 0 -82 -24.5t-33 -67.5q0 -18 7 -30.5t15.5 -21t15.5 -14.5t7 -12q0 -10 -20.5 -27.5t-51.5 -17.5q-53 0 -78.5 28.5t-25.5 73.5q0 47 24.5 82t62.5 56.5t83 31.5 t88 10q49 0 96 -12t85 -37.5t61.5 -67.5t23.5 -102q0 -80 -41 -139t-100.5 -107.5t-127 -90.5t-122.5 -85h354q35 0 55.5 -9t20.5 -50q0 -25 -14.5 -41t-44.5 -16h-467q-31 0 -44.5 16t-13.5 41z" />
<glyph unicode="&#xb3;" horiz-adv-x="735" d="M94 674q0 41 24.5 73.5t78.5 32.5q37 0 55 -20.5t18 -30.5q-4 -10 -25.5 -28.5t-21.5 -41.5q0 -41 36 -62.5t91 -21.5q59 0 100.5 36t41.5 122q0 63 -32 104.5t-104 45.5h-53q-16 0 -22.5 11t-6.5 26q0 14 6.5 26t22.5 12h53q51 6 81 48.5t30 99.5q0 53 -25.5 88 t-89.5 35q-47 0 -79.5 -19.5t-32.5 -64.5q0 -16 7 -27.5t16 -21t17.5 -15.5t8.5 -12q0 -10 -21.5 -26.5t-54.5 -16.5q-51 0 -77.5 30.5t-26.5 76.5q0 43 21.5 73.5t57 51t79.5 29.5t87 9q45 0 91.5 -9t83 -31.5t59 -59.5t22.5 -90q0 -51 -32.5 -101.5t-100.5 -80.5 q31 -6 60.5 -18.5t54 -35t39 -55.5t14.5 -80q0 -63 -24.5 -106t-66.5 -71t-96.5 -40t-111.5 -12q-43 0 -88 9t-81 28.5t-59.5 51.5t-23.5 79z" />
<glyph unicode="&#xb4;" horiz-adv-x="452" d="M76 1081q0 14 8 29l154 281q23 47 73 47q37 0 62.5 -28t25.5 -58q0 -29 -16 -47l-209 -244q-23 -25 -49 -25q-20 0 -34.5 11.5t-14.5 33.5z" />
<glyph unicode="&#xb5;" horiz-adv-x="1214" d="M184 -115v998q0 29 32 41t65 12q25 0 57.5 -12.5t32.5 -40.5v-600q0 -51 17.5 -88t45 -60.5t63 -35t70.5 -11.5q53 0 96.5 15.5t76 38t53 46t28.5 41.5v654q0 29 32 41t65 12q25 0 57.5 -12.5t32.5 -40.5v-697q0 -51 22.5 -90t81.5 -39q16 0 23.5 -5t7.5 -27 q0 -14 -12.5 -23.5t-31 -14.5t-38 -7.5t-31.5 -2.5q-72 0 -131 42t-76 114h-6q-31 -33 -60.5 -60.5t-64.5 -49t-82 -34t-110 -12.5q-66 0 -118 26t-75 87h-4v-231q0 -66 8 -105t23.5 -60.5t37 -28.5t50.5 -7q37 0 66.5 18.5t39.5 40.5q8 20 6 40t-8 34t-11 23.5t-5 13.5 q4 8 30.5 19.5t61.5 -3.5q31 -12 48.5 -35.5t22.5 -53t-1 -60.5t-23 -55q-23 -33 -59.5 -52.5t-78.5 -26.5t-83 -5t-74 12q-55 18 -89 50t-51 74t-23.5 91t-6.5 102z" />
<glyph unicode="&#xb6;" horiz-adv-x="1110" d="M117 887q0 74 24.5 146.5t87 130t168 93t267.5 35.5h325q23 0 41.5 -4t20.5 -45q0 -16 -11.5 -32.5t-31.5 -16.5h-226v-1022q0 -74 -14 -160t-53 -159.5t-107 -121.5t-172 -44q-70 2 -135 34.5t-94 110.5q-10 35 -7 72t18 69.5t43 54t67 25.5q47 4 73.5 -15.5t30.5 -29.5 q0 -4 -10 -13t-21.5 -24.5t-20.5 -37t-7 -48.5q2 -33 18.5 -56.5t39 -38.5t49 -20.5t50.5 -0.5q47 6 73 58t38 120.5t14 142.5t2 123v238q-92 -4 -188 15t-174 69.5t-128 136.5t-50 215z" />
<glyph unicode="&#xb7;" horiz-adv-x="483" d="M111 559q0 53 36.5 90t94.5 37q55 0 93 -37t38 -90q0 -59 -38 -94t-95 -35q-55 0 -92 35t-37 94z" />
<glyph unicode="&#xb8;" horiz-adv-x="542" d="M66 -377q0 29 12 37t28 8q43 0 83 1t73 8.5t52.5 21.5t19.5 43q0 33 -32 45t-85 16q-10 2 -21.5 8.5t-11.5 38.5v150h101v-84q35 0 70.5 -7t64.5 -24.5t46 -44t17 -67.5q0 -53 -27.5 -91t-76.5 -61.5t-119 -35t-154 -11.5q-20 0 -30 15.5t-10 33.5z" />
<glyph unicode="&#xb9;" horiz-adv-x="686" d="M98 575q2 25 11.5 29t25.5 4q45 0 76 2t49.5 14.5t26.5 37t8 67.5v328q0 37 -7 57.5t-25.5 29.5t-48.5 11t-75 2q-23 0 -28 12.5t-5 28.5q0 31 11.5 36t32.5 5q45 0 87 9t75.5 21.5t56 21.5t30.5 9q14 0 24.5 -9t10.5 -25v-537q0 -43 8.5 -67.5t26.5 -37t48 -14.5t73 -2 q23 0 32 -5t9 -28q0 -16 -6.5 -28t-28.5 -12q-25 0 -57.5 1t-64.5 1t-61.5 1t-47.5 1t-47 -1t-62 -1t-65.5 -1t-57.5 -1q-23 0 -29 12t-6 28z" />
<glyph unicode="&#xba;" horiz-adv-x="833" d="M78 940q0 86 30.5 152.5t80 111.5t110 68.5t119.5 23.5q76 0 138 -27.5t107.5 -74.5t70 -107.5t24.5 -125.5q0 -86 -32 -153t-82 -112t-110.5 -68.5t-115.5 -23.5q-78 0 -140.5 27.5t-106.5 75t-68.5 107.5t-24.5 126zM238 944q0 -55 9 -104t30.5 -87t55.5 -60.5 t85 -22.5t85 23.5t54.5 63.5t29.5 92t9 112q0 55 -9 104t-30.5 86t-55.5 59.5t-83 22.5q-51 0 -86 -23.5t-55.5 -62.5t-29.5 -92.5t-9 -110.5z" />
<glyph unicode="&#xbb;" horiz-adv-x="968" d="M106 193q4 27 58.5 95t140.5 191l-84 99q-57 76 -83.5 124t-31.5 64q-4 23 11.5 35t29.5 6q6 -2 40 -32t79 -73t95.5 -91t91.5 -85q27 -23 26 -45q0 -23 -26 -47q-84 -70 -147.5 -134t-127.5 -130q-10 -10 -22.5 -13t-23.5 0t-19.5 11t-6.5 25zM516 193q4 27 58.5 95 t140.5 191l-84 99q-57 76 -84 124t-31 64q-4 23 11.5 35t29.5 6q6 -2 40 -32t79 -73t95 -91t91 -85q27 -23 27 -45q0 -23 -27 -47q-84 -70 -147.5 -134t-126.5 -130q-10 -10 -22.5 -13t-24 0t-19.5 11t-6 25z" />
<glyph unicode="&#xbc;" horiz-adv-x="1656" d="M106 575q2 25 11.5 29t25.5 4q45 0 76 2t49.5 14.5t26.5 37t8 67.5v328q0 37 -7 57.5t-25.5 29.5t-48.5 11t-75 2q-23 0 -28 12.5t-5 28.5q0 31 11.5 36t32.5 5q45 0 87 9t75.5 21.5t56 21.5t30.5 9q14 0 24.5 -9t10.5 -25v-537q0 -43 8.5 -67.5t26.5 -37t48 -14.5t73 -2 q23 0 32 -5t9 -28q0 -16 -6.5 -28t-28.5 -12q-25 0 -57.5 1t-64.5 1t-61.5 1t-47.5 1t-47 -1t-62 -1t-65.5 -1t-57.5 -1q-23 0 -29 12t-6 28zM526 68l610 1196q12 23 34 27.5t40 -1.5q23 -8 34 -28.5t3 -38.5l-615 -1194q-12 -20 -33.5 -26.5t-37.5 -0.5q-23 8 -33 26.5 t-2 39.5zM932 276q0 14 4 23l407 446q12 10 24.5 13t25.5 3q20 0 40.5 -12t22.5 -41v-399h76q18 0 29.5 -5t13.5 -34q0 -16 -6 -29.5t-29 -13.5h-84v-205q0 -16 -21.5 -25.5t-48.5 -9.5t-47 9.5t-22 25.5v205h-324q-23 0 -42 11t-19 38zM1044 309h273v307 q-66 -78 -133.5 -151.5t-139.5 -155.5z" />
<glyph unicode="&#xbd;" horiz-adv-x="1744" d="M102 575q2 25 11.5 29t25.5 4q45 0 76 2t49.5 14.5t26.5 37t8 67.5v328q0 37 -7 57.5t-25.5 29.5t-48.5 11t-75 2q-23 0 -28 12.5t-5 28.5q0 31 11.5 36t32.5 5q45 0 87 9t75.5 21.5t56 21.5t30.5 9q14 0 24.5 -9t10.5 -25v-537q0 -43 8.5 -67.5t26.5 -37t48 -14.5t73 -2 q23 0 32 -5t9 -28q0 -16 -6.5 -28t-28.5 -12q-25 0 -57.5 1t-64.5 1t-61.5 1t-47.5 1t-47 -1t-62 -1t-65.5 -1t-57.5 -1q-23 0 -29 12t-6 28zM522 68l610 1196q12 23 34 27.5t40 -1.5q23 -8 34 -28.5t3 -38.5l-615 -1194q-12 -20 -33.5 -26.5t-37.5 -0.5q-23 8 -33 26.5 t-2 39.5zM1077 59q0 35 19.5 55.5t48.5 38.5q51 33 108.5 74t106.5 90t81 109.5t32 132.5q0 63 -34 98t-95 35q-49 0 -82 -24.5t-33 -67.5q0 -18 7 -30.5t15.5 -21t15.5 -14.5t7 -12q0 -10 -20.5 -27.5t-51.5 -17.5q-53 0 -78.5 28.5t-25.5 73.5q0 47 24.5 82t62.5 56.5 t83 31.5t88 10q49 0 96 -12t85 -37.5t61.5 -67.5t23.5 -102q0 -80 -41 -139t-100.5 -107.5t-127 -90.5t-122.5 -85h354q35 0 55.5 -9t20.5 -50q0 -25 -14.5 -41t-44.5 -16h-467q-31 0 -44.5 16t-13.5 41z" />
<glyph unicode="&#xbe;" horiz-adv-x="1744" d="M104 674q0 41 24.5 73.5t78.5 32.5q37 0 55 -20.5t18 -30.5q-4 -10 -25.5 -28.5t-21.5 -41.5q0 -41 36 -62.5t91 -21.5q59 0 100.5 36t41.5 122q0 63 -32 104.5t-104 45.5h-53q-16 0 -22.5 11t-6.5 26q0 14 6.5 26t22.5 12h53q51 6 81 48.5t30 99.5q0 53 -25.5 88 t-89.5 35q-47 0 -79.5 -19.5t-32.5 -64.5q0 -16 7 -27.5t16 -21t17.5 -15.5t8.5 -12q0 -10 -21.5 -26.5t-54.5 -16.5q-51 0 -77.5 30.5t-26.5 76.5q0 43 21.5 73.5t57 51t79.5 29.5t87 9q45 0 91.5 -9t83 -31.5t59 -59.5t22.5 -90q0 -51 -32.5 -101.5t-100.5 -80.5 q31 -6 60.5 -18.5t54 -35t39 -55.5t14.5 -80q0 -63 -24.5 -106t-66.5 -71t-96.5 -40t-111.5 -12q-43 0 -88 9t-81 28.5t-59.5 51.5t-23.5 79zM557 68l610 1196q12 23 34 27.5t40 -1.5q23 -8 34 -28.5t3 -38.5l-615 -1194q-12 -20 -33.5 -26.5t-37.5 -0.5q-23 8 -33 26.5 t-2 39.5zM1024 276q0 14 4 23l407 446q12 10 24.5 13t25.5 3q20 0 40.5 -12t22.5 -41v-399h76q18 0 29.5 -5t13.5 -34q0 -16 -6 -29.5t-29 -13.5h-84v-205q0 -16 -21.5 -25.5t-48.5 -9.5t-47 9.5t-22 25.5v205h-324q-23 0 -42 11t-19 38zM1136 309h273v307 q-66 -78 -133.5 -151.5t-139.5 -155.5z" />
<glyph unicode="&#xbf;" horiz-adv-x="884" d="M84 -195q0 57 21.5 103.5t57.5 86.5t80 72.5t87 61.5q39 27 74.5 53.5t64.5 55t46 62.5t17 73t-25.5 63.5t-53.5 24.5q-35 0 -66 -17.5t-59 -46.5q-18 -18 -37 -24t-35 -4q-35 2 -53.5 27.5t8.5 54.5q45 45 100.5 69.5t106.5 24.5q45 0 89 -17.5t77.5 -50.5t54 -80 t20.5 -104q0 -47 -18 -85t-49 -70t-70 -58.5t-78 -50.5q-39 -25 -75.5 -49.5t-65.5 -53t-46 -62.5t-17 -77q0 -76 50 -132t136 -56q33 0 67.5 10t62.5 29.5t45 48t17 65.5q0 41 -22.5 65.5t-38.5 39.5q-14 10 -14 14q0 10 27.5 33.5t78.5 23.5q43 0 76 -19.5t53.5 -50 t25.5 -68.5t-3 -75q-16 -63 -64.5 -102t-105 -59.5t-109.5 -26.5t-84 -6q-115 0 -184.5 30.5t-107 75.5t-50 93.5t-12.5 84.5zM315 821q0 59 37.5 95t96.5 36q55 0 92 -35.5t37 -95.5q0 -53 -37 -91t-95 -38q-57 0 -94 38t-37 91z" />
<glyph unicode="&#xc0;" d="M-25 39q2 35 15.5 39t36.5 4q41 0 66.5 13.5t43 36t29.5 51t24 57.5l359 847q14 37 10 59.5t-19.5 37t-39 21.5t-47.5 12q-31 6 -41.5 11t-10.5 36q0 35 23.5 38t58.5 3q63 0 111.5 -9.5t86.5 -32t68.5 -65.5t59.5 -111l344 -847q10 -27 22.5 -54.5t29 -50t39 -38 t54.5 -15.5q23 0 36.5 -4t15.5 -39q0 -16 -9.5 -30.5t-27.5 -14.5q-66 4 -115 5t-111 1q-123 0 -253 -6q-20 0 -28.5 14.5t-8.5 30.5q2 35 15 39t36 4q49 0 75.5 9t34 27.5t2 48.5t-21.5 73l-70 170h-506q-49 -125 -65 -170q-16 -53 -22.5 -84t6 -47.5t46 -21.5t93.5 -5 q23 0 36 -4t15 -39q0 -16 -9 -30.5t-28 -14.5q-66 4 -114 5t-109 1h-53.5t-44 -1t-45 -2t-56.5 -3q-20 0 -28.5 14.5t-8.5 30.5zM247 1622q0 29 26 53.5t50 24.5q25 0 78 -37.5t107.5 -86t96.5 -93.5t42 -59q0 -18 -15.5 -33.5t-35.5 -15.5q-13 0 -19 4q-41 20 -97 52 t-108.5 65.5t-88.5 66.5t-36 59zM401 498h430l-206 526h-7z" />
<glyph unicode="&#xc1;" d="M-25 39q2 35 15.5 39t36.5 4q41 0 66.5 13.5t43 36t29.5 51t24 57.5l359 847q14 37 10 59.5t-19.5 37t-39 21.5t-47.5 12q-31 6 -41.5 11t-10.5 36q0 35 23.5 38t58.5 3q63 0 111.5 -9.5t86.5 -32t68.5 -65.5t59.5 -111l344 -847q10 -27 22.5 -54.5t29 -50t39 -38 t54.5 -15.5q23 0 36.5 -4t15.5 -39q0 -16 -9.5 -30.5t-27.5 -14.5q-66 4 -115 5t-111 1q-123 0 -253 -6q-20 0 -28.5 14.5t-8.5 30.5q2 35 15 39t36 4q49 0 75.5 9t34 27.5t2 48.5t-21.5 73l-70 170h-506q-49 -125 -65 -170q-16 -53 -22.5 -84t6 -47.5t46 -21.5t93.5 -5 q23 0 36 -4t15 -39q0 -16 -9 -30.5t-28 -14.5q-66 4 -114 5t-109 1h-53.5t-44 -1t-45 -2t-56.5 -3q-20 0 -28.5 14.5t-8.5 30.5zM401 498h430l-206 526h-7zM462 1424q0 14 20.5 35.5t52.5 52.5t70 65.5t73.5 63.5t64.5 44t43 15q25 0 50.5 -24.5t25.5 -53.5q0 -31 -36 -61.5 t-88 -62t-108.5 -65.5t-97.5 -54q-6 -4 -18 -4q-23 0 -37.5 15t-14.5 34z" />
<glyph unicode="&#xc2;" d="M-25 39q2 35 15.5 39t36.5 4q41 0 66.5 13.5t43 36t29.5 51t24 57.5l359 847q14 37 10 59.5t-19.5 37t-39 21.5t-47.5 12q-31 6 -41.5 11t-10.5 36q0 35 23.5 38t58.5 3q63 0 111.5 -9.5t86.5 -32t68.5 -65.5t59.5 -111l344 -847q10 -27 22.5 -54.5t29 -50t39 -38 t54.5 -15.5q23 0 36.5 -4t15.5 -39q0 -16 -9.5 -30.5t-27.5 -14.5q-66 4 -115 5t-111 1q-123 0 -253 -6q-20 0 -28.5 14.5t-8.5 30.5q2 35 15 39t36 4q49 0 75.5 9t34 27.5t2 48.5t-21.5 73l-70 170h-506q-49 -125 -65 -170q-16 -53 -22.5 -84t6 -47.5t46 -21.5t93.5 -5 q23 0 36 -4t15 -39q0 -16 -9 -30.5t-28 -14.5q-66 4 -114 5t-109 1h-53.5t-44 -1t-45 -2t-56.5 -3q-20 0 -28.5 14.5t-8.5 30.5zM250 1438q0 20 18 37l260 191q27 18 49 18q25 0 49 -18l261 -191q16 -14 16 -37q0 -14 -8 -24.5t-25 -10.5h-6q-66 16 -140.5 56.5t-146.5 76.5 q-72 -37 -146.5 -76.5t-139.5 -56.5h-7q-16 0 -25 10.5t-9 24.5zM401 498h430l-206 526h-7z" />
<glyph unicode="&#xc3;" d="M-25 39q2 35 15.5 39t36.5 4q41 0 66.5 13.5t43 36t29.5 51t24 57.5l359 847q14 37 10 59.5t-19.5 37t-39 21.5t-47.5 12q-31 6 -41.5 11t-10.5 36q0 35 23.5 38t58.5 3q63 0 111.5 -9.5t86.5 -32t68.5 -65.5t59.5 -111l344 -847q10 -27 22.5 -54.5t29 -50t39 -38 t54.5 -15.5q23 0 36.5 -4t15.5 -39q0 -16 -9.5 -30.5t-27.5 -14.5q-66 4 -115 5t-111 1q-123 0 -253 -6q-20 0 -28.5 14.5t-8.5 30.5q2 35 15 39t36 4q49 0 75.5 9t34 27.5t2 48.5t-21.5 73l-70 170h-506q-49 -125 -65 -170q-16 -53 -22.5 -84t6 -47.5t46 -21.5t93.5 -5 q23 0 36 -4t15 -39q0 -16 -9 -30.5t-28 -14.5q-66 4 -114 5t-109 1h-53.5t-44 -1t-45 -2t-56.5 -3q-20 0 -28.5 14.5t-8.5 30.5zM230 1471q0 18 23.5 62t55 75t70.5 49.5t80 18.5q43 0 82 -18.5t73 -41t64.5 -41t57.5 -18.5q25 0 61.5 20.5t73.5 65.5q14 16 33 16 q14 0 25 -10t11 -29q0 -10 -6 -22q-14 -33 -34.5 -64.5t-48 -57.5t-62.5 -41t-76 -15q-43 0 -82 18.5t-72.5 41t-64.5 41t-57 18.5q-25 0 -61 -19.5t-75 -66.5q-14 -16 -34 -17q-14 0 -25.5 10.5t-11.5 24.5zM401 498h430l-206 526h-7z" />
<glyph unicode="&#xc4;" d="M-25 39q2 35 15.5 39t36.5 4q41 0 66.5 13.5t43 36t29.5 51t24 57.5l359 847q14 37 10 59.5t-19.5 37t-39 21.5t-47.5 12q-31 6 -41.5 11t-10.5 36q0 35 23.5 38t58.5 3q63 0 111.5 -9.5t86.5 -32t68.5 -65.5t59.5 -111l344 -847q10 -27 22.5 -54.5t29 -50t39 -38 t54.5 -15.5q23 0 36.5 -4t15.5 -39q0 -16 -9.5 -30.5t-27.5 -14.5q-66 4 -115 5t-111 1q-123 0 -253 -6q-20 0 -28.5 14.5t-8.5 30.5q2 35 15 39t36 4q49 0 75.5 9t34 27.5t2 48.5t-21.5 73l-70 170h-506q-49 -125 -65 -170q-16 -53 -22.5 -84t6 -47.5t46 -21.5t93.5 -5 q23 0 36 -4t15 -39q0 -16 -9 -30.5t-28 -14.5q-66 4 -114 5t-109 1h-53.5t-44 -1t-45 -2t-56.5 -3q-20 0 -28.5 14.5t-8.5 30.5zM260 1559q0 53 38 88t91 35t88 -35t35 -88q0 -49 -36 -86t-89 -37t-90 37t-37 86zM401 498h430l-206 526h-7zM653 1559q0 53 38 88t91 35 t88 -35t35 -88q0 -49 -36 -86t-89 -37t-90 37t-37 86z" />
<glyph unicode="&#xc5;" d="M-25 39q2 35 15.5 39t36.5 4q41 0 66.5 13.5t43 36t29.5 51t24 57.5l359 847q14 37 10 59.5t-19.5 37t-39 21.5t-47.5 12q-31 6 -41.5 11t-10.5 36q0 35 23.5 38t58.5 3q63 0 111.5 -9.5t86.5 -32t68.5 -65.5t59.5 -111l344 -847q10 -27 22.5 -54.5t29 -50t39 -38 t54.5 -15.5q23 0 36.5 -4t15.5 -39q0 -16 -9.5 -30.5t-27.5 -14.5q-66 4 -115 5t-111 1q-123 0 -253 -6q-20 0 -28.5 14.5t-8.5 30.5q2 35 15 39t36 4q49 0 75.5 9t34 27.5t2 48.5t-21.5 73l-70 170h-506q-49 -125 -65 -170q-16 -53 -22.5 -84t6 -47.5t46 -21.5t93.5 -5 q23 0 36 -4t15 -39q0 -16 -9 -30.5t-28 -14.5q-66 4 -114 5t-109 1h-53.5t-44 -1t-45 -2t-56.5 -3q-20 0 -28.5 14.5t-8.5 30.5zM356 1559q0 201 225 200q109 0 165.5 -53t56.5 -147q0 -90 -59.5 -142.5t-162.5 -52.5q-104 0 -164.5 53.5t-60.5 141.5zM401 498h430l-206 526 h-7zM489 1559q0 -119 92 -119q53 0 70.5 33t17.5 86q0 59 -18 94t-70 35q-47 0 -69.5 -37t-22.5 -92z" />
<glyph unicode="&#xc6;" horiz-adv-x="1847" d="M-20 39q2 35 15 40t36 3q31 -2 57.5 11t50 36t43 51.5t33.5 59.5l436 847q14 37 10 57.5t-19 33t-38.5 17.5t-48.5 9q-31 6 -42 11.5t-9 35.5q2 35 24.5 38t57.5 3h1054q23 0 38.5 -10t15.5 -39l6 -287q0 -20 -19.5 -30.5t-35.5 -10.5q-23 0 -41.5 9.5t-22.5 27.5 q-10 70 -23.5 118t-35 79t-55 45t-87.5 16h-274v-520h371q16 -2 23 -16.5t7 -30.5t-7 -28.5t-23 -12.5h-371v-387q2 -20 4 -44t15.5 -44.5t42 -33.5t81.5 -11h189q53 2 87 13t56.5 39t38.5 73t37 112q8 20 27.5 26.5t41.5 2.5q16 -4 34 -15t16 -32l-41 -258 q-6 -29 -19.5 -36t-40.5 -7h-676q-61 0 -119.5 -1t-125.5 -5q-18 0 -26.5 14.5t-8.5 30.5q2 35 15.5 39t35.5 4q49 0 75.5 13.5t39 36t15.5 51t3 57.5v268h-444l-137 -268q-27 -51 -36.5 -82t2 -48.5t44.5 -22.5t92 -5q23 0 36 -4t15 -39q0 -16 -9 -30.5t-28 -14.5 q-66 4 -114 5t-109 1h-53.5t-44 -1t-45 -2t-56.5 -3q-20 0 -28 14.5t-8 30.5zM502 596h401v614h-47q-31 2 -43 -11t-29 -42z" />
<glyph unicode="&#xc7;" horiz-adv-x="1308" d="M100 637q0 156 47.5 285t134.5 220t210.5 141t277.5 50q74 0 154 -14t146.5 -48t108.5 -89.5t42 -137.5q0 -43 -13.5 -82.5t-40 -70.5t-65.5 -49.5t-90 -18.5q-31 0 -52.5 9.5t-35 21.5t-18.5 24.5t-5 18.5q0 4 16.5 13.5t35 26.5t35 45t16.5 69q0 92 -61.5 146 t-174.5 54q-92 0 -171 -40t-136.5 -116.5t-89 -189t-31.5 -256.5q0 -123 34 -230.5t95 -187t147 -126t191 -46.5q111 0 188.5 45.5t143.5 149.5q8 18 28 18q18 0 44 -17t26 -40q0 -8 -8 -20q-57 -72 -106.5 -116t-100.5 -69.5t-111.5 -36t-142.5 -14.5v-51q35 0 70.5 -7 t64.5 -20.5t46.5 -41t17.5 -66.5q0 -53 -28 -91t-77 -61.5t-118.5 -35t-153.5 -11.5q-20 0 -30.5 15.5t-10.5 33.5q0 29 12 37t29 8q43 0 83 1t72.5 8.5t52 21.5t19.5 43q0 23 -23.5 31t-51 12t-51 14.5t-23.5 42.5v121q-121 12 -224.5 63.5t-179.5 137.5t-120 205.5 t-44 267.5z" />
<glyph unicode="&#xc8;" horiz-adv-x="1216" d="M88 39q2 35 15.5 39t35.5 4q49 0 76 13.5t39 36t15 51t3 57.5v813q0 29 -3 57.5t-15 51t-39 35.5t-76 13q-23 0 -36 4.5t-15 38.5q0 16 8 30.5t27 14.5q68 -4 125 -5t119 -1h643q23 0 38 -10t15 -39l6 -287q0 -20 -19.5 -30.5t-35.5 -10.5q-23 0 -41.5 9.5t-22.5 27.5 q-10 70 -23.5 118t-35 79t-55 45t-86.5 16h-275v-520h371q16 -2 23.5 -16.5t7.5 -30.5t-7.5 -28.5t-23.5 -12.5h-371v-387q2 -20 4 -44t15.5 -44.5t42 -33.5t81.5 -11h189q53 2 87 13t56.5 39t39 73t36.5 112q8 20 27.5 26.5t42.5 2.5q16 -4 33.5 -15t15.5 -32l-41 -258 q-6 -29 -19.5 -36t-40.5 -7h-675q-61 0 -120 -1t-126 -5q-18 0 -26.5 14.5t-8.5 30.5zM354 1622q0 29 26 53.5t50 24.5q25 0 78 -37.5t107.5 -86t96.5 -93.5t42 -59q0 -18 -15.5 -33.5t-35.5 -15.5q-13 0 -19 4q-41 20 -97 52t-108.5 65.5t-88.5 66.5t-36 59z" />
<glyph unicode="&#xc9;" horiz-adv-x="1216" d="M88 39q2 35 15.5 39t35.5 4q49 0 76 13.5t39 36t15 51t3 57.5v813q0 29 -3 57.5t-15 51t-39 35.5t-76 13q-23 0 -36 4.5t-15 38.5q0 16 8 30.5t27 14.5q68 -4 125 -5t119 -1h643q23 0 38 -10t15 -39l6 -287q0 -20 -19.5 -30.5t-35.5 -10.5q-23 0 -41.5 9.5t-22.5 27.5 q-10 70 -23.5 118t-35 79t-55 45t-86.5 16h-275v-520h371q16 -2 23.5 -16.5t7.5 -30.5t-7.5 -28.5t-23.5 -12.5h-371v-387q2 -20 4 -44t15.5 -44.5t42 -33.5t81.5 -11h189q53 2 87 13t56.5 39t39 73t36.5 112q8 20 27.5 26.5t42.5 2.5q16 -4 33.5 -15t15.5 -32l-41 -258 q-6 -29 -19.5 -36t-40.5 -7h-675q-61 0 -120 -1t-126 -5q-18 0 -26.5 14.5t-8.5 30.5zM528 1424q0 14 20.5 35.5t52.5 52.5t70 65.5t73.5 63.5t64.5 44t43 15q25 0 50.5 -24.5t25.5 -53.5q0 -31 -36 -61.5t-88 -62t-108.5 -65.5t-97.5 -54q-6 -4 -18 -4q-23 0 -37.5 15 t-14.5 34z" />
<glyph unicode="&#xca;" horiz-adv-x="1216" d="M88 39q2 35 15.5 39t35.5 4q49 0 76 13.5t39 36t15 51t3 57.5v813q0 29 -3 57.5t-15 51t-39 35.5t-76 13q-23 0 -36 4.5t-15 38.5q0 16 8 30.5t27 14.5q68 -4 125 -5t119 -1h643q23 0 38 -10t15 -39l6 -287q0 -20 -19.5 -30.5t-35.5 -10.5q-23 0 -41.5 9.5t-22.5 27.5 q-10 70 -23.5 118t-35 79t-55 45t-86.5 16h-275v-520h371q16 -2 23.5 -16.5t7.5 -30.5t-7.5 -28.5t-23.5 -12.5h-371v-387q2 -20 4 -44t15.5 -44.5t42 -33.5t81.5 -11h189q53 2 87 13t56.5 39t39 73t36.5 112q8 20 27.5 26.5t42.5 2.5q16 -4 33.5 -15t15.5 -32l-41 -258 q-6 -29 -19.5 -36t-40.5 -7h-675q-61 0 -120 -1t-126 -5q-18 0 -26.5 14.5t-8.5 30.5zM316 1438q0 20 18 37l260 191q27 18 49 18q25 0 49 -18l261 -191q16 -14 16 -37q0 -14 -8 -24.5t-25 -10.5h-6q-66 16 -140.5 56.5t-146.5 76.5q-72 -37 -146.5 -76.5t-139.5 -56.5h-7 q-16 0 -25 10.5t-9 24.5z" />
<glyph unicode="&#xcb;" horiz-adv-x="1216" d="M88 39q2 35 15.5 39t35.5 4q49 0 76 13.5t39 36t15 51t3 57.5v813q0 29 -3 57.5t-15 51t-39 35.5t-76 13q-23 0 -36 4.5t-15 38.5q0 16 8 30.5t27 14.5q68 -4 125 -5t119 -1h643q23 0 38 -10t15 -39l6 -287q0 -20 -19.5 -30.5t-35.5 -10.5q-23 0 -41.5 9.5t-22.5 27.5 q-10 70 -23.5 118t-35 79t-55 45t-86.5 16h-275v-520h371q16 -2 23.5 -16.5t7.5 -30.5t-7.5 -28.5t-23.5 -12.5h-371v-387q2 -20 4 -44t15.5 -44.5t42 -33.5t81.5 -11h189q53 2 87 13t56.5 39t39 73t36.5 112q8 20 27.5 26.5t42.5 2.5q16 -4 33.5 -15t15.5 -32l-41 -258 q-6 -29 -19.5 -36t-40.5 -7h-675q-61 0 -120 -1t-126 -5q-18 0 -26.5 14.5t-8.5 30.5zM326 1559q0 53 38 88t91 35t88 -35t35 -88q0 -49 -36 -86t-89 -37t-90 37t-37 86zM719 1559q0 53 38 88t91 35t88 -35t35 -88q0 -49 -36 -86t-89 -37t-90 37t-37 86z" />
<glyph unicode="&#xcc;" horiz-adv-x="745" d="M55 1622q0 29 26 53.5t50 24.5q25 0 78 -37.5t107.5 -86t96.5 -93.5t42 -59q0 -18 -15.5 -33.5t-35.5 -15.5q-13 0 -19 4q-41 20 -97 52t-108.5 65.5t-88.5 66.5t-36 59zM86 39q2 35 16.5 39t34.5 4q49 0 76 13.5t39 36t15 51t5 57.5v813q-2 29 -5 57.5t-15 51t-39 35.5 t-76 13q-20 0 -34.5 4.5t-16.5 38.5q0 16 8 30.5t29 14.5q66 -4 124 -5t120 -1q123 0 256 6q18 0 27 -14t9 -31q-4 -35 -17 -39t-36 -4q-49 0 -75.5 -13t-39 -35.5t-15.5 -51.5t-3 -57v-813q0 -29 3 -57.5t15.5 -51t39 -36t75.5 -13.5q23 0 36 -4t17 -39q0 -16 -9 -30.5 t-27 -14.5q-133 6 -254 6q-61 0 -121 -1t-125 -5q-20 0 -28.5 14.5t-8.5 30.5z" />
<glyph unicode="&#xcd;" horiz-adv-x="745" d="M86 39q2 35 16.5 39t34.5 4q49 0 76 13.5t39 36t15 51t5 57.5v813q-2 29 -5 57.5t-15 51t-39 35.5t-76 13q-20 0 -34.5 4.5t-16.5 38.5q0 16 8 30.5t29 14.5q66 -4 124 -5t120 -1q123 0 256 6q18 0 27 -14t9 -31q-4 -35 -17 -39t-36 -4q-49 0 -75.5 -13t-39 -35.5 t-15.5 -51.5t-3 -57v-813q0 -29 3 -57.5t15.5 -51t39 -36t75.5 -13.5q23 0 36 -4t17 -39q0 -16 -9 -30.5t-27 -14.5q-133 6 -254 6q-61 0 -121 -1t-125 -5q-20 0 -28.5 14.5t-8.5 30.5zM270 1424q0 14 20.5 35.5t52.5 52.5t70 65.5t73.5 63.5t64.5 44t43 15q25 0 50.5 -24.5 t25.5 -53.5q0 -31 -36 -61.5t-88 -62t-108.5 -65.5t-97.5 -54q-6 -4 -18 -4q-23 0 -37.5 15t-14.5 34z" />
<glyph unicode="&#xce;" horiz-adv-x="745" d="M39 1438q0 20 18 37l260 191q27 18 49 18q25 0 49 -18l261 -191q16 -14 16 -37q0 -14 -8 -24.5t-25 -10.5h-6q-66 16 -140.5 56.5t-146.5 76.5q-72 -37 -146.5 -76.5t-139.5 -56.5h-7q-16 0 -25 10.5t-9 24.5zM86 39q2 35 16.5 39t34.5 4q49 0 76 13.5t39 36t15 51 t5 57.5v813q-2 29 -5 57.5t-15 51t-39 35.5t-76 13q-20 0 -34.5 4.5t-16.5 38.5q0 16 8 30.5t29 14.5q66 -4 124 -5t120 -1q123 0 256 6q18 0 27 -14t9 -31q-4 -35 -17 -39t-36 -4q-49 0 -75.5 -13t-39 -35.5t-15.5 -51.5t-3 -57v-813q0 -29 3 -57.5t15.5 -51t39 -36 t75.5 -13.5q23 0 36 -4t17 -39q0 -16 -9 -30.5t-27 -14.5q-133 6 -254 6q-61 0 -121 -1t-125 -5q-20 0 -28.5 14.5t-8.5 30.5z" />
<glyph unicode="&#xcf;" horiz-adv-x="745" d="M49 1559q0 53 38 88t91 35t88 -35t35 -88q0 -49 -36 -86t-89 -37t-90 37t-37 86zM86 39q2 35 16.5 39t34.5 4q49 0 76 13.5t39 36t15 51t5 57.5v813q-2 29 -5 57.5t-15 51t-39 35.5t-76 13q-20 0 -34.5 4.5t-16.5 38.5q0 16 8 30.5t29 14.5q66 -4 124 -5t120 -1 q123 0 256 6q18 0 27 -14t9 -31q-4 -35 -17 -39t-36 -4q-49 0 -75.5 -13t-39 -35.5t-15.5 -51.5t-3 -57v-813q0 -29 3 -57.5t15.5 -51t39 -36t75.5 -13.5q23 0 36 -4t17 -39q0 -16 -9 -30.5t-27 -14.5q-133 6 -254 6q-61 0 -121 -1t-125 -5q-20 0 -28.5 14.5t-8.5 30.5z M442 1559q0 53 38 88t91 35t88 -35t35 -88q0 -49 -36 -86t-89 -37t-90 37t-37 86z" />
<glyph unicode="&#xd0;" horiz-adv-x="1490" d="M88 39q2 35 15.5 39t35.5 4q49 0 76 13.5t39 36t15 51t3 57.5v397h-112q-23 0 -31 14.5t-8 28.5q0 16 8 30.5t31 14.5h112v328q0 29 -3 57.5t-15 51t-39 35.5t-76 13q-23 0 -36 4.5t-15 38.5q0 16 8 30.5t27 14.5q68 -4 125 -5t119 -1h319q147 0 275.5 -44t223.5 -128 t150.5 -205.5t55.5 -275.5q0 -164 -64.5 -285t-169 -199.5t-238 -116.5t-270.5 -38h-282q-61 0 -119 -1t-125 -5q-18 0 -26.5 14.5t-8.5 30.5zM475 215q0 -84 50 -111.5t155 -27.5q125 0 213 41t143.5 114.5t81 177t25.5 230.5q0 125 -34 231.5t-98.5 184.5t-159.5 121 t-216 43h-40t-47.5 -1t-43 -1h-29.5v-492h236q23 0 31 -14.5t8 -30.5q0 -14 -8.5 -28.5t-30.5 -14.5h-236v-422z" />
<glyph unicode="&#xd1;" horiz-adv-x="1509" d="M86 1264q0 35 23.5 38t58.5 3q86 0 145.5 -10.5t106.5 -35t88 -66.5t88 -106l561 -737h6l-4 703q0 29 -2 57.5t-14.5 51t-38 35.5t-74.5 13q-23 0 -36 4.5t-17 38.5q0 16 9 30.5t28 14.5q33 -2 56.5 -3t44 -2t43 -1h52.5h52.5t42 1t43 2t55.5 3q20 0 28.5 -14t8.5 -31 q-2 -35 -15.5 -39t-35.5 -4q-49 0 -75 -13t-38 -35.5t-14 -51.5t-2 -57l-5 -1033q-2 -16 -19 -21t-32 -5q-39 0 -59 26l-772 1033h-6l4 -813q0 -29 2 -57.5t14 -51t38 -36t75 -13.5q23 0 37 -4t16 -39q0 -16 -9 -30.5t-28 -14.5q-33 2 -56.5 3t-45 2t-44 1h-53.5h-52 t-40.5 -1t-42 -2t-55.5 -3q-20 0 -28.5 14.5t-8.5 30.5q2 35 15.5 39t35.5 4q49 0 75 13.5t38 36t14 51t2 57.5l4 813q0 47 -8 76.5t-24.5 46t-42 25.5t-62.5 16q-31 6 -41 11t-10 36zM408 1471q0 18 23.5 62t55 75t70.5 49.5t80 18.5q43 0 82 -18.5t73 -41t64.5 -41 t57.5 -18.5q25 0 61.5 20.5t73.5 65.5q14 16 33 16q14 0 25 -10t11 -29q0 -10 -6 -22q-14 -33 -34.5 -64.5t-48 -57.5t-62.5 -41t-76 -15q-43 0 -82 18.5t-72.5 41t-64.5 41t-57 18.5q-25 0 -61 -19.5t-75 -66.5q-14 -16 -34 -17q-14 0 -25.5 10.5t-11.5 24.5z" />
<glyph unicode="&#xd2;" horiz-adv-x="1505" d="M96 629q0 170 59.5 301t153.5 221t211 136t230 46q154 0 275.5 -55t206.5 -148.5t131 -214t46 -249.5q0 -170 -60.5 -301.5t-155.5 -221.5t-213 -137t-230 -47q-152 0 -273 55.5t-205 148.5t-130 214t-46 252zM336 635q0 -117 24.5 -222.5t75.5 -186.5t129.5 -129 t182.5 -48q109 0 187.5 50.5t129.5 135t75.5 196.5t24.5 235q0 115 -25.5 220t-77.5 185t-131 127t-183 47q-109 0 -187 -49t-128 -133t-73.5 -194.5t-23.5 -233.5zM438 1640q0 29 26 53.5t50 24.5q25 0 78 -37.5t107.5 -86t96.5 -93.5t42 -59q0 -18 -15.5 -33.5 t-35.5 -15.5q-13 0 -19 4q-41 20 -97 52t-108.5 65.5t-88.5 66.5t-36 59z" />
<glyph unicode="&#xd3;" horiz-adv-x="1505" d="M96 629q0 170 59.5 301t153.5 221t211 136t230 46q154 0 275.5 -55t206.5 -148.5t131 -214t46 -249.5q0 -170 -60.5 -301.5t-155.5 -221.5t-213 -137t-230 -47q-152 0 -273 55.5t-205 148.5t-130 214t-46 252zM336 635q0 -117 24.5 -222.5t75.5 -186.5t129.5 -129 t182.5 -48q109 0 187.5 50.5t129.5 135t75.5 196.5t24.5 235q0 115 -25.5 220t-77.5 185t-131 127t-183 47q-109 0 -187 -49t-128 -133t-73.5 -194.5t-23.5 -233.5zM653 1442q0 14 20.5 35.5t52.5 52.5t70 65.5t73.5 63.5t64.5 44t43 15q25 0 50.5 -24.5t25.5 -53.5 q0 -31 -36 -61.5t-88 -62t-108.5 -65.5t-97.5 -54q-6 -4 -18 -4q-23 0 -37.5 15t-14.5 34z" />
<glyph unicode="&#xd4;" horiz-adv-x="1505" d="M96 629q0 170 59.5 301t153.5 221t211 136t230 46q154 0 275.5 -55t206.5 -148.5t131 -214t46 -249.5q0 -170 -60.5 -301.5t-155.5 -221.5t-213 -137t-230 -47q-152 0 -273 55.5t-205 148.5t-130 214t-46 252zM336 635q0 -117 24.5 -222.5t75.5 -186.5t129.5 -129 t182.5 -48q109 0 187.5 50.5t129.5 135t75.5 196.5t24.5 235q0 115 -25.5 220t-77.5 185t-131 127t-183 47q-109 0 -187 -49t-128 -133t-73.5 -194.5t-23.5 -233.5zM441 1456q0 20 18 37l260 191q27 18 49 18q25 0 49 -18l261 -191q16 -14 16 -37q0 -14 -8 -24.5t-25 -10.5 h-6q-66 16 -140.5 56.5t-146.5 76.5q-72 -37 -146.5 -76.5t-139.5 -56.5h-7q-16 0 -25 10.5t-9 24.5z" />
<glyph unicode="&#xd5;" horiz-adv-x="1505" d="M96 629q0 170 59.5 301t153.5 221t211 136t230 46q154 0 275.5 -55t206.5 -148.5t131 -214t46 -249.5q0 -170 -60.5 -301.5t-155.5 -221.5t-213 -137t-230 -47q-152 0 -273 55.5t-205 148.5t-130 214t-46 252zM336 635q0 -117 24.5 -222.5t75.5 -186.5t129.5 -129 t182.5 -48q109 0 187.5 50.5t129.5 135t75.5 196.5t24.5 235q0 115 -25.5 220t-77.5 185t-131 127t-183 47q-109 0 -187 -49t-128 -133t-73.5 -194.5t-23.5 -233.5zM400 1489q0 18 23.5 62t55 75t70.5 49.5t80 18.5q43 0 82 -18.5t73 -41t64.5 -41t57.5 -18.5 q25 0 61.5 20.5t73.5 65.5q14 16 33 16q14 0 25 -10t11 -29q0 -10 -6 -22q-14 -33 -34.5 -64.5t-48 -57.5t-62.5 -41t-76 -15q-43 0 -82 18.5t-72.5 41t-64.5 41t-57 18.5q-25 0 -61 -19.5t-75 -66.5q-14 -16 -34 -17q-14 0 -25.5 10.5t-11.5 24.5z" />
<glyph unicode="&#xd6;" horiz-adv-x="1505" d="M96 629q0 170 59.5 301t153.5 221t211 136t230 46q154 0 275.5 -55t206.5 -148.5t131 -214t46 -249.5q0 -170 -60.5 -301.5t-155.5 -221.5t-213 -137t-230 -47q-152 0 -273 55.5t-205 148.5t-130 214t-46 252zM336 635q0 -117 24.5 -222.5t75.5 -186.5t129.5 -129 t182.5 -48q109 0 187.5 50.5t129.5 135t75.5 196.5t24.5 235q0 115 -25.5 220t-77.5 185t-131 127t-183 47q-109 0 -187 -49t-128 -133t-73.5 -194.5t-23.5 -233.5zM451 1577q0 53 38 88t91 35t88 -35t35 -88q0 -49 -36 -86t-89 -37t-90 37t-37 86zM844 1577q0 53 38 88 t91 35t88 -35t35 -88q0 -49 -36 -86t-89 -37t-90 37t-37 86z" />
<glyph unicode="&#xd7;" horiz-adv-x="1060" d="M100 162q0 14 9 24l342 338l-342 342q-8 10 -9 25q0 10 7.5 21.5t18.5 21.5t22.5 17t19.5 7q12 0 22 -10l340 -342l340 342q10 10 21 10q18 0 44 -23.5t26 -43.5q0 -14 -9 -25l-342 -342l342 -338q8 -10 9 -24q0 -23 -26 -45.5t-44 -22.5q-10 0 -21 10l-340 340 l-340 -340q-10 -10 -22 -10q-8 0 -19.5 6t-22.5 16.5t-18.5 23t-7.5 22.5z" />
<glyph unicode="&#xd8;" horiz-adv-x="1505" d="M96 629q0 170 59.5 301t153.5 221t211 136t230 46q127 0 231 -39t186 -106l117 131q12 14 30.5 13t28.5 -11q12 -10 13.5 -25.5t-8.5 -25.5l-121 -135q88 -94 135 -216t47 -253q0 -170 -60.5 -301.5t-155.5 -221.5t-213 -137t-230 -47q-131 0 -237.5 42t-190.5 114 l-111 -125q-12 -14 -30.5 -13.5t-28.5 11.5q-12 10 -13.5 25.5t8.5 25.5l117 133q-82 92 -125 210t-43 247zM336 635q0 -180 55 -322l672 756q-53 82 -131 129t-184 47q-109 0 -187 -49t-128 -133t-73.5 -194.5t-23.5 -233.5zM430 236q51 -86 129 -136.5t189 -50.5 q109 0 187.5 50.5t129.5 135t75.5 196.5t24.5 235q0 90 -15 173t-48 154z" />
<glyph unicode="&#xd9;" horiz-adv-x="1474" d="M55 1253q0 16 8.5 30.5t28.5 14.5q66 -4 123 -5t119 -1q123 0 256 6q20 0 28.5 -14t8.5 -31q-2 -31 -12.5 -37t-28.5 -6q-53 0 -81 -13t-42 -34.5t-17.5 -50.5t-3.5 -59v-639q0 -53 10.5 -111.5t44 -108t98 -82t173.5 -32.5q104 0 171 26.5t105.5 70.5t54 98.5 t15.5 109.5v539q0 100 -5 157.5t-21.5 86t-48 35.5t-83.5 7q-20 0 -34.5 4.5t-16.5 38.5q0 16 8.5 30.5t28.5 14.5q66 -4 117 -5t112 -1t112.5 1t117.5 5q20 0 28.5 -14t8.5 -31q-2 -31 -12.5 -37t-28.5 -6q-55 0 -89 -6t-51.5 -32.5t-22.5 -82t-5 -153.5v-571 q0 -109 -47 -186t-120 -126t-160 -71.5t-167 -22.5q-123 0 -216 34t-154.5 89t-93 126t-31.5 146v699q0 29 -3.5 57.5t-15.5 51t-38.5 35.5t-76.5 13q-23 0 -36 4.5t-15 38.5zM464 1622q0 29 26 53.5t50 24.5q25 0 78 -37.5t107.5 -86t96.5 -93.5t42 -59q0 -18 -15.5 -33.5 t-35.5 -15.5q-13 0 -19 4q-41 20 -97 52t-108.5 65.5t-88.5 66.5t-36 59z" />
<glyph unicode="&#xda;" horiz-adv-x="1474" d="M55 1253q0 16 8.5 30.5t28.5 14.5q66 -4 123 -5t119 -1q123 0 256 6q20 0 28.5 -14t8.5 -31q-2 -31 -12.5 -37t-28.5 -6q-53 0 -81 -13t-42 -34.5t-17.5 -50.5t-3.5 -59v-639q0 -53 10.5 -111.5t44 -108t98 -82t173.5 -32.5q104 0 171 26.5t105.5 70.5t54 98.5 t15.5 109.5v539q0 100 -5 157.5t-21.5 86t-48 35.5t-83.5 7q-20 0 -34.5 4.5t-16.5 38.5q0 16 8.5 30.5t28.5 14.5q66 -4 117 -5t112 -1t112.5 1t117.5 5q20 0 28.5 -14t8.5 -31q-2 -31 -12.5 -37t-28.5 -6q-55 0 -89 -6t-51.5 -32.5t-22.5 -82t-5 -153.5v-571 q0 -109 -47 -186t-120 -126t-160 -71.5t-167 -22.5q-123 0 -216 34t-154.5 89t-93 126t-31.5 146v699q0 29 -3.5 57.5t-15.5 51t-38.5 35.5t-76.5 13q-23 0 -36 4.5t-15 38.5zM659 1424q0 14 20.5 35.5t52.5 52.5t70 65.5t73.5 63.5t64.5 44t43 15q25 0 50.5 -24.5 t25.5 -53.5q0 -31 -36 -61.5t-88 -62t-108.5 -65.5t-97.5 -54q-6 -4 -18 -4q-23 0 -37.5 15t-14.5 34z" />
<glyph unicode="&#xdb;" horiz-adv-x="1474" d="M55 1253q0 16 8.5 30.5t28.5 14.5q66 -4 123 -5t119 -1q123 0 256 6q20 0 28.5 -14t8.5 -31q-2 -31 -12.5 -37t-28.5 -6q-53 0 -81 -13t-42 -34.5t-17.5 -50.5t-3.5 -59v-639q0 -53 10.5 -111.5t44 -108t98 -82t173.5 -32.5q104 0 171 26.5t105.5 70.5t54 98.5 t15.5 109.5v539q0 100 -5 157.5t-21.5 86t-48 35.5t-83.5 7q-20 0 -34.5 4.5t-16.5 38.5q0 16 8.5 30.5t28.5 14.5q66 -4 117 -5t112 -1t112.5 1t117.5 5q20 0 28.5 -14t8.5 -31q-2 -31 -12.5 -37t-28.5 -6q-55 0 -89 -6t-51.5 -32.5t-22.5 -82t-5 -153.5v-571 q0 -109 -47 -186t-120 -126t-160 -71.5t-167 -22.5q-123 0 -216 34t-154.5 89t-93 126t-31.5 146v699q0 29 -3.5 57.5t-15.5 51t-38.5 35.5t-76.5 13q-23 0 -36 4.5t-15 38.5zM447 1438q0 20 18 37l260 191q27 18 49 18q25 0 49 -18l261 -191q16 -14 16 -37q0 -14 -8 -24.5 t-25 -10.5h-6q-66 16 -140.5 56.5t-146.5 76.5q-72 -37 -146.5 -76.5t-139.5 -56.5h-7q-16 0 -25 10.5t-9 24.5z" />
<glyph unicode="&#xdc;" horiz-adv-x="1474" d="M55 1253q0 16 8.5 30.5t28.5 14.5q66 -4 123 -5t119 -1q123 0 256 6q20 0 28.5 -14t8.5 -31q-2 -31 -12.5 -37t-28.5 -6q-53 0 -81 -13t-42 -34.5t-17.5 -50.5t-3.5 -59v-639q0 -53 10.5 -111.5t44 -108t98 -82t173.5 -32.5q104 0 171 26.5t105.5 70.5t54 98.5 t15.5 109.5v539q0 100 -5 157.5t-21.5 86t-48 35.5t-83.5 7q-20 0 -34.5 4.5t-16.5 38.5q0 16 8.5 30.5t28.5 14.5q66 -4 117 -5t112 -1t112.5 1t117.5 5q20 0 28.5 -14t8.5 -31q-2 -31 -12.5 -37t-28.5 -6q-55 0 -89 -6t-51.5 -32.5t-22.5 -82t-5 -153.5v-571 q0 -109 -47 -186t-120 -126t-160 -71.5t-167 -22.5q-123 0 -216 34t-154.5 89t-93 126t-31.5 146v699q0 29 -3.5 57.5t-15.5 51t-38.5 35.5t-76.5 13q-23 0 -36 4.5t-15 38.5zM457 1559q0 53 38 88t91 35t88 -35t35 -88q0 -49 -36 -86t-89 -37t-90 37t-37 86zM850 1559 q0 53 38 88t91 35t88 -35t35 -88q0 -49 -36 -86t-89 -37t-90 37t-37 86z" />
<glyph unicode="&#xdd;" horiz-adv-x="1271" d="M8 1262q0 35 23.5 38t58.5 3q72 0 129 -10.5t104.5 -35t86 -65.5t73.5 -102q59 -111 107.5 -214.5t107.5 -213.5h7l227 448q18 35 19 54.5t-11 29.5t-37.5 13t-60.5 3q-23 0 -36 4.5t-15 38.5q0 16 8 30.5t26 14.5q66 -4 114 -5t110 -1h54t47 1t48.5 2t56.5 3 q20 0 28.5 -14t8.5 -31q-2 -35 -15 -39t-36 -4q-78 0 -127 -33.5t-88 -105.5l-231 -436q-14 -31 -24.5 -51.5t-18 -41t-10.5 -45t-3 -59.5v-198q0 -29 3 -57.5t15.5 -51t39 -36t75.5 -13.5q23 0 36.5 -4t15.5 -39q0 -16 -8.5 -30.5t-26.5 -14.5q-66 4 -125 5t-121 1 q-123 0 -254 -6q-20 0 -28.5 14.5t-8.5 30.5q2 35 16.5 39t34.5 4q49 0 76 13.5t39 36t15.5 51t3.5 57.5v256q0 12 -15.5 51t-40 92t-55.5 114.5t-60.5 120t-55 106.5t-40.5 75q-43 78 -94 111.5t-117 47.5q-29 6 -40 10.5t-11 37.5zM508 1424q0 14 20.5 35.5t52.5 52.5 t70 65.5t73.5 63.5t64.5 44t43 15q25 0 50.5 -24.5t25.5 -53.5q0 -31 -36 -61.5t-88 -62t-108.5 -65.5t-97.5 -54q-6 -4 -18 -4q-23 0 -37.5 15t-14.5 34z" />
<glyph unicode="&#xde;" horiz-adv-x="1241" d="M86 39q2 35 16.5 39t34.5 4q49 0 76 13.5t39 36t15 51t5 57.5v813q-2 29 -5 57.5t-15 51t-39 35.5t-76 13q-20 0 -34.5 4.5t-16.5 38.5q0 16 8 30.5t29 14.5q66 -4 124 -5t120 -1q123 0 256 6q18 0 27 -14t9 -31q-4 -35 -17 -39t-36 -4q-45 0 -71.5 -12t-40 -31.5 t-17.5 -45t-4 -52.5h205q61 0 148 -14.5t167 -54t137.5 -115.5t57.5 -199q0 -98 -44 -174t-117 -128t-165 -80t-188 -28q-53 0 -103.5 8.5t-97.5 26.5v-71q0 -29 3 -57.5t15.5 -51t39 -36t75.5 -13.5q23 0 36 -4t17 -39q0 -16 -9 -30.5t-27 -14.5q-133 6 -254 6 q-61 0 -121 -1t-125 -5q-20 0 -28.5 14.5t-8.5 30.5zM473 391q45 -20 145 -20q47 0 106.5 12t112 46t88.5 94.5t36 156.5q0 98 -36 155.5t-88.5 88t-110.5 40t-105 11.5h-148v-584z" />
<glyph unicode="&#xdf;" horiz-adv-x="1236" d="M47 35q2 31 14.5 34t32.5 3q43 0 64.5 11t31 30.5t9.5 45v52.5v870q0 195 111.5 302.5t318.5 107.5q94 2 173 -23.5t136 -70.5t88 -105.5t31 -124.5q0 -82 -51.5 -160.5t-178.5 -136.5v-6q158 -31 241 -134t83 -263q0 -113 -30.5 -202t-85 -150.5t-126 -94t-151.5 -32.5 q-94 0 -153.5 50t-59.5 124q2 53 33.5 94t89.5 41q35 0 54 -18.5t19 -26.5q0 -4 -8 -10t-18 -17.5t-19.5 -28t-9.5 -38.5q0 -45 21.5 -67.5t48.5 -22.5q51 0 87 39.5t57.5 95t30.5 115t9 98.5q0 84 -15.5 157.5t-47 129t-80.5 87t-117 31.5h-59q-23 0 -32 11.5t-9 27.5 q0 14 9 25.5t32 13.5h59q39 0 71.5 22.5t56 58.5t37 82t13.5 93t-11 92t-37 81t-67 57.5t-98 21.5q-74 0 -123 -21.5t-79.5 -60.5t-43 -91t-12.5 -116v-907q0 -35 1 -60.5t8 -44t25.5 -27.5t55.5 -7q16 0 29.5 -3t15.5 -34q0 -16 -8 -28.5t-25 -12.5q-59 4 -101 5t-95 1 q-55 0 -104.5 -1t-108.5 -5q-16 0 -24.5 12t-8.5 29z" />
<glyph unicode="&#xe0;" horiz-adv-x="1026" d="M70 219q0 74 35.5 125t91 84t124 51.5t135 27.5t123 12t89.5 7v162q0 96 -47 150.5t-164 54.5q-59 0 -108.5 -37t-49.5 -106q0 -25 10 -44.5t22.5 -31.5t23 -20.5t10.5 -10.5q0 -10 -24 -30.5t-65 -20.5q-66 0 -99.5 47t-33.5 104t29 97.5t75 65t104.5 35.5t117.5 11 q70 0 137.5 -11t120.5 -44t87 -91t34 -153v-477q0 -16 5 -36.5t17.5 -39t33 -32t50.5 -13.5q14 0 22.5 -5t8.5 -27q0 -14 -12 -23.5t-30.5 -14.5t-38 -7.5t-32.5 -2.5q-76 0 -135 44t-69 122q-23 -41 -64 -71.5t-89 -52t-98 -32t-93 -10.5q-53 0 -99.5 19.5t-80 52.5t-54 77 t-20.5 95zM231 1352q0 31 26.5 58.5t63.5 27.5q47 0 74 -47l153 -281q8 -16 9 -29q0 -23 -14.5 -34t-35.5 -11q-27 0 -49 25l-209 244q-18 20 -18 47zM276 246q0 -66 37 -113t97 -47q51 0 98 20.5t83 55.5t56.5 84t20.5 104v115q-98 -12 -172 -28.5t-122 -41t-73 -61.5 t-25 -88z" />
<glyph unicode="&#xe1;" horiz-adv-x="1026" d="M70 219q0 74 35.5 125t91 84t124 51.5t135 27.5t123 12t89.5 7v162q0 96 -47 150.5t-164 54.5q-59 0 -108.5 -37t-49.5 -106q0 -25 10 -44.5t22.5 -31.5t23 -20.5t10.5 -10.5q0 -10 -24 -30.5t-65 -20.5q-66 0 -99.5 47t-33.5 104t29 97.5t75 65t104.5 35.5t117.5 11 q70 0 137.5 -11t120.5 -44t87 -91t34 -153v-477q0 -16 5 -36.5t17.5 -39t33 -32t50.5 -13.5q14 0 22.5 -5t8.5 -27q0 -14 -12 -23.5t-30.5 -14.5t-38 -7.5t-32.5 -2.5q-76 0 -135 44t-69 122q-23 -41 -64 -71.5t-89 -52t-98 -32t-93 -10.5q-53 0 -99.5 19.5t-80 52.5t-54 77 t-20.5 95zM276 246q0 -66 37 -113t97 -47q51 0 98 20.5t83 55.5t56.5 84t20.5 104v115q-98 -12 -172 -28.5t-122 -41t-73 -61.5t-25 -88zM416 1081q0 14 8 29l154 281q23 47 73 47q37 0 62.5 -28t25.5 -58q0 -29 -16 -47l-209 -244q-23 -25 -49 -25q-20 0 -34.5 11.5 t-14.5 33.5z" />
<glyph unicode="&#xe2;" horiz-adv-x="1026" d="M70 219q0 74 35.5 125t91 84t124 51.5t135 27.5t123 12t89.5 7v162q0 96 -47 150.5t-164 54.5q-59 0 -108.5 -37t-49.5 -106q0 -25 10 -44.5t22.5 -31.5t23 -20.5t10.5 -10.5q0 -10 -24 -30.5t-65 -20.5q-66 0 -99.5 47t-33.5 104t29 97.5t75 65t104.5 35.5t117.5 11 q70 0 137.5 -11t120.5 -44t87 -91t34 -153v-477q0 -16 5 -36.5t17.5 -39t33 -32t50.5 -13.5q14 0 22.5 -5t8.5 -27q0 -14 -12 -23.5t-30.5 -14.5t-38 -7.5t-32.5 -2.5q-76 0 -135 44t-69 122q-23 -41 -64 -71.5t-89 -52t-98 -32t-93 -10.5q-53 0 -99.5 19.5t-80 52.5t-54 77 t-20.5 95zM197 1098q0 12 8 26l209 303q18 27 49 27q14 0 27.5 -5t25.5 -22l209 -303q8 -14 9 -26q0 -20 -13.5 -30.5t-30.5 -10.5q-31 0 -80 48t-145 173q-96 -125 -145 -173t-80 -48q-16 0 -29.5 10t-13.5 31zM276 246q0 -66 37 -113t97 -47q51 0 98 20.5t83 55.5t56.5 84 t20.5 104v115q-98 -12 -172 -28.5t-122 -41t-73 -61.5t-25 -88z" />
<glyph unicode="&#xe3;" horiz-adv-x="1026" d="M70 219q0 74 35.5 125t91 84t124 51.5t135 27.5t123 12t89.5 7v162q0 96 -47 150.5t-164 54.5q-59 0 -108.5 -37t-49.5 -106q0 -25 10 -44.5t22.5 -31.5t23 -20.5t10.5 -10.5q0 -10 -24 -30.5t-65 -20.5q-66 0 -99.5 47t-33.5 104t29 97.5t75 65t104.5 35.5t117.5 11 q70 0 137.5 -11t120.5 -44t87 -91t34 -153v-477q0 -16 5 -36.5t17.5 -39t33 -32t50.5 -13.5q14 0 22.5 -5t8.5 -27q0 -14 -12 -23.5t-30.5 -14.5t-38 -7.5t-32.5 -2.5q-76 0 -135 44t-69 122q-23 -41 -64 -71.5t-89 -52t-98 -32t-93 -10.5q-53 0 -99.5 19.5t-80 52.5t-54 77 t-20.5 95zM139 1172.5q-6 13.5 0 31.5q12 33 34 67t50.5 60.5t63.5 43t78 16.5t75.5 -19.5t59 -41t50 -40t50.5 -18.5q25 0 61.5 20.5t73.5 65.5q12 14 26.5 16t26 -5t15.5 -22.5t-4 -33.5q-14 -33 -35 -64.5t-48.5 -57.5t-62 -41t-75.5 -15q-43 0 -76 19.5t-59.5 41 t-50 39.5t-50.5 18q-25 0 -60.5 -19.5t-74.5 -66.5q-10 -12 -24.5 -14t-26 2t-17.5 17.5zM276 246q0 -66 37 -113t97 -47q51 0 98 20.5t83 55.5t56.5 84t20.5 104v115q-98 -12 -172 -28.5t-122 -41t-73 -61.5t-25 -88z" />
<glyph unicode="&#xe4;" horiz-adv-x="1026" d="M70 219q0 74 35.5 125t91 84t124 51.5t135 27.5t123 12t89.5 7v162q0 96 -47 150.5t-164 54.5q-59 0 -108.5 -37t-49.5 -106q0 -25 10 -44.5t22.5 -31.5t23 -20.5t10.5 -10.5q0 -10 -24 -30.5t-65 -20.5q-66 0 -99.5 47t-33.5 104t29 97.5t75 65t104.5 35.5t117.5 11 q70 0 137.5 -11t120.5 -44t87 -91t34 -153v-477q0 -16 5 -36.5t17.5 -39t33 -32t50.5 -13.5q14 0 22.5 -5t8.5 -27q0 -14 -12 -23.5t-30.5 -14.5t-38 -7.5t-32.5 -2.5q-76 0 -135 44t-69 122q-23 -41 -64 -71.5t-89 -52t-98 -32t-93 -10.5q-53 0 -99.5 19.5t-80 52.5t-54 77 t-20.5 95zM178 1243q0 53 38 88t91 35t88 -35t35 -88q0 -49 -35.5 -86t-89.5 -37q-53 0 -90 37t-37 86zM276 246q0 -66 37 -113t97 -47q51 0 98 20.5t83 55.5t56.5 84t20.5 104v115q-98 -12 -172 -28.5t-122 -41t-73 -61.5t-25 -88zM533 1243q0 53 38 88t91 35t88 -35 t35 -88q0 -49 -36 -86t-89 -37t-90 37t-37 86z" />
<glyph unicode="&#xe5;" horiz-adv-x="1026" d="M70 219q0 74 35.5 125t91 84t124 51.5t135 27.5t123 12t89.5 7v162q0 96 -47 150.5t-164 54.5q-59 0 -108.5 -37t-49.5 -106q0 -25 10 -44.5t22.5 -31.5t23 -20.5t10.5 -10.5q0 -10 -24 -30.5t-65 -20.5q-66 0 -99.5 47t-33.5 104t29 97.5t75 65t104.5 35.5t117.5 11 q70 0 137.5 -11t120.5 -44t87 -91t34 -153v-477q0 -16 5 -36.5t17.5 -39t33 -32t50.5 -13.5q14 0 22.5 -5t8.5 -27q0 -14 -12 -23.5t-30.5 -14.5t-38 -7.5t-32.5 -2.5q-76 0 -135 44t-69 122q-23 -41 -64 -71.5t-89 -52t-98 -32t-93 -10.5q-53 0 -99.5 19.5t-80 52.5t-54 77 t-20.5 95zM244 1233q0 201 225 200q109 0 165.5 -53t56.5 -147q0 -90 -59.5 -142.5t-162.5 -52.5q-104 0 -164.5 53.5t-60.5 141.5zM276 246q0 -66 37 -113t97 -47q51 0 98 20.5t83 55.5t56.5 84t20.5 104v115q-98 -12 -172 -28.5t-122 -41t-73 -61.5t-25 -88zM377 1233 q0 -119 92 -119q53 0 70.5 33t17.5 86q0 59 -18 94t-70 35q-47 0 -69.5 -37t-22.5 -92z" />
<glyph unicode="&#xe6;" horiz-adv-x="1583" d="M70 219q0 74 35.5 125t91 84t124 51.5t135 27.5t123 12t89.5 7v162q0 96 -47.5 150.5t-163.5 54.5q-59 0 -108.5 -37t-49.5 -106q0 -25 10 -44.5t22.5 -31.5t23 -20.5t10.5 -10.5q0 -10 -24 -30.5t-65 -20.5q-66 0 -99.5 47t-33.5 104t29 97.5t75 65t104.5 35.5t117.5 11 q94 0 183.5 -22t142.5 -94q57 53 133 84.5t168 31.5q94 0 164.5 -25.5t118.5 -71.5t76 -109.5t34 -137.5q0 -72 -40 -94t-103 -22h-498q0 -90 18.5 -166t57.5 -131.5t100 -86t147 -30.5t147.5 37t119.5 129q16 20 45 2q16 -10 20 -26.5t-4 -29.5q-63 -100 -159.5 -157.5 t-221.5 -57.5q-154 0 -257 62.5t-159 165.5q-10 -20 -21 -40t-24 -38q-25 -37 -65.5 -64.5t-86.5 -47t-94.5 -29t-86.5 -9.5q-53 0 -99.5 19.5t-80 52.5t-54 77t-20.5 95zM276 246q0 -66 37 -113t97 -47q51 0 98 20.5t83 55.5t56.5 84t20.5 104v115q-98 -12 -172 -28.5 t-122 -41t-73 -61.5t-25 -88zM848 569h334q49 0 77.5 19.5t32.5 66.5q0 43 -12 84t-36.5 73t-61.5 50.5t-86 18.5q-104 0 -172 -82t-76 -230z" />
<glyph unicode="&#xe7;" horiz-adv-x="972" d="M84 465q4 106 42 194.5t102.5 153t151.5 100t185 39.5q27 0 75 -4t96 -20.5t89 -50t58 -95.5q8 -35 3 -70.5t-22.5 -65.5t-47.5 -48t-68 -18q-45 0 -70 22.5t-25 32.5q0 2 10.5 10t23.5 22.5t23.5 34t10.5 46.5q0 66 -47 96t-107 33q-90 0 -144 -38t-83 -97.5t-38 -131 t-9 -139.5q0 -84 19.5 -156.5t56.5 -125t90 -82t119 -29.5q90 0 151.5 37.5t112.5 115.5q14 20 43 5q14 -8 20 -22.5t-4 -29.5q-68 -98 -168 -153q-86 -47 -176 -54v-61q35 0 71 -7t64.5 -24.5t46 -44t17.5 -67.5q0 -53 -28 -91t-77 -61.5t-118.5 -35t-153.5 -11.5 q-20 0 -30.5 15.5t-10.5 33.5q0 29 12 37t29 8q43 0 83 1t72.5 8.5t52 21.5t19.5 43q0 33 -31.5 45t-85.5 16q-10 2 -21 8.5t-11 38.5v132q-61 6 -115 28q-82 35 -139.5 99.5t-88 154.5t-30.5 201z" />
<glyph unicode="&#xe8;" horiz-adv-x="1028" d="M84 469q0 88 31.5 175t91 155.5t143.5 110.5t191 42q94 0 164.5 -25.5t118.5 -71.5t76 -109.5t34 -137.5q0 -72 -40 -94t-103 -22h-498q0 -90 18.5 -166t57.5 -131.5t100 -86t147 -30.5t147.5 37t119.5 129q16 20 45 2q16 -10 20 -27t-4 -29q-63 -100 -159.5 -157.5 t-221.5 -57.5q-119 0 -209 39t-149.5 106.5t-90 158t-30.5 190.5zM293 569h334q49 0 77.5 19.5t32.5 66.5q0 43 -12 84t-36.5 73t-61.5 50.5t-86 18.5q-104 0 -172 -82t-76 -230zM305 1352q0 31 26.5 58.5t63.5 27.5q47 0 74 -47l153 -281q8 -16 9 -29q0 -23 -14.5 -34 t-35.5 -11q-27 0 -49 25l-209 244q-18 20 -18 47z" />
<glyph unicode="&#xe9;" horiz-adv-x="1028" d="M84 469q0 88 31.5 175t91 155.5t143.5 110.5t191 42q94 0 164.5 -25.5t118.5 -71.5t76 -109.5t34 -137.5q0 -72 -40 -94t-103 -22h-498q0 -90 18.5 -166t57.5 -131.5t100 -86t147 -30.5t147.5 37t119.5 129q16 20 45 2q16 -10 20 -27t-4 -29q-63 -100 -159.5 -157.5 t-221.5 -57.5q-119 0 -209 39t-149.5 106.5t-90 158t-30.5 190.5zM293 569h334q49 0 77.5 19.5t32.5 66.5q0 43 -12 84t-36.5 73t-61.5 50.5t-86 18.5q-104 0 -172 -82t-76 -230zM469 1081q0 14 8 29l154 281q23 47 73 47q37 0 62.5 -28t25.5 -58q0 -29 -16 -47l-209 -244 q-23 -25 -49 -25q-20 0 -34.5 11.5t-14.5 33.5z" />
<glyph unicode="&#xea;" horiz-adv-x="1028" d="M84 469q0 88 31.5 175t91 155.5t143.5 110.5t191 42q94 0 164.5 -25.5t118.5 -71.5t76 -109.5t34 -137.5q0 -72 -40 -94t-103 -22h-498q0 -90 18.5 -166t57.5 -131.5t100 -86t147 -30.5t147.5 37t119.5 129q16 20 45 2q16 -10 20 -27t-4 -29q-63 -100 -159.5 -157.5 t-221.5 -57.5q-119 0 -209 39t-149.5 106.5t-90 158t-30.5 190.5zM270 1098q0 12 8 26l209 303q18 27 49 27q14 0 27.5 -5t25.5 -22l209 -303q8 -14 9 -26q0 -20 -13.5 -30.5t-30.5 -10.5q-31 0 -80 48t-145 173q-96 -125 -145 -173t-80 -48q-16 0 -29.5 10t-13.5 31z M293 569h334q49 0 77.5 19.5t32.5 66.5q0 43 -12 84t-36.5 73t-61.5 50.5t-86 18.5q-104 0 -172 -82t-76 -230z" />
<glyph unicode="&#xeb;" horiz-adv-x="1028" d="M84 469q0 88 31.5 175t91 155.5t143.5 110.5t191 42q94 0 164.5 -25.5t118.5 -71.5t76 -109.5t34 -137.5q0 -72 -40 -94t-103 -22h-498q0 -90 18.5 -166t57.5 -131.5t100 -86t147 -30.5t147.5 37t119.5 129q16 20 45 2q16 -10 20 -27t-4 -29q-63 -100 -159.5 -157.5 t-221.5 -57.5q-119 0 -209 39t-149.5 106.5t-90 158t-30.5 190.5zM251 1243q0 53 38 88t91 35t88 -35t35 -88q0 -49 -35.5 -86t-89.5 -37q-53 0 -90 37t-37 86zM293 569h334q49 0 77.5 19.5t32.5 66.5q0 43 -12 84t-36.5 73t-61.5 50.5t-86 18.5q-104 0 -172 -82t-76 -230z M606 1243q0 53 38 88t91 35t88 -35t35 -88q0 -49 -36 -86t-89 -37t-90 37t-37 86z" />
<glyph unicode="&#xec;" horiz-adv-x="606" d="M29 1352q0 31 26.5 58.5t63.5 27.5q47 0 74 -47l153 -281q8 -16 9 -29q0 -23 -14.5 -34t-35.5 -11q-27 0 -49 25l-209 244q-18 20 -18 47zM68 35q4 31 16 34t33 3q43 0 64.5 11t30.5 30.5t9 45v52.5v469v52.5t-9 45t-30.5 30.5t-64.5 11q-18 0 -33.5 5t-15.5 36 q0 12 8 22.5t24 14.5q70 10 115 21.5t73.5 20.5t46 15.5t34.5 8.5q16 2 27.5 -6.5t11.5 -32.5v-713v-52.5t9 -45t31.5 -30.5t65.5 -11q18 0 31.5 -3t15.5 -34q0 -16 -8 -28.5t-25 -12.5q-59 4 -109 5t-106 1q-55 0 -104 -1t-109 -5q-16 0 -24 12t-8 29z" />
<glyph unicode="&#xed;" horiz-adv-x="606" d="M68 35q4 31 16 34t33 3q43 0 64.5 11t30.5 30.5t9 45v52.5v469v52.5t-9 45t-30.5 30.5t-64.5 11q-18 0 -33.5 5t-15.5 36q0 12 8 22.5t24 14.5q70 10 115 21.5t73.5 20.5t46 15.5t34.5 8.5q16 2 27.5 -6.5t11.5 -32.5v-713v-52.5t9 -45t31.5 -30.5t65.5 -11q18 0 31.5 -3 t15.5 -34q0 -16 -8 -28.5t-25 -12.5q-59 4 -109 5t-106 1q-55 0 -104 -1t-109 -5q-16 0 -24 12t-8 29zM150 1081q0 14 8 29l154 281q23 47 73 47q37 0 62.5 -28t25.5 -58q0 -29 -16 -47l-209 -244q-23 -25 -49 -25q-20 0 -34.5 11.5t-14.5 33.5z" />
<glyph unicode="&#xee;" horiz-adv-x="606" d="M-6 1098q0 12 8 26l209 303q18 27 49 27q14 0 27.5 -5t25.5 -22l209 -303q8 -14 9 -26q0 -20 -13.5 -30.5t-30.5 -10.5q-31 0 -80 48t-145 173q-96 -125 -145 -173t-80 -48q-16 0 -29.5 10t-13.5 31zM68 35q4 31 16 34t33 3q43 0 64.5 11t30.5 30.5t9 45v52.5v469v52.5 t-9 45t-30.5 30.5t-64.5 11q-18 0 -33.5 5t-15.5 36q0 12 8 22.5t24 14.5q70 10 115 21.5t73.5 20.5t46 15.5t34.5 8.5q16 2 27.5 -6.5t11.5 -32.5v-713v-52.5t9 -45t31.5 -30.5t65.5 -11q18 0 31.5 -3t15.5 -34q0 -16 -8 -28.5t-25 -12.5q-59 4 -109 5t-106 1 q-55 0 -104 -1t-109 -5q-16 0 -24 12t-8 29z" />
<glyph unicode="&#xef;" horiz-adv-x="606" d="M-25 1243q0 53 38 88t91 35t88 -35t35 -88q0 -49 -35.5 -86t-89.5 -37q-53 0 -90 37t-37 86zM68 35q4 31 16 34t33 3q43 0 64.5 11t30.5 30.5t9 45v52.5v469v52.5t-9 45t-30.5 30.5t-64.5 11q-18 0 -33.5 5t-15.5 36q0 12 8 22.5t24 14.5q70 10 115 21.5t73.5 20.5 t46 15.5t34.5 8.5q16 2 27.5 -6.5t11.5 -32.5v-713v-52.5t9 -45t31.5 -30.5t65.5 -11q18 0 31.5 -3t15.5 -34q0 -16 -8 -28.5t-25 -12.5q-59 4 -109 5t-106 1q-55 0 -104 -1t-109 -5q-16 0 -24 12t-8 29zM330 1243q0 53 38 88t91 35t88 -35t35 -88q0 -49 -36 -86t-89 -37 t-90 37t-37 86z" />
<glyph unicode="&#xf0;" horiz-adv-x="1153" d="M86 440q0 121 43 214.5t110.5 154.5t150.5 93t165 30q96 -2 151.5 -33t104.5 -70l8 2q-14 123 -61 218.5t-105 177.5l-198 -117q-12 -4 -23.5 6t-17.5 24.5t-6 29t12 20.5l184 104q-25 33 -59.5 63.5t-71.5 57.5q-18 14 -22.5 25.5t0.5 25.5q4 12 15 21.5t30 -0.5 q20 -10 47.5 -27.5t56.5 -37t54.5 -40t41.5 -36.5l176 106q10 6 21.5 -3t20 -23.5t8.5 -30t-11 -21.5l-155 -90q66 -70 118 -161t87.5 -197.5t53 -223t11.5 -235.5q-4 -123 -48 -215t-111.5 -153.5t-149.5 -92.5t-162 -31q-109 0 -195 38t-147 102.5t-94 148.5t-33 176z M287 444q0 -80 14 -151.5t46 -124.5t83 -85t125 -32t125 33t83 90t46 132t14 161q0 80 -15 151.5t-47 124t-83 83t-123 30.5q-76 0 -127 -32.5t-83 -88t-45 -130.5t-13 -161z" />
<glyph unicode="&#xf1;" horiz-adv-x="1226" d="M68 35q4 31 16 34t33 3q43 0 64.5 11t30.5 30.5t9 45v52.5v469v52.5t-9 45t-30.5 30.5t-64.5 11q-18 0 -33.5 5t-15.5 36q0 12 8 22.5t24 14.5q70 10 115 21.5t73.5 20.5t45 15.5t33.5 8.5q16 2 27.5 -6.5t11.5 -32.5v-129h6q31 29 61.5 56.5t68.5 50t86 36.5t113 14 q141 0 222 -84t81 -221v-436v-52.5t9.5 -45t32 -30.5t65.5 -11q18 0 31.5 -3t15.5 -34q0 -16 -8 -28.5t-25 -12.5q-59 4 -109 5t-106 1q-55 0 -104 -1t-109 -5q-16 0 -24 12t-8 29q2 31 15 34t32 3q43 0 64.5 11t30.5 30.5t10 45t1 52.5v434q0 51 -17.5 88t-45 60.5 t-63.5 35t-70 11.5q-53 0 -96.5 -15.5t-75 -38t-53 -46t-29.5 -42.5v-487v-52.5t9 -45t31.5 -30.5t65.5 -11q18 0 31.5 -3t15.5 -34q0 -16 -8 -28.5t-25 -12.5q-59 4 -109 5t-106 1q-55 0 -104 -1t-109 -5q-16 0 -24 12t-8 29zM307 1172.5q-6 13.5 0 31.5q12 33 34 67 t50.5 60.5t63.5 43t78 16.5t75.5 -19.5t59 -41t50 -40t50.5 -18.5q25 0 61.5 20.5t73.5 65.5q12 14 26.5 16t26 -5t15.5 -22.5t-4 -33.5q-14 -33 -35 -64.5t-48.5 -57.5t-62 -41t-75.5 -15q-43 0 -76 19.5t-59.5 41t-50 39.5t-50.5 18q-25 0 -60.5 -19.5t-74.5 -66.5 q-10 -12 -24.5 -14t-26 2t-17.5 17.5z" />
<glyph unicode="&#xf2;" horiz-adv-x="1122" d="M84 451q0 121 44 215t112.5 157.5t153.5 96t167 32.5q106 0 194.5 -40t152 -105.5t97 -151.5t33.5 -178q0 -121 -45 -215t-113.5 -157.5t-153.5 -96.5t-165 -33q-109 0 -195.5 40t-150 105.5t-97.5 151.5t-34 179zM293 455q0 -80 14.5 -153t46 -129t82.5 -89t125 -33 t125 35t83 93.5t46 135t14 162.5q0 80 -15 152.5t-47 128t-83 87.5t-123 32q-76 0 -127 -34t-83 -92.5t-45 -134t-13 -161.5zM326 1352q0 31 26.5 58.5t63.5 27.5q47 0 74 -47l153 -281q8 -16 9 -29q0 -23 -14.5 -34t-35.5 -11q-27 0 -49 25l-209 244q-18 20 -18 47z" />
<glyph unicode="&#xf3;" horiz-adv-x="1122" d="M84 451q0 121 44 215t112.5 157.5t153.5 96t167 32.5q106 0 194.5 -40t152 -105.5t97 -151.5t33.5 -178q0 -121 -45 -215t-113.5 -157.5t-153.5 -96.5t-165 -33q-109 0 -195.5 40t-150 105.5t-97.5 151.5t-34 179zM293 455q0 -80 14.5 -153t46 -129t82.5 -89t125 -33 t125 35t83 93.5t46 135t14 162.5q0 80 -15 152.5t-47 128t-83 87.5t-123 32q-76 0 -127 -34t-83 -92.5t-45 -134t-13 -161.5zM510 1081q0 14 8 29l154 281q23 47 73 47q37 0 62.5 -28t25.5 -58q0 -29 -16 -47l-209 -244q-23 -25 -49 -25q-20 0 -34.5 11.5t-14.5 33.5z" />
<glyph unicode="&#xf4;" horiz-adv-x="1122" d="M84 451q0 121 44 215t112.5 157.5t153.5 96t167 32.5q106 0 194.5 -40t152 -105.5t97 -151.5t33.5 -178q0 -121 -45 -215t-113.5 -157.5t-153.5 -96.5t-165 -33q-109 0 -195.5 40t-150 105.5t-97.5 151.5t-34 179zM291 1098q0 12 8 26l209 303q18 27 49 27q14 0 27.5 -5 t25.5 -22l209 -303q8 -14 9 -26q0 -20 -13.5 -30.5t-30.5 -10.5q-31 0 -80 48t-145 173q-96 -125 -145 -173t-80 -48q-16 0 -29.5 10t-13.5 31zM293 455q0 -80 14.5 -153t46 -129t82.5 -89t125 -33t125 35t83 93.5t46 135t14 162.5q0 80 -15 152.5t-47 128t-83 87.5t-123 32 q-76 0 -127 -34t-83 -92.5t-45 -134t-13 -161.5z" />
<glyph unicode="&#xf5;" horiz-adv-x="1122" d="M84 451q0 121 44 215t112.5 157.5t153.5 96t167 32.5q106 0 194.5 -40t152 -105.5t97 -151.5t33.5 -178q0 -121 -45 -215t-113.5 -157.5t-153.5 -96.5t-165 -33q-109 0 -195.5 40t-150 105.5t-97.5 151.5t-34 179zM233 1172.5q-6 13.5 0 31.5q12 33 34 67t50.5 60.5 t63.5 43t78 16.5t75.5 -19.5t59 -41t50 -40t50.5 -18.5q25 0 61.5 20.5t73.5 65.5q12 14 26.5 16t26 -5t15.5 -22.5t-4 -33.5q-14 -33 -35 -64.5t-48.5 -57.5t-62 -41t-75.5 -15q-43 0 -76 19.5t-59.5 41t-50 39.5t-50.5 18q-25 0 -60.5 -19.5t-74.5 -66.5 q-10 -12 -24.5 -14t-26 2t-17.5 17.5zM293 455q0 -80 14.5 -153t46 -129t82.5 -89t125 -33t125 35t83 93.5t46 135t14 162.5q0 80 -15 152.5t-47 128t-83 87.5t-123 32q-76 0 -127 -34t-83 -92.5t-45 -134t-13 -161.5z" />
<glyph unicode="&#xf6;" horiz-adv-x="1122" d="M84 451q0 121 44 215t112.5 157.5t153.5 96t167 32.5q106 0 194.5 -40t152 -105.5t97 -151.5t33.5 -178q0 -121 -45 -215t-113.5 -157.5t-153.5 -96.5t-165 -33q-109 0 -195.5 40t-150 105.5t-97.5 151.5t-34 179zM272 1243q0 53 38 88t91 35t88 -35t35 -88 q0 -49 -35.5 -86t-89.5 -37q-53 0 -90 37t-37 86zM293 455q0 -80 14.5 -153t46 -129t82.5 -89t125 -33t125 35t83 93.5t46 135t14 162.5q0 80 -15 152.5t-47 128t-83 87.5t-123 32q-76 0 -127 -34t-83 -92.5t-45 -134t-13 -161.5zM627 1243q0 53 38 88t91 35t88 -35t35 -88 q0 -49 -36 -86t-89 -37t-90 37t-37 86z" />
<glyph unicode="&#xf7;" horiz-adv-x="1228" d="M106 541q0 20 12.5 37.5t33.5 17.5h921q20 0 32.5 -17.5t12.5 -37.5t-12 -38t-33 -18h-921q-20 0 -33 17.5t-13 38.5zM481 147q0 53 37 90t94 37q55 0 93 -36.5t38 -90.5q0 -59 -38 -94t-95 -35q-55 0 -92 35t-37 94zM481 909q0 53 37 90t94 37q55 0 93 -36.5t38 -90.5 q0 -59 -38 -94t-95 -35q-55 0 -92 35t-37 94z" />
<glyph unicode="&#xf8;" horiz-adv-x="1120" d="M84 451q0 121 44 215t112.5 157.5t153.5 96t167 32.5q86 0 161 -25.5t134 -72.5l96 109q12 14 30.5 13t29.5 -11q12 -10 13 -25.5t-9 -26.5l-103 -114q59 -66 92 -149t33 -173q0 -121 -45 -215t-113.5 -157.5t-153.5 -96.5t-165 -33q-86 0 -158.5 25t-132.5 70l-71 -80 q-12 -14 -30.5 -13.5t-29.5 11.5q-12 10 -13 25.5t9 25.5l76 86q-61 66 -94 149.5t-33 176.5zM293 455q0 -55 6 -107.5t20 -99.5l449 508q-33 55 -84 88t-123 33q-76 0 -127 -34t-83 -92.5t-45 -134t-13 -161.5zM356 168q33 -53 83 -85t122 -32q74 0 125 35t83 93.5t46 135 t14 162.5q0 53 -6 102.5t-20 92.5z" />
<glyph unicode="&#xf9;" horiz-adv-x="1220" d="M35 840q0 12 8 22t25 15q70 10 114.5 21t73.5 20.5t46 15.5t34 8q16 2 27.5 -6t11.5 -33v-620q0 -51 17.5 -88t45 -60.5t63.5 -35t70 -11.5q53 0 96.5 15.5t76 38t53 46t28.5 41.5v430v52.5t-9 45t-30.5 31t-64.5 11.5q-18 0 -33.5 5t-15.5 36q0 12 8 22t25 15 q70 10 114.5 21t73.5 20.5t46 15.5t34 8q16 2 27.5 -6t11.5 -33v-708q0 -121 162 -121q23 0 28.5 -12.5t5.5 -26.5q0 -29 -34 -35l-330 -23q-16 0 -17.5 12.5t-1.5 28.5v115h-4q-31 -29 -61.5 -56.5t-68.5 -50t-87 -37t-112 -14.5q-141 0 -222.5 84t-81.5 222v378v52.5 t-9 45t-30.5 31t-64.5 11.5q-18 0 -33.5 5t-15.5 36zM338 1352q0 31 26.5 58.5t63.5 27.5q47 0 74 -47l153 -281q8 -16 9 -29q0 -23 -14.5 -34t-35.5 -11q-27 0 -49 25l-209 244q-18 20 -18 47z" />
<glyph unicode="&#xfa;" horiz-adv-x="1220" d="M35 840q0 12 8 22t25 15q70 10 114.5 21t73.5 20.5t46 15.5t34 8q16 2 27.5 -6t11.5 -33v-620q0 -51 17.5 -88t45 -60.5t63.5 -35t70 -11.5q53 0 96.5 15.5t76 38t53 46t28.5 41.5v430v52.5t-9 45t-30.5 31t-64.5 11.5q-18 0 -33.5 5t-15.5 36q0 12 8 22t25 15 q70 10 114.5 21t73.5 20.5t46 15.5t34 8q16 2 27.5 -6t11.5 -33v-708q0 -121 162 -121q23 0 28.5 -12.5t5.5 -26.5q0 -29 -34 -35l-330 -23q-16 0 -17.5 12.5t-1.5 28.5v115h-4q-31 -29 -61.5 -56.5t-68.5 -50t-87 -37t-112 -14.5q-141 0 -222.5 84t-81.5 222v378v52.5 t-9 45t-30.5 31t-64.5 11.5q-18 0 -33.5 5t-15.5 36zM461 1081q0 14 8 29l154 281q23 47 73 47q37 0 62.5 -28t25.5 -58q0 -29 -16 -47l-209 -244q-23 -25 -49 -25q-20 0 -34.5 11.5t-14.5 33.5z" />
<glyph unicode="&#xfb;" horiz-adv-x="1220" d="M35 840q0 12 8 22t25 15q70 10 114.5 21t73.5 20.5t46 15.5t34 8q16 2 27.5 -6t11.5 -33v-620q0 -51 17.5 -88t45 -60.5t63.5 -35t70 -11.5q53 0 96.5 15.5t76 38t53 46t28.5 41.5v430v52.5t-9 45t-30.5 31t-64.5 11.5q-18 0 -33.5 5t-15.5 36q0 12 8 22t25 15 q70 10 114.5 21t73.5 20.5t46 15.5t34 8q16 2 27.5 -6t11.5 -33v-708q0 -121 162 -121q23 0 28.5 -12.5t5.5 -26.5q0 -29 -34 -35l-330 -23q-16 0 -17.5 12.5t-1.5 28.5v115h-4q-31 -29 -61.5 -56.5t-68.5 -50t-87 -37t-112 -14.5q-141 0 -222.5 84t-81.5 222v378v52.5 t-9 45t-30.5 31t-64.5 11.5q-18 0 -33.5 5t-15.5 36zM303 1098q0 12 8 26l209 303q18 27 49 27q14 0 27.5 -5t25.5 -22l209 -303q8 -14 9 -26q0 -20 -13.5 -30.5t-30.5 -10.5q-31 0 -80 48t-145 173q-96 -125 -145 -173t-80 -48q-16 0 -29.5 10t-13.5 31z" />
<glyph unicode="&#xfc;" horiz-adv-x="1220" d="M35 840q0 12 8 22t25 15q70 10 114.5 21t73.5 20.5t46 15.5t34 8q16 2 27.5 -6t11.5 -33v-620q0 -51 17.5 -88t45 -60.5t63.5 -35t70 -11.5q53 0 96.5 15.5t76 38t53 46t28.5 41.5v430v52.5t-9 45t-30.5 31t-64.5 11.5q-18 0 -33.5 5t-15.5 36q0 12 8 22t25 15 q70 10 114.5 21t73.5 20.5t46 15.5t34 8q16 2 27.5 -6t11.5 -33v-708q0 -121 162 -121q23 0 28.5 -12.5t5.5 -26.5q0 -29 -34 -35l-330 -23q-16 0 -17.5 12.5t-1.5 28.5v115h-4q-31 -29 -61.5 -56.5t-68.5 -50t-87 -37t-112 -14.5q-141 0 -222.5 84t-81.5 222v378v52.5 t-9 45t-30.5 31t-64.5 11.5q-18 0 -33.5 5t-15.5 36zM284 1243q0 53 38 88t91 35t88 -35t35 -88q0 -49 -35.5 -86t-89.5 -37q-53 0 -90 37t-37 86zM639 1243q0 53 38 88t91 35t88 -35t35 -88q0 -49 -36 -86t-89 -37t-90 37t-37 86z" />
<glyph unicode="&#xfd;" horiz-adv-x="1130" d="M-27 -254q2 55 24.5 84t47.5 42t44.5 14t14.5 1q39 0 59.5 -15t20.5 -26q0 -4 -15 -19t-17 -54q-2 -37 22.5 -72t75.5 -35q43 0 80 25.5t68.5 63.5t57 85t46.5 90q14 45 -2 95q-37 82 -73 174t-69.5 183t-67.5 175t-65 150q-16 37 -31.5 63.5t-33 43.5t-39 26.5 t-51.5 13.5q-27 4 -36 7t-11 32q-2 35 19 38t52 5q125 6 196.5 -37t119.5 -145q20 -49 45.5 -115t53.5 -137.5t56.5 -142t57.5 -128.5h6l200 537q20 59 2 73.5t-79 14.5q-18 0 -30.5 3t-14.5 34q0 12 6 26.5t22 14.5q59 -4 102.5 -5t96.5 -1h45t36.5 1t38 2t50.5 3 q16 0 23.5 -14.5t7.5 -26.5q-2 -31 -15.5 -34t-29.5 -3q-68 0 -108 -24.5t-69 -96.5l-151 -373q-29 -72 -56.5 -139t-49 -120.5t-36 -87t-14.5 -35.5q-27 -66 -64.5 -139.5t-88 -138t-114 -106.5t-140.5 -42q-45 0 -86 15t-72 42t-49.5 61.5t-18.5 73.5zM455 1081q0 14 8 29 l154 281q23 47 73 47q37 0 62.5 -28t25.5 -58q0 -29 -16 -47l-209 -244q-23 -25 -49 -25q-20 0 -34.5 11.5t-14.5 33.5z" />
<glyph unicode="&#xfe;" horiz-adv-x="1148" d="M6 -385q2 31 15.5 34t31.5 3q41 0 62.5 11t32 30.5t11.5 45t1 52.5v1417v52.5t-9.5 45t-31 31t-64.5 11.5q-18 0 -33.5 5t-15.5 36q0 12 8.5 22t24.5 14q70 10 115 21.5t73.5 21t46 15.5t33.5 8t27.5 -6t11.5 -33v-618h6q61 61 136 89.5t147 28.5q90 0 169 -34.5t137 -98 t91 -152.5t33 -196q0 -104 -39 -195.5t-103.5 -158t-149.5 -104.5t-177 -38q-133 0 -242 64h-8v-248q0 -27 1 -52.5t11.5 -45t32 -30.5t62.5 -11q18 0 31.5 -3t15.5 -34q0 -16 -8.5 -28.5t-24.5 -12.5q-59 4 -109.5 5t-105.5 1t-104.5 -1t-108.5 -5q-16 0 -24.5 12.5 t-8.5 28.5zM346 215q4 -23 20.5 -51.5t46 -55t70.5 -45t95 -18.5q61 0 112 28.5t88 83t57.5 132.5t20.5 174q0 72 -16.5 141.5t-52 123.5t-91 88t-133.5 34q-70 0 -123 -24.5t-94 -69.5v-541z" />
<glyph unicode="&#xff;" horiz-adv-x="1130" d="M-27 -254q2 55 24.5 84t47.5 42t44.5 14t14.5 1q39 0 59.5 -15t20.5 -26q0 -4 -15 -19t-17 -54q-2 -37 22.5 -72t75.5 -35q43 0 80 25.5t68.5 63.5t57 85t46.5 90q14 45 -2 95q-37 82 -73 174t-69.5 183t-67.5 175t-65 150q-16 37 -31.5 63.5t-33 43.5t-39 26.5 t-51.5 13.5q-27 4 -36 7t-11 32q-2 35 19 38t52 5q125 6 196.5 -37t119.5 -145q20 -49 45.5 -115t53.5 -137.5t56.5 -142t57.5 -128.5h6l200 537q20 59 2 73.5t-79 14.5q-18 0 -30.5 3t-14.5 34q0 12 6 26.5t22 14.5q59 -4 102.5 -5t96.5 -1h45t36.5 1t38 2t50.5 3 q16 0 23.5 -14.5t7.5 -26.5q-2 -31 -15.5 -34t-29.5 -3q-68 0 -108 -24.5t-69 -96.5l-151 -373q-29 -72 -56.5 -139t-49 -120.5t-36 -87t-14.5 -35.5q-27 -66 -64.5 -139.5t-88 -138t-114 -106.5t-140.5 -42q-45 0 -86 15t-72 42t-49.5 61.5t-18.5 73.5zM278 1243 q0 53 38 88t91 35t88 -35t35 -88q0 -49 -35.5 -86t-89.5 -37q-53 0 -90 37t-37 86zM633 1243q0 53 38 88t91 35t88 -35t35 -88q0 -49 -36 -86t-89 -37t-90 37t-37 86z" />
<glyph unicode="&#x152;" horiz-adv-x="2064" d="M100 653q0 164 64.5 285t167 200t232.5 116.5t263 37.5h1031q23 0 38 -10t15 -39l6 -287q0 -20 -19.5 -30.5t-35.5 -10.5q-23 0 -41.5 9.5t-22.5 27.5q-10 70 -23.5 118t-35 79t-55 45t-87.5 16h-274v-520h371q16 -2 23 -16.5t7 -30.5t-7 -28.5t-23 -12.5h-371v-387 q2 -20 4 -44t15.5 -44.5t42 -33.5t81.5 -11h189q53 2 87 13t56.5 39t38.5 73t37 112q8 20 27.5 26.5t42.5 2.5q16 -4 33.5 -15t15.5 -32l-41 -258q-6 -29 -19.5 -36t-40.5 -7h-1095q-145 0 -272.5 45t-221.5 129t-148.5 206t-54.5 273zM342 651q0 -129 36 -233.5t101.5 -179 t157.5 -115.5t205 -41h145q49 0 76 13.5t39 36t15 51t3 57.5v813q0 29 -3 57.5t-15 51t-39 35.5t-76 13h-162q-98 0 -186 -29.5t-153.5 -95t-104.5 -172t-39 -262.5z" />
<glyph unicode="&#x153;" horiz-adv-x="1773" d="M84 451q0 121 44 215t112.5 157.5t153.5 96t167 32.5q121 0 215.5 -49t157.5 -127q59 78 148 127t204 49q94 0 165 -25.5t119 -71.5t75.5 -109.5t33.5 -137.5q0 -72 -40 -94t-103 -22h-498q0 -90 18.5 -166t57.5 -131.5t100.5 -86t147.5 -30.5t147.5 37t118.5 129 q16 20 45 2q16 -10 20.5 -26.5t-3.5 -29.5q-63 -100 -159.5 -157.5t-221.5 -57.5q-135 0 -230.5 49.5t-154.5 133.5q-63 -82 -154.5 -132.5t-208.5 -50.5q-109 0 -195.5 40t-150 105.5t-97.5 151.5t-34 179zM293 455q0 -80 14.5 -153t46 -129t82.5 -89t125 -33t125 35 t83 93.5t46 135t14 162.5q0 80 -15 152.5t-47 128t-83 87.5t-123 32q-76 0 -127 -34t-83 -92.5t-45 -134t-13 -161.5zM1030 569h342q49 0 78 19.5t33 66.5q0 43 -12.5 84t-37 73t-61.5 50.5t-86 18.5q-104 0 -176 -82t-80 -230z" />
<glyph unicode="&#x2c6;" horiz-adv-x="790" d="M125 1098q0 12 8 26l209 303q18 27 49 27q14 0 27.5 -5t25.5 -22l209 -303q8 -14 9 -26q0 -20 -13.5 -30.5t-30.5 -10.5q-31 0 -80 48t-145 173q-96 -125 -145 -173t-80 -48q-16 0 -29.5 10t-13.5 31z" />
<glyph unicode="&#x2dc;" horiz-adv-x="870" d="M98 1172.5q-6 13.5 0 31.5q12 33 34 67t50.5 60.5t63.5 43t78 16.5t75.5 -19.5t59 -41t50 -40t50.5 -18.5q25 0 61.5 20.5t73.5 65.5q12 14 26.5 16t26 -5t15.5 -22.5t-4 -33.5q-14 -33 -35 -64.5t-48.5 -57.5t-62 -41t-75.5 -15q-43 0 -76 19.5t-59.5 41t-50 39.5 t-50.5 18q-25 0 -60.5 -19.5t-74.5 -66.5q-10 -12 -24.5 -14t-26 2t-17.5 17.5z" />
<glyph unicode="&#x2000;" horiz-adv-x="879" />
<glyph unicode="&#x2001;" horiz-adv-x="1759" />
<glyph unicode="&#x2002;" horiz-adv-x="879" />
<glyph unicode="&#x2003;" horiz-adv-x="1759" />
<glyph unicode="&#x2004;" horiz-adv-x="586" />
<glyph unicode="&#x2005;" horiz-adv-x="439" />
<glyph unicode="&#x2006;" horiz-adv-x="293" />
<glyph unicode="&#x2007;" horiz-adv-x="293" />
<glyph unicode="&#x2008;" horiz-adv-x="219" />
<glyph unicode="&#x2009;" horiz-adv-x="351" />
<glyph unicode="&#x200a;" horiz-adv-x="97" />
<glyph unicode="&#x2010;" horiz-adv-x="788" d="M123 473q0 23 12 44.5t35 21.5h448q23 0 35.5 -21.5t12.5 -44.5q0 -20 -12.5 -42.5t-35.5 -22.5h-448q-23 0 -35 22.5t-12 42.5z" />
<glyph unicode="&#x2011;" horiz-adv-x="788" d="M123 473q0 23 12 44.5t35 21.5h448q23 0 35.5 -21.5t12.5 -44.5q0 -20 -12.5 -42.5t-35.5 -22.5h-448q-23 0 -35 22.5t-12 42.5z" />
<glyph unicode="&#x2012;" horiz-adv-x="788" d="M123 473q0 23 12 44.5t35 21.5h448q23 0 35.5 -21.5t12.5 -44.5q0 -20 -12.5 -42.5t-35.5 -22.5h-448q-23 0 -35 22.5t-12 42.5z" />
<glyph unicode="&#x2013;" horiz-adv-x="1142" d="M125 541q0 23 12.5 39t34.5 16h791q23 0 35 -16.5t12 -38.5q0 -20 -12.5 -38t-34.5 -18h-791q-23 0 -35 17.5t-12 38.5z" />
<glyph unicode="&#x2014;" horiz-adv-x="1777" d="M125 541q0 23 12.5 39t34.5 16h1425q23 0 35.5 -16.5t12.5 -38.5q0 -20 -12.5 -38t-35.5 -18h-1425q-23 0 -35 17.5t-12 38.5z" />
<glyph unicode="&#x2018;" horiz-adv-x="462" d="M78 1184q0 63 27.5 113.5t70.5 87t97.5 61t107.5 41.5q14 6 26.5 -1t17.5 -19.5t1 -24.5t-18 -19q-86 -33 -130.5 -76.5t-44.5 -105.5q0 -37 24 -59.5t53.5 -42t53 -41t23.5 -56.5q0 -39 -29.5 -70.5t-72.5 -31.5q-45 0 -83 21.5t-65.5 57.5t-43 79t-15.5 86z" />
<glyph unicode="&#x2019;" horiz-adv-x="489" d="M79 989q3 12 19 19q86 33 130 76.5t44 105.5q0 37 -23.5 59.5t-53 42t-53 41t-23.5 56.5q0 39 29.5 70.5t72.5 31.5q45 0 83 -21.5t65.5 -57.5t43 -79t15.5 -86q0 -63 -27.5 -113.5t-70.5 -87t-97.5 -62.5t-107.5 -40q-16 -6 -27.5 1t-16.5 19.5t-2 24.5z" />
<glyph unicode="&#x201a;" horiz-adv-x="485" d="M52 -200.5q3 12.5 20 18.5q86 33 130 77t44 105q0 37 -23.5 59.5t-53.5 42t-53.5 41t-23.5 56.5q0 39 30 70.5t73 31.5q45 0 82.5 -21.5t65.5 -57.5t43 -79t15 -86q0 -63 -27.5 -113t-70.5 -87t-97 -62.5t-108 -40.5q-16 -6 -27.5 1t-16.5 19.5t-2 25z" />
<glyph unicode="&#x201c;" horiz-adv-x="872" d="M78 1186q0 63 27.5 113.5t70.5 87t97.5 61.5t107.5 41q14 6 26.5 -1t17.5 -19.5t1 -24.5t-18 -19q-86 -33 -130.5 -76.5t-44.5 -105.5q0 -37 24 -59.5t53.5 -42t53 -41t23.5 -56.5q0 -39 -29.5 -70.5t-72.5 -31.5q-45 0 -83 21.5t-65.5 57.5t-43 79t-15.5 86zM487 1186 q0 63 28 113.5t71 87t97 61.5t108 41q14 6 26 -1t17.5 -19.5t1 -24.5t-18.5 -19q-86 -33 -130 -76.5t-44 -105.5q0 -37 23.5 -59.5t53.5 -42t53.5 -41t23.5 -56.5q0 -39 -30 -70.5t-73 -31.5q-45 0 -83 21.5t-65.5 57.5t-43 79t-15.5 86z" />
<glyph unicode="&#x201d;" horiz-adv-x="897" d="M79 1001.5q3 12.5 19 18.5q86 33 130 77t44 105q0 37 -23.5 59.5t-53 42t-53 41t-23.5 56.5q0 39 29.5 70.5t72.5 31.5q45 0 83 -21.5t65.5 -57t43 -78.5t15.5 -86q0 -63 -27.5 -113.5t-70.5 -87.5t-97.5 -62.5t-107.5 -40.5q-16 -6 -27.5 1.5t-16.5 19.5t-2 24.5z M488.5 1001.5q3.5 12.5 19.5 18.5q86 33 130 77t44 105q0 37 -23.5 59.5t-53.5 42t-53.5 41t-23.5 56.5q0 39 30 70.5t73 31.5q45 0 83 -21.5t65.5 -57t43 -78.5t15.5 -86q0 -63 -28 -113.5t-71 -87.5t-97 -62.5t-107 -40.5q-16 -6 -27.5 1.5t-17 19.5t-2 24.5z" />
<glyph unicode="&#x201e;" horiz-adv-x="894" d="M52 -200.5q3 12.5 20 18.5q86 33 130 77t44 105q0 37 -23.5 59.5t-53.5 42t-53.5 41t-23.5 56.5q0 39 30 70.5t73 31.5q45 0 82.5 -21.5t65.5 -57.5t43 -79t15 -86q0 -63 -27.5 -113t-70.5 -87t-97 -62.5t-108 -40.5q-16 -6 -27.5 1t-16.5 19.5t-2 25zM462 -200.5 q3 12.5 19 18.5q86 33 130 77t44 105q0 37 -23.5 59.5t-53 42t-53 41t-23.5 56.5q0 39 29.5 70.5t72.5 31.5q45 0 83 -21.5t65.5 -57.5t43 -79t15.5 -86q0 -63 -27.5 -113t-70.5 -87t-97.5 -62.5t-107.5 -40.5q-16 -6 -27.5 1t-16.5 19.5t-2 25z" />
<glyph unicode="&#x2022;" horiz-adv-x="874" d="M184 565q0 51 19.5 95.5t53.5 78t80 53t99 19.5q55 0 101.5 -19.5t81 -53t54 -78t19.5 -95.5q0 -57 -19.5 -103t-54 -79t-82 -51.5t-102.5 -18.5q-106 0 -178 69t-72 183z" />
<glyph unicode="&#x202f;" horiz-adv-x="351" />
<glyph unicode="&#x2039;" horiz-adv-x="561" d="M102 481q0 23 27 45q39 37 90 85t96 91t79 73t40 32q14 6 29.5 -6.5t11.5 -34.5q-4 -16 -30.5 -64.5t-84.5 -123.5l-84 -99q86 -123 140.5 -191.5t58.5 -94.5q2 -31 -25.5 -36t-46.5 13q-63 66 -126.5 130.5t-147.5 133.5q-27 25 -27 47z" />
<glyph unicode="&#x203a;" horiz-adv-x="561" d="M106 193q4 27 58.5 95t140.5 191l-84 99q-57 76 -83.5 124t-31.5 64q-4 23 11.5 35t29.5 6q6 -2 40 -32t79 -73t95.5 -91t91.5 -85q27 -23 26 -45q0 -23 -26 -47q-84 -70 -147.5 -134t-127.5 -130q-10 -10 -22.5 -13t-23.5 0t-19.5 11t-6.5 25z" />
<glyph unicode="&#x205f;" horiz-adv-x="439" />
<glyph unicode="&#x20ac;" horiz-adv-x="1263" d="M94 438q0 16 12.5 36t36.5 20h74q-2 35 -2 43v24q0 49 6 98h-110q-16 0 -17 25q0 16 12.5 35.5t36.5 19.5h93q25 96 72.5 174t115.5 132.5t151 84t175 29.5q31 0 92 -8t124.5 -34.5t110.5 -78t47 -139.5q0 -59 -35.5 -108.5t-103.5 -49.5q-45 0 -69.5 22.5t-24.5 33.5 q0 2 10 10t23.5 22.5t23.5 34t10 45.5q0 47 -19 82t-49 56.5t-67 32t-69 10.5q-74 0 -129.5 -29t-93 -78t-62.5 -112.5t-37 -131.5h389q16 0 17 -24q0 -16 -12.5 -36t-37.5 -20h-366q-6 -43 -6 -84q0 -43 6 -81h305q16 0 16 -25q0 -16 -12 -35.5t-37 -19.5h-260 q16 -78 48 -142.5t76 -110.5t101.5 -73t122.5 -27q61 0 108.5 19.5t85.5 53.5t65.5 79t48.5 94q8 14 22 15q14 0 31.5 -9.5t19.5 -33.5q0 -12 -6 -27q-63 -147 -173 -212t-259 -65q-86 0 -167 30t-147.5 86t-113.5 137t-68 186h-118q-16 0 -17 24z" />
<glyph unicode="&#x25fc;" horiz-adv-x="931" d="M0 0v932h932v-932h-932z" />
</font>
</defs>
</svg>
