<svg xmlns="http://www.w3.org/2000/svg" width="504" height="106.779" viewBox="0 0 504 106.779">
  <g fill="#D7E4E9">
    <path d="M77.476 68.443c-1.272.564-2.506 1.312-3.7 2.24-1.194.926-2.402 1.94-3.622 3.044-1.22 1.104-2.487 2.267-3.797 3.49-1.312 1.223-2.727 2.36-4.245 3.414-1.52 1.06-3.174 2.06-4.966 3.02-1.792.96-3.77 1.8-5.94 2.52-2.167.72-4.556 1.3-7.165 1.73-2.6.43-5.49.64-8.66.64-3.5 0-6.66-.7-9.48-2.09-2.81-1.39-5.22-3.28-7.22-5.64-2-2.37-3.54-5.12-4.61-8.26-1.08-3.14-1.61-6.43-1.61-9.89 0-2.4.26-4.98.78-7.74s1.27-5.57 2.24-8.43 2.16-5.72 3.56-8.57c1.4-2.85 2.99-5.58 4.77-8.19 1.78-2.61 3.74-5.04 5.86-7.27 2.13-2.24 4.4-4.18 6.82-5.84 2.42-1.66 4.96-2.96 7.64-3.9 2.68-.94 5.45-1.41 8.34-1.41 1.87 0 3.77.33 5.69 1 1.92.67 3.64 1.69 5.18 3.06 1.53 1.38 2.78 3.12 3.75 5.22.98 2.11 1.46 4.59 1.46 7.44 0 1.92-.3 3.86-.91 5.82-.61 1.96-1.45 3.85-2.51 5.65-1.07 1.81-2.32 3.5-3.76 5.08s-2.99 2.96-4.65 4.11c-1.66 1.16-3.39 2.07-5.18 2.75-1.79.68-3.58 1.02-5.37 1.02-2.36 0-4.12-.32-5.29-.95-1.17-.64-1.75-1.55-1.75-2.75 0-.21-.01-.45-.02-.74-.02-.28-.02-.58-.02-.89 0-.46.02-.95.08-1.46.05-.5.15-.96.31-1.38.15-.41.38-.75.68-1.01.3-.26.71-.39 1.23-.39.31 0 .59.05.82.14.24.09.5.19.78.29.29.1.63.2 1.03.29.41.09.92.14 1.54.14 1.66 0 3.35-.36 5.05-1.09 1.7-.73 3.23-1.75 4.6-3.08s2.48-2.9 3.35-4.73c.87-1.83 1.31-3.85 1.31-6.05 0-1.17-.15-2.28-.46-3.33s-.82-1.97-1.52-2.76c-.7-.79-1.6-1.43-2.71-1.91-1.1-.48-2.44-.72-4.03-.72-1.87 0-3.69.41-5.47 1.236-1.78.823-3.48 1.94-5.12 3.36-1.63 1.42-3.19 3.09-4.65 5.03-1.46 1.94-2.82 4.01-4.07 6.23-1.24 2.21-2.37 4.51-3.37 6.91-1 2.4-1.85 4.79-2.55 7.17s-1.24 4.7-1.61 6.94-.564 4.3-.564 6.19c0 2.77.33 5.18.99 7.24.66 2.06 1.6 3.77 2.82 5.14 1.22 1.37 2.71 2.393 4.48 3.063 1.76.67 3.75 1.01 5.96 1.01 2.75 0 5.31-.36 7.69-1.07 2.37-.71 4.64-1.65 6.79-2.8s4.24-2.46 6.25-3.92c2.014-1.45 4.03-2.91 6.04-4.373 2.013-1.47 4.064-2.87 6.154-4.2s4.3-2.46 6.64-3.37v8.67z"/>
    <path d="M96.364 51.025c.753 1.507 1.318 3.097 1.694 4.77s.565 3.563.565 5.668c0 1.532-.17 3.077-.506 4.634-.338 1.558-.825 3.064-1.46 4.52-.637 1.452-1.416 2.815-2.337 4.088-.922 1.27-1.974 2.375-3.155 3.31-1.182.937-2.473 1.675-3.875 2.22-1.402.546-2.896.82-4.48.82-2.284 0-4.238-.5-5.86-1.5-1.623-1-2.954-2.305-3.992-3.915-1.04-1.61-1.798-3.427-2.278-5.453-.48-2.024-.72-4.076-.72-6.152 0-3.428.428-6.38 1.285-8.86s2.083-4.635 3.68-6.465 3.55-3.27 5.862-4.323c2.31-1.052 4.907-1.577 7.79-1.577 2.465 0 4.776.383 6.932 1.15 2.15.765 4.17 1.79 6.05 3.076 1.88 1.284 3.63 2.9 5.26 4.85 1.62 1.946 3.13 3.803 4.53 5.568l-.74 5.49c-.7-.934-1.65-1.945-2.85-3.037-1.2-1.09-2.46-2.298-3.8-3.62-1.34-1.325-2.66-2.448-3.96-3.37-1.3-.92-2.42-1.694-3.35-2.317l-.32.425zM84.33 73.575c.882 0 1.74-.447 2.57-1.344.83-.89 1.558-2.02 2.18-3.38s1.124-3.01 1.5-4.94c.377-1.93.565-3.65.565-5.16 0-1.19-.09-2.3-.272-3.33-.182-1.02-.455-1.91-.818-2.67-.364-.75-.83-1.35-1.402-1.79-.572-.44-1.26-.66-2.064-.66-1.07 0-2.08.46-3.04 1.36-.96.91-1.81 2.08-2.53 3.49-.73 1.42-1.3 2.98-1.72 4.7-.42 1.71-.63 3.65-.63 5.8 0 1.09.1 2.12.31 3.08.2.96.53 1.8.97 2.51.44.71 1.02 1.29 1.75 1.71.72.43 1.59.65 2.61.65z"/>
    <path d="M106.023 72.914c0-1.714.103-3.693.312-5.94.208-2.245.467-4.71.78-7.398s.66-5.108 1.05-7.264c.39-2.154.766-4 1.13-5.53.285-1.194.837-2.194 1.655-3 .818-.805 1.928-1.207 3.33-1.207 1.402 0 2.376.428 2.92 1.284.546.85.82 2 .82 3.42 0 .39-.04.91-.118 1.57-.078.66-.175 1.39-.292 2.18-.117.79-.24 1.61-.37 2.45-.13.84-.253 1.8-.37 2.88-.117 1.08-.214 1.88-.292 2.41s-.117.89-.117 1.07h.78c.16-.29.41-.75.74-1.39.34-.64.73-1.55 1.17-2.75.44-1.2.92-2.26 1.42-3.18.51-.92.98-1.8 1.42-2.64.45-.85.85-1.59 1.21-2.24.37-.65.64-1.13.82-1.44.83-1.4 1.78-2.36 2.85-2.89 1.07-.52 2.25-.78 3.55-.78s2.33.55 3.1 1.64c.77 1.09 1.15 2.6 1.15 4.52 0 .29-.06.77-.17 1.44-.11.68-.26 1.48-.45 2.42-.18.93-.38 2.14-.6 3.62-.22 1.48-.42 2.8-.6 3.97-.18 1.17-.33 2.32-.45 3.46-.11 1.14-.17 2.19-.17 3.15 0 1.61.2 2.93.6 3.97.4 1.04 1.03 1.56 1.89 1.56.31 0 .76-.12 1.33-.35.86-.31 1.4-.59 1.64-.82 1.14-.88 1.74-1.31 1.79-1.29.08.02.95-.5 2.61-1.56 2.08-1.33 4.56-2.95 7.44-4.87l-.04 8.72-1.94 1.48c-.15.13-1.37.8-3.66 2.02-3.3 1.77-5.36 2.83-6.19 3.19-2.02.91-3.28 1.42-3.78 1.55-1.3.41-2.66.62-4.09.62-1.42 0-2.62-1.04-3.6-3.1-.97-2.07-1.46-5.09-1.46-9.06 0-1.56.11-3.24.32-5.04.21-1.81.47-3.75.78-5.82h-.63L115 78.27c-.544 1.09-1.13 1.82-1.75 2.18-.65.39-1.403.584-2.26.584-1.065 0-1.92-.23-2.57-.686-.65-.453-1.15-1.063-1.5-1.83-.35-.766-.584-1.636-.7-2.61-.12-.98-.178-1.984-.178-3.02z"/>
    <path d="M167.714 51.025c.753 1.507 1.318 3.097 1.694 4.77s.565 3.563.565 5.668c0 1.532-.17 3.077-.506 4.634-.338 1.558-.825 3.064-1.46 4.52-.637 1.452-1.416 2.815-2.337 4.088-.922 1.27-1.974 2.375-3.155 3.31-1.182.937-2.473 1.675-3.875 2.22-1.402.546-2.896.82-4.48.82-2.284 0-4.238-.5-5.86-1.5-1.623-1-2.954-2.305-3.992-3.915-1.04-1.61-1.798-3.427-2.278-5.453-.48-2.024-.72-4.076-.72-6.152 0-3.428.428-6.38 1.285-8.86.857-2.48 2.083-4.635 3.68-6.465s3.55-3.27 5.862-4.323c2.31-1.052 4.907-1.577 7.79-1.577 2.465 0 4.776.383 6.932 1.15 2.15.765 4.17 1.79 6.05 3.076 1.88 1.284 3.63 2.9 5.26 4.85 1.62 1.946 3.13 3.803 4.53 5.568l-.74 5.49c-.7-.934-1.65-1.945-2.85-3.037-1.2-1.09-2.46-2.298-3.8-3.62-1.34-1.325-2.66-2.448-3.96-3.37-1.3-.92-2.42-1.694-3.35-2.317l-.32.425zm-12.034 22.55c.882 0 1.74-.447 2.57-1.344.83-.89 1.558-2.02 2.18-3.38s1.124-3.01 1.5-4.94c.377-1.93.565-3.65.565-5.16 0-1.19-.09-2.3-.272-3.33-.182-1.02-.455-1.91-.818-2.67-.364-.75-.83-1.35-1.402-1.79-.572-.44-1.26-.66-2.064-.66-1.07 0-2.08.46-3.04 1.36-.96.91-1.81 2.08-2.53 3.49-.73 1.42-1.3 2.98-1.72 4.7-.42 1.71-.63 3.65-.63 5.8 0 1.09.1 2.12.31 3.08.2.96.53 1.8.97 2.51.44.71 1.02 1.29 1.75 1.71s1.59.65 2.61.65z"/>
    <path d="M177.373 72.914c0-1.144.064-2.474.194-3.992.13-1.52.305-3.122.526-4.81.22-1.688.48-3.408.78-5.16.297-1.752.68-3.622 1.148-5.608.47-1.986.87-3.642 1.21-4.965.34-1.33.68-2.42 1.02-3.28.21-.57.42-1.03.63-1.36.21-.34.45-.61.72-.8.28-.2.61-.33 1.02-.39.4-.07.9-.1 1.5-.1.68 0 1.2.03 1.58.09.38.06.66.22.84.47.18.24.29.6.33 1.07.04.47.06 1.1.06 1.91 0 .96-.06 2.32-.19 4.09s-.17 3.31-.12 4.63h.43c.52-1.04 1.17-2.4 1.95-4.09s1.6-3.09 2.46-4.21c.86-1.12 1.83-2.06 2.93-2.83 1.09-.77 2.35-1.15 3.78-1.15.5 0 .98.08 1.44.25.47.17.88.41 1.23.72s.63.69.84 1.15c.21.45.31.96.31 1.53 0 .44-.06 1.06-.19 1.85s-.34 1.83-.62 3.1-.49 2.32-.62 3.13-.19 1.5-.19 2.04c0 .93.09 1.71.28 2.33.18.62.42 1.12.72 1.5.3.37.64.64 1.01.8.38.15.77.23 1.19.23 1.17 0 2.38-.26 3.62-.78s2.39-1.1 3.43-1.75c1.22-.75 2.42-1.61 3.59-2.57l-.58 9.11c-.67.44-1.44.93-2.3 1.48-.85.54-1.77 1.06-2.74 1.54-.97.48-1.99.88-3.04 1.2-1.05.32-2.12.49-3.21.49-1.95 0-3.52-.4-4.71-1.19-1.19-.79-2.14-1.83-2.84-3.11-.7-1.29-1.22-2.73-1.56-4.33-.34-1.6-.61-3.22-.82-4.85h-.62l-6.97 19.43c-.36 1.01-.71 1.85-1.03 2.51-.33.66-.66 1.2-.99 1.61-.34.42-.7.71-1.09.88-.39.17-.82.26-1.29.26-1.06 0-1.92-.23-2.57-.68-.65-.46-1.15-1.07-1.5-1.83-.35-.77-.58-1.64-.7-2.61-.12-.98-.17-1.98-.17-3.02zm66.935 4.32c-.104.78-.35 1.416-.74 1.91-.388.493-.855.882-1.4 1.17s-1.127.486-1.75.602c-.622.117-1.218.175-1.788.175-.674 0-1.33-.07-1.964-.21-.636-.14-1.2-.36-1.692-.66-.493-.3-.882-.66-1.167-1.09-.286-.43-.43-.91-.43-1.46 0-1.06.053-2.04.157-2.94s.26-1.8.467-2.7c.67-3.04 1.29-5.86 1.85-8.47.57-2.61 1.23-5.06 1.98-7.34.75-2.28 1.25-4.53 1.5-6.74l.76-6.62s.36-4.5.32-6.9l-.13-7.68v-.9c0-.36-.03-.71-.11-1.04-.07-.32-.2-.6-.39-.83-.18-.23-.46-.35-.83-.35-.59 0-1.31.22-2.16.65-.85.43-1.74 1.01-2.68 1.74-.93.73-1.87 1.58-2.8 2.55s-1.8 2.02-2.58 3.14c-.15.39-.38.67-.7.84-.32.17-.67.25-1.07.25-.12 0-.25-.11-.39-.33-.13-.22-.26-.49-.37-.8-.11-.31-.2-.64-.27-.99s-.11-.67-.11-.95c0-.15.06-.28.16-.39.94-3.06 2-5.62 3.18-7.69 1.18-2.06 2.43-3.71 3.74-4.94s2.65-2.11 4.01-2.63c1.37-.52 2.67-.78 3.92-.78 1.61 0 2.95.31 4.01.92 1.07.61 1.91 1.47 2.53 2.57.63 1.11 1.06 2.44 1.31 4s.37 3.28.37 5.18c0 1.45-.14 3.16-.43 5.12l-.89 6.18c-.31 2.17-.71 4.32-1.2 6.45-.48 2.13-.95 4.12-1.41 5.97.84-3.45 1.84-6.77 2.98-9.95 1.15-3.18 2.39-6.15 3.75-8.92 1.35-2.76 2.79-5.27 4.32-7.52 1.53-2.24 3.1-4.17 4.71-5.78 1.62-1.61 3.26-2.85 4.91-3.74 1.66-.88 3.3-1.32 4.93-1.32 1.2 0 2.3.26 3.31.78 1.02.52 1.88 1.32 2.61 2.42.73 1.09 1.29 2.47 1.7 4.13.41 1.67.61 3.64.61 5.92 0 .21-.02.54-.06.98s-.09.95-.16 1.52c-.06.57-.14 1.19-.23 1.85-.09.66-.17 1.32-.25 1.97-.21 1.56-.42 3.24-.66 5.06l.82-.04c1.01-3.84 2.26-7.29 3.73-10.36 1.48-3.06 3.14-5.66 4.98-7.81 1.84-2.14 3.82-3.78 5.95-4.92 2.13-1.14 4.33-1.71 6.61-1.71 1.57 0 2.97.47 4.19 1.41 1.23.94 2.25 2.2 3.07 3.8.83 1.6 1.46 3.47 1.9 5.61.44 2.14.66 4.4.66 6.79 0 2.23-.22 4.57-.65 7.01s-.87 4.87-1.3 7.28l-1.28 7.12c-.42 2.33-.82 4.55-1.19 6.64-.38 2.09-.72 4.02-1.03 5.77-.31 1.76-.46 3.09-.46 4 0 1.14.28 1.96.83 2.47.56.51 1.36.76 2.42.76.6 0 1.23-.16 1.89-.484.66-.325 1.32-.75 1.99-1.286.66-.53 1.32-1.14 1.97-1.83.65-.69 1.27-1.4 1.87-2.12 1.38-1.66 2.74-3.57 4.09-5.73 0 .025.12.3.35.82.18.44.48 1.19.9 2.26.41 1.06 1 2.593 1.75 4.592-1.3 2.28-2.64 4.22-4.01 5.8-1.38 1.585-2.78 2.88-4.21 3.876-1.43 1-2.87 1.72-4.34 2.17-1.47.44-2.93.66-4.37.66-1.4 0-2.77-.246-4.105-.74-1.34-.49-2.52-1.226-3.56-2.2-1.044-.97-1.87-2.18-2.49-3.62-.63-1.44-.94-3.1-.94-4.97 0-.206.01-.426.02-.66.016-.23.03-.47.06-.7.1-1.74.33-3.6.69-5.59l1.11-6.18c.38-2.13.77-4.29 1.16-6.487.39-2.193.786-4.383 1.18-6.564.39-2.18.77-4.33 1.14-6.43.37-2.103.56-3.94.56-5.51 0-1.17-.04-2.226-.12-3.174s-.232-1.757-.47-2.42-.57-1.18-1.02-1.54c-.44-.36-1.03-.543-1.763-.543-1.47 0-2.85.48-4.16 1.44-1.3.96-2.54 2.274-3.7 3.96s-2.26 3.67-3.27 5.973c-1.01 2.31-1.97 4.8-2.87 7.47-.9 2.68-1.67 5.49-2.3 8.42-.63 2.93-1.32 5.97-2.07 9.1s-1.33 6.11-1.73 8.91c-.4 2.8-.86 5.5-1.36 8.08-.18.73-.46 1.35-.83 1.86-.38.504-.81.914-1.29 1.23-.49.31-1.01.534-1.55.68-.55.14-1.09.21-1.63.21s-1.09-.1-1.62-.31-1-.54-1.4-.99c-.4-.46-.727-1.03-.97-1.736-.25-.7-.37-1.56-.37-2.57-.5-.68-.6-1.84-.28-3.5s.69-3.62 1.14-5.9c.44-2.28.96-4.82 1.55-7.623.594-2.804 1.13-5.6 1.62-8.39s1-5.58 1.55-8.36c.55-2.78.826-5.335.826-7.67 0-1.61-.04-3.05-.12-4.325-.08-1.27-.27-2.35-.562-3.23-.29-.88-.72-1.56-1.27-2.02-.55-.46-1.28-.7-2.2-.7-.75 0-1.61.5-2.58 1.48-.97.99-2.01 2.35-3.13 4.09-1.11 1.74-2.26 3.79-3.44 6.136-1.18 2.35-2.36 4.886-3.53 7.61-1.17 2.73-2.3 5.58-3.39 8.55-1.09 2.97-2 5.97-2.74 8.99-.74 3.02-1.45 5.95-2.15 8.795-.7 2.84-1.34 5.46-1.93 7.86z"/>
    <path d="M328.23 81.053c-2.404 0-4.516-.44-6.33-1.324-1.817-.89-3.34-2.07-4.568-3.55-1.228-1.48-2.156-3.2-2.783-5.14-.63-1.95-.94-3.98-.94-6.08 0-1.51.26-3.31.78-5.42s1.09-3.94 1.7-5.51c.61-1.57 1.37-3.07 2.27-4.5.9-1.43 1.94-2.68 3.13-3.76s2.51-1.94 3.97-2.57c1.46-.64 3.06-.96 4.81-.96 1.57 0 3.03.23 4.37.68 1.34.45 2.49 1.08 3.44 1.89.95.8 1.7 1.76 2.23 2.86.53 1.1.81 2.29.81 3.56 0 .88-.13 1.75-.39 2.61-.25.85-.74 1.86-1.48 3.02s-1.44 1.94-2.13 2.35c-.69.42-1.47.62-2.34.62-1.32 0-2.16-.32-2.55-.98-.63-1.01-.83-1.91-.6-2.69.07-.42.31-1.38.69-2.88.05-.2.06-.67.04-1.4 0-.62-.07-1.14-.19-1.56-.13-.41-.42-.62-.86-.62-1.06 0-1.97.25-2.72.76s-1.39 1.17-1.92 1.99c-.53.82-1.06 1.97-1.57 3.47-.52 1.49-.89 2.74-1.11 3.76-.22 1.01-.36 1.98-.41 2.9-.05.92-.08 1.69-.08 2.31 0 .93.08 1.91.25 2.92s.5 1.94 1.01 2.79 1.16 1.54 1.96 2.1 1.83.84 3.1.84c1.25 0 2.62-.39 4.13-1.15 1.5-.77 3.02-1.73 4.53-2.9 1.52-1.17 2.97-2.46 4.35-3.86 1.38-1.4 2.56-2.73 3.55-3.98l2.69 4.52c-1.95 2.78-4.05 5.26-6.31 7.44-.96.94-2.01 1.85-3.14 2.73-1.13.88-2.31 1.67-3.55 2.35-1.23.69-2.52 1.25-3.86 1.68-1.34.43-2.7.64-4.07.64z"/>
    <path d="M413.27 72.33c-.546.57-1.24 1.22-2.083 1.945-.845.73-1.79 1.46-2.844 2.2-1.052.74-2.188 1.46-3.408 2.163-1.22.7-2.467 1.324-3.737 1.87-1.272.544-2.552.978-3.837 1.304s-2.51.487-3.69.487c-.82 0-1.64-.15-2.48-.43-.83-.29-1.58-.81-2.26-1.58-.68-.77-1.23-1.83-1.67-3.18-.43-1.35-.65-3.11-.65-5.26 0-.91.07-1.89.2-2.94s.3-2.19.5-3.41c-1.45 2.93-3.09 5.74-4.92 8.43-1.83 2.68-3.77 4.79-5.84 6.31-2.06 1.52-4.19 2.67-6.4 3.44-2.21.78-4.41 1.17-6.62 1.17-2.41 0-4.71-.42-6.87-1.27-2.17-.85-4.08-2.11-5.74-3.78-1.66-1.68-2.98-3.76-3.95-6.25-.97-2.5-1.46-5.85-1.46-10.05 0-2.52.29-5.15.88-7.91.59-2.75 1.44-5.53 2.55-8.34 1.12-2.81 2.46-5.59 4.05-8.34 1.58-2.76 3.39-5.37 5.41-7.85 2.03-2.48 4.24-4.78 6.64-6.9 2.4-2.12 4.96-3.95 7.69-5.49 2.72-1.54 5.59-2.76 8.6-3.64 3.01-.89 6.13-1.33 9.37-1.33.87 0 1.57.07 2.1.21.52.14.92.32 1.19.54.27.22.44.45.52.68.08.23.12.44.12.62 0 .13-.01.24-.02.35-.013.1-.02.18-.02.23v.19c.71.41 1.43.66 2.167.76.74.09 1.46.16 2.17.23s1.38.2 2.01.41c.63.21 1.186.61 1.66 1.22.47.61.845 1.5 1.12 2.67s.41 2.75.41 4.75c0 1.56-.13 3.32-.4 5.27-.27 1.95-.64 3.99-1.13 6.12-.487 2.13-1.037 4.29-1.647 6.47-.61 2.18-1.23 4.3-1.853 6.33s-1.21 3.96-1.78 5.79c-.56 1.82-1.08 3.41-1.56 4.76-.1 1.14-.18 2.2-.25 3.19s-.09 2-.09 3.07c0 .83.02 1.51.06 2.04.04.53.11.95.218 1.26.1.31.245.53.43.64.18.12.41.18.7.18.52 0 1.17-.14 1.966-.41.79-.27 1.64-.62 2.53-1.05.9-.43 1.83-.91 2.81-1.44.97-.53 1.906-1.06 2.8-1.6s1.73-1.02 2.51-1.46c.78-.44 1.43-.8 1.95-1.09l1.987 7.59zm-18.303-50.36c-.915-.26-1.86-.448-2.84-.564-.98-.117-1.93-.176-2.843-.176-2.102 0-4.176.403-6.225 1.208-2.05.806-4.04 1.902-5.98 3.29-1.94 1.39-3.78 3.026-5.53 4.908-1.75 1.883-3.39 3.908-4.9 6.076-1.52 2.168-2.89 4.42-4.11 6.757-1.22 2.33-2.27 4.66-3.15 6.99-.89 2.32-1.56 4.58-2.03 6.77-.47 2.19-.7 4.21-.7 6.05 0 4.54.73 7.82 2.2 9.83 1.47 2.01 3.74 3.02 6.83 3.02 1.92 0 3.74-.4 5.47-1.21 1.73-.81 3.33-1.86 4.81-3.18 1.48-1.31 2.84-3.01 4.07-5.1s2.31-3.98 3.23-5.67c.92-1.69 1.68-3.32 2.28-4.89.6-1.57 1.02-2.93 1.28-4.07l8.1-30.07z"/>
    <path d="M406.066 82.52c0-.13.03-.92.098-2.37.064-1.448.205-3.378.422-5.787.217-2.408.47-5.192.752-8.353.284-3.16.686-6.49 1.2-9.994.52-3.502 1.128-7.095 1.83-10.78.702-3.683 1.54-7.27 2.507-10.76.967-3.488 2.075-6.777 3.32-9.867 1.246-3.09 2.646-5.8 4.195-8.11 1.553-2.32 3.28-4.15 5.19-5.49 1.91-1.34 4.005-2.01 6.286-2.01.88 0 1.807.15 2.778.45s1.857.79 2.66 1.48c.805.68 1.472 1.58 2.002 2.71.53 1.12.798 2.51.798 4.15 0 1.52-.248 3.28-.742 5.26-.493 1.98-1.187 4.1-2.083 6.35-.9 2.25-1.95 4.6-3.17 7.03s-2.55 4.86-3.99 7.28c-1.44 2.42-2.96 4.81-4.55 7.15s-3.21 4.54-4.87 6.59l-.08.62c.54-.23.95-.37 1.23-.44.27-.07.56-.1.86-.1.36 0 .65.03.87.08.22.06.42.12.6.19s.36.13.56.19c.19.06.43.08.71.08 2.57 0 4.84-.31 6.81-.92 1.97-.61 3.63-1.29 4.98-2.04 1.58-.86 2.96-1.86 4.13-3l-.86 9.49c-1.72.94-3.51 1.68-5.38 2.2-1.87.52-3.6.92-5.18 1.18-1.85.29-3.7.47-5.56.55 1 1.71 1.9 3.49 2.71 5.32.69 1.58 1.32 3.35 1.9 5.3.57 1.95.85 3.93.85 5.93 0 .23-.04.72-.11 1.48-.07.75-.19 1.67-.35 2.76s-.4 2.29-.69 3.61c-.3 1.32-.69 2.65-1.17 4s-1.05 2.65-1.73 3.9c-.68 1.25-1.48 2.37-2.39 3.34-.91.97-1.96 1.75-3.14 2.35-1.19.59-2.53.89-4.02.89-1.42 0-2.66-.33-3.72-.98-1.06-.65-1.96-1.52-2.71-2.62s-1.37-2.38-1.88-3.84c-.51-1.47-.9-3.01-1.18-4.64-.29-1.64-.49-3.3-.6-4.99-.11-1.7-.17-3.34-.17-4.92zm10.3-20.47c-.103 0-.222.296-.353.89-.132.593-.234 1.337-.306 2.234-.07.896-.174 2.174-.306 3.83-.13 1.66-.24 3.017-.32 4.075-.08 1.05-.15 2.06-.2 3.01-.05.94-.08 1.69-.08 2.24 0 3.81.07 6.85.22 9.11s.33 3.97.55 5.14.47 1.92.75 2.27c.27.35.56.52.84.52.89 0 1.6-.41 2.14-1.21s.94-1.83 1.22-3.06c.28-1.24.46-2.59.55-4.05.09-1.47.14-2.88.14-4.23 0-.91-.03-2.03-.08-3.35-.05-1.33-.13-2.76-.24-4.29s-.32-3.27-.65-5.21-.79-3.4-1.38-4.37c-.59-.98-1.07-1.82-1.44-2.53-.37-.71-.71-1.06-1.03-1.06zm9.858-40.71c-1.527 3.446-2.784 6.725-3.768 9.834-.9 2.85-1.577 5.377-2.026 7.58-.45 2.203-.77 4.14-.964 5.812-.19 1.672-.38 3.22-.562 4.646 1.666-2.98 3.386-5.883 5.162-8.708 1.774-2.825 3.327-5.475 4.66-7.95 1.332-2.474 2.472-4.865 3.416-7.17.946-2.307 1.42-3.953 1.42-4.94 0-1.373-.193-2.376-.578-3.012-.387-.635-1.028-.953-1.928-.953-1.42 0-2.376.31-2.867.93-.38.52-1.04 1.83-1.97 3.92z"/>
    <path d="M450.835 81.053c-2.425 0-4.546-.45-6.364-1.348-1.81-.898-3.33-2.107-4.54-3.626-1.21-1.52-2.12-3.28-2.73-5.28-.6-2-.91-4.09-.91-6.29 0-1.44.27-3.15.82-5.13.55-1.99 1.11-3.75 1.69-5.29.58-1.54 1.31-3.01 2.19-4.4.88-1.4 1.91-2.63 3.08-3.69 1.18-1.06 2.49-1.91 3.95-2.54 1.46-.63 3.08-.94 4.86-.94 1.46 0 2.81.23 4.06.7 1.25.47 2.34 1.12 3.26 1.96.92.84 1.65 1.86 2.17 3.05.52 1.19.78 2.53.78 4 0 1.58-.52 3.34-1.58 5.3-1.05 1.95-2.28 3.63-3.69 5.02-1.4 1.4-3.07 2.64-5.01 3.73-1.94 1.09-4.04 1.94-6.3 2.55.39.69.78 1.26 1.16 1.71s.76.81 1.15 1.06c.39.26.8.43 1.23.53.43.1.89.15 1.39.15 1.56 0 3.2-.31 4.93-.91 1.73-.61 3.41-1.37 5.05-2.29 1.64-.91 3.18-1.91 4.64-2.99 1.45-1.08 2.69-2.1 3.7-3.06l5.02 5.1c-2.29 2.43-4.71 4.58-7.28 6.46-1.12.8-2.32 1.59-3.6 2.36-1.28.77-2.63 1.46-4.05 2.06-1.41.6-2.88 1.08-4.4 1.44-1.51.36-3.05.54-4.61.54zm-5.2-18.55c.94 0 1.962-.233 3.07-.703 1.105-.47 2.136-1.073 3.088-1.81.95-.735 1.883-1.727 2.795-2.97.912-1.244 1.368-2.27 1.368-3.085 0-1.142-.215-2.082-.646-2.817-.43-.736-.958-1.104-1.584-1.104-1.12 0-2.077.203-2.873.61-.795.405-1.46.932-1.993 1.58-.534.646-.964 1.383-1.29 2.208-.326.824-.704 1.847-1.135 3.064-.43 1.22-.67 2.222-.723 3.008-.05.79-.076 1.46-.076 2.02z"/>
    <path d="M480.2 81.053c-2.425 0-4.546-.45-6.364-1.348s-3.334-2.107-4.546-3.626c-1.212-1.52-2.12-3.28-2.728-5.28-.605-2-.91-4.09-.91-6.29 0-1.44.272-3.15.813-5.13.543-1.99 1.104-3.75 1.687-5.29.58-1.54 1.31-3.01 2.188-4.4.877-1.4 1.904-2.63 3.08-3.69 1.175-1.06 2.49-1.91 3.95-2.54 1.46-.63 3.08-.94 4.862-.94 1.454 0 2.807.23 4.055.7 1.247.47 2.333 1.12 3.256 1.96.922.84 1.645 1.86 2.163 3.05.52 1.19.78 2.53.78 4 0 1.58-.526 3.34-1.58 5.3-1.056 1.95-2.284 3.63-3.69 5.02-1.403 1.4-3.076 2.64-5.015 3.73-1.93 1.09-4.03 1.94-6.3 2.55.39.69.78 1.26 1.15 1.71.38.46.77.81 1.16 1.06.39.26.8.43 1.23.53.43.1.9.15 1.39.15 1.56 0 3.2-.31 4.93-.91s3.41-1.37 5.05-2.29 3.18-1.91 4.64-2.99c1.46-1.08 2.69-2.1 3.7-3.06l5.03 5.1c-2.28 2.43-4.71 4.58-7.28 6.46-1.11.8-2.31 1.59-3.6 2.36-1.28.77-2.63 1.46-4.05 2.06-1.41.6-2.88 1.08-4.4 1.44-1.51.36-3.05.54-4.61.54zm-5.2-18.55c.94 0 1.962-.233 3.07-.703 1.105-.47 2.136-1.073 3.088-1.81.95-.735 1.883-1.727 2.795-2.97.912-1.244 1.368-2.27 1.368-3.085 0-1.142-.21-2.082-.64-2.817-.43-.736-.96-1.104-1.58-1.104-1.12 0-2.07.203-2.87.61s-1.46.932-1.99 1.58c-.53.646-.96 1.383-1.29 2.208-.32.824-.7 1.847-1.13 3.064-.43 1.22-.67 2.222-.72 3.008-.05.79-.07 1.46-.07 2.02z"/>
  </g>
  <g fill="#EF4640">
    <path d="M70.476 61.443c-1.272.564-2.506 1.312-3.7 2.24-1.194.926-2.402 1.94-3.622 3.044-1.22 1.104-2.487 2.267-3.797 3.49-1.312 1.223-2.727 2.36-4.245 3.414-1.52 1.06-3.174 2.06-4.966 3.02-1.792.96-3.77 1.8-5.94 2.52-2.167.72-4.556 1.3-7.165 1.73-2.6.43-5.49.64-8.66.64-3.5 0-6.66-.7-9.48-2.09-2.81-1.39-5.22-3.28-7.22-5.64-2-2.37-3.54-5.12-4.61-8.26-1.08-3.14-1.61-6.43-1.61-9.89 0-2.4.26-4.98.78-7.74s1.27-5.57 2.24-8.43 2.16-5.72 3.56-8.57c1.4-2.85 2.99-5.58 4.77-8.19 1.78-2.61 3.74-5.04 5.86-7.27 2.13-2.24 4.4-4.18 6.82-5.84 2.42-1.66 4.96-2.96 7.64-3.9 2.68-.94 5.45-1.41 8.34-1.41 1.87 0 3.77.33 5.69 1 1.92.67 3.64 1.69 5.18 3.06 1.53 1.38 2.78 3.12 3.75 5.22.98 2.11 1.46 4.59 1.46 7.44 0 1.92-.3 3.86-.91 5.82-.61 1.96-1.45 3.85-2.51 5.65-1.07 1.81-2.32 3.5-3.76 5.08s-2.99 2.96-4.65 4.11c-1.66 1.16-3.39 2.07-5.18 2.75-1.79.68-3.58 1.02-5.37 1.02-2.36 0-4.12-.32-5.29-.95-1.17-.64-1.75-1.55-1.75-2.75 0-.21-.01-.45-.02-.74-.02-.28-.02-.58-.02-.89 0-.46.02-.95.08-1.46.05-.5.15-.96.31-1.38.15-.41.38-.75.68-1.01.3-.26.71-.39 1.23-.39.31 0 .59.05.82.14.24.09.5.19.78.29.29.1.63.2 1.03.29.41.09.92.14 1.54.14 1.66 0 3.35-.36 5.05-1.09 1.7-.73 3.23-1.75 4.6-3.08s2.48-2.9 3.35-4.73c.87-1.83 1.31-3.85 1.31-6.05 0-1.17-.15-2.28-.46-3.33s-.82-1.97-1.52-2.76c-.7-.79-1.6-1.423-2.71-1.902-1.1-.48-2.44-.72-4.03-.72-1.87 0-3.69.41-5.47 1.233-1.78.83-3.48 1.95-5.12 3.36-1.63 1.42-3.19 3.09-4.65 5.03-1.46 1.94-2.82 4.01-4.07 6.23-1.24 2.21-2.37 4.52-3.37 6.914-1 2.39-1.85 4.78-2.55 7.17s-1.24 4.69-1.61 6.93-.562 4.3-.562 6.19c0 2.77.33 5.184.99 7.24.66 2.06 1.6 3.77 2.82 5.144 1.22 1.38 2.71 2.4 4.48 3.07 1.76.677 3.75 1.01 5.96 1.01 2.75 0 5.31-.353 7.69-1.07 2.37-.71 4.64-1.643 6.79-2.8s4.24-2.46 6.25-3.913c2.015-1.45 4.03-2.91 6.04-4.38 2.014-1.47 4.065-2.866 6.155-4.197s4.3-2.455 6.64-3.37v8.67z"/>
    <path d="M89.364 44.025c.753 1.507 1.318 3.097 1.694 4.77s.565 3.563.565 5.668c0 1.532-.17 3.077-.506 4.634-.338 1.558-.825 3.064-1.46 4.52-.637 1.452-1.416 2.815-2.337 4.088-.922 1.27-1.974 2.375-3.155 3.31-1.182.937-2.473 1.675-3.875 2.22-1.402.546-2.896.82-4.48.82-2.284 0-4.238-.5-5.86-1.5-1.623-1-2.954-2.305-3.992-3.915-1.04-1.61-1.798-3.427-2.278-5.453-.48-2.024-.72-4.076-.72-6.152 0-3.428.428-6.38 1.285-8.86s2.083-4.635 3.68-6.465 3.55-3.27 5.862-4.323c2.31-1.052 4.907-1.577 7.79-1.577 2.465 0 4.776.383 6.932 1.15 2.15.765 4.17 1.79 6.05 3.076 1.88 1.284 3.63 2.9 5.26 4.85 1.62 1.946 3.13 3.803 4.53 5.568l-.74 5.49c-.7-.934-1.65-1.945-2.85-3.036-1.2-1.09-2.46-2.3-3.8-3.622-1.34-1.324-2.66-2.447-3.96-3.37-1.3-.92-2.42-1.693-3.35-2.316l-.32.425zM77.33 66.575c.882 0 1.74-.447 2.57-1.344.83-.89 1.558-2.02 2.18-3.38s1.124-3.01 1.5-4.94c.377-1.93.565-3.65.565-5.16 0-1.19-.09-2.3-.272-3.33-.182-1.02-.455-1.91-.818-2.67-.364-.75-.83-1.35-1.402-1.79-.572-.44-1.26-.66-2.064-.66-1.07 0-2.08.46-3.04 1.36-.96.91-1.81 2.08-2.53 3.49-.73 1.42-1.3 2.98-1.72 4.7-.42 1.71-.63 3.65-.63 5.8 0 1.09.1 2.12.31 3.08.2.96.53 1.8.97 2.51.44.71 1.02 1.29 1.75 1.71.72.43 1.59.65 2.61.65z"/>
    <path d="M99.023 65.914c0-1.714.103-3.693.312-5.94.208-2.245.467-4.71.78-7.398s.66-5.108 1.05-7.264c.39-2.154.766-4 1.13-5.53.285-1.194.837-2.194 1.655-3 .818-.805 1.928-1.207 3.33-1.207 1.402 0 2.376.428 2.92 1.284.546.85.82 2 .82 3.42 0 .39-.04.91-.118 1.57-.078.66-.175 1.39-.292 2.18-.117.79-.24 1.61-.37 2.45-.13.84-.253 1.8-.37 2.88-.117 1.08-.214 1.88-.292 2.41s-.117.89-.117 1.07h.78c.16-.29.41-.75.74-1.39.34-.64.73-1.55 1.17-2.75.44-1.2.92-2.26 1.42-3.18.51-.92.98-1.8 1.42-2.64.45-.85.85-1.59 1.21-2.24.37-.65.64-1.13.82-1.44.83-1.4 1.78-2.36 2.85-2.89 1.07-.52 2.25-.78 3.55-.78s2.33.55 3.1 1.64c.77 1.09 1.15 2.6 1.15 4.52 0 .29-.06.77-.17 1.44-.11.68-.26 1.48-.45 2.42-.18.93-.38 2.14-.6 3.62-.22 1.48-.42 2.8-.6 3.97-.18 1.17-.33 2.32-.45 3.46-.11 1.14-.17 2.19-.17 3.15 0 1.61.2 2.93.6 3.97.4 1.04 1.03 1.56 1.89 1.56.31 0 .76-.12 1.33-.35.86-.31 1.4-.59 1.64-.82 1.14-.88 1.74-1.31 1.79-1.29.08.02.95-.5 2.61-1.56 2.08-1.33 4.56-2.95 7.44-4.87l-.04 8.72-1.94 1.48c-.15.13-1.37.8-3.66 2.02-3.3 1.77-5.36 2.83-6.19 3.19-2.02.91-3.28 1.42-3.78 1.55-1.3.41-2.66.62-4.09.62-1.42 0-2.62-1.04-3.6-3.1-.97-2.07-1.46-5.09-1.46-9.06 0-1.56.11-3.24.32-5.04.21-1.81.47-3.75.78-5.82h-.63L108 71.27c-.544 1.09-1.13 1.82-1.75 2.18-.65.39-1.403.584-2.26.584-1.065 0-1.92-.23-2.57-.686-.65-.453-1.15-1.063-1.5-1.83-.35-.766-.584-1.636-.7-2.61-.12-.98-.178-1.984-.178-3.02z"/>
    <path d="M160.714 44.025c.753 1.507 1.318 3.097 1.694 4.77s.565 3.563.565 5.668c0 1.532-.17 3.077-.506 4.634-.338 1.558-.825 3.064-1.46 4.52-.637 1.452-1.416 2.815-2.337 4.088-.922 1.27-1.974 2.375-3.155 3.31-1.182.937-2.473 1.675-3.875 2.22-1.402.546-2.896.82-4.48.82-2.284 0-4.238-.5-5.86-1.5-1.623-1-2.954-2.305-3.992-3.915-1.04-1.61-1.798-3.427-2.278-5.453-.48-2.024-.72-4.076-.72-6.152 0-3.428.428-6.38 1.285-8.86.857-2.48 2.083-4.635 3.68-6.465s3.55-3.27 5.862-4.323c2.31-1.052 4.907-1.577 7.79-1.577 2.465 0 4.776.383 6.932 1.15 2.15.765 4.17 1.79 6.05 3.076 1.88 1.284 3.63 2.9 5.26 4.85 1.62 1.946 3.13 3.803 4.53 5.568l-.74 5.49c-.7-.934-1.65-1.945-2.85-3.036-1.2-1.09-2.46-2.3-3.8-3.622-1.34-1.324-2.66-2.447-3.96-3.37-1.3-.92-2.42-1.693-3.35-2.316l-.32.425zm-12.034 22.55c.882 0 1.74-.447 2.57-1.344.83-.89 1.558-2.02 2.18-3.38s1.124-3.01 1.5-4.94c.377-1.93.565-3.65.565-5.16 0-1.19-.09-2.3-.272-3.33-.182-1.02-.455-1.91-.818-2.67-.364-.75-.83-1.35-1.402-1.79-.572-.44-1.26-.66-2.064-.66-1.07 0-2.08.46-3.04 1.36-.96.91-1.81 2.08-2.53 3.49-.73 1.42-1.3 2.98-1.72 4.7-.42 1.71-.63 3.65-.63 5.8 0 1.09.1 2.12.31 3.08.2.96.53 1.8.97 2.51.44.71 1.02 1.29 1.75 1.71s1.59.65 2.61.65z"/>
    <path d="M170.373 65.914c0-1.144.064-2.474.194-3.992.13-1.52.305-3.122.526-4.81.22-1.688.48-3.408.78-5.16.297-1.752.68-3.622 1.148-5.608.47-1.986.87-3.642 1.21-4.965.34-1.33.68-2.42 1.02-3.28.21-.57.42-1.03.63-1.36.21-.34.45-.61.72-.8.28-.2.61-.33 1.02-.39.4-.06.9-.1 1.5-.1.68 0 1.2.03 1.58.09.38.06.66.22.84.47.18.24.29.6.33 1.07.04.47.06 1.1.06 1.91 0 .96-.06 2.32-.19 4.09s-.17 3.31-.12 4.63h.43c.52-1.04 1.17-2.4 1.95-4.09s1.6-3.09 2.46-4.21c.86-1.12 1.83-2.06 2.93-2.83 1.09-.77 2.35-1.15 3.78-1.15.5 0 .98.08 1.44.25.47.17.88.41 1.23.72s.63.69.84 1.15c.21.45.31.96.31 1.53 0 .44-.06 1.06-.19 1.85s-.34 1.83-.62 3.1-.49 2.32-.62 3.13-.19 1.5-.19 2.04c0 .93.09 1.71.28 2.33.18.62.42 1.12.72 1.5.3.37.64.64 1.01.8.38.15.77.23 1.19.23 1.17 0 2.38-.26 3.62-.78s2.39-1.1 3.43-1.75c1.22-.75 2.42-1.61 3.59-2.57l-.58 9.11c-.67.44-1.44.93-2.3 1.48-.85.54-1.77 1.06-2.74 1.54-.97.48-1.99.88-3.04 1.2-1.05.32-2.12.49-3.21.49-1.95 0-3.52-.4-4.71-1.19-1.19-.79-2.14-1.83-2.84-3.11-.7-1.29-1.22-2.73-1.56-4.33-.34-1.6-.61-3.22-.82-4.85h-.62l-6.97 19.43c-.36 1.01-.71 1.85-1.03 2.51-.33.66-.66 1.2-.99 1.61-.34.42-.7.71-1.09.88-.39.17-.82.26-1.29.26-1.06 0-1.92-.23-2.57-.68-.65-.46-1.15-1.07-1.5-1.83-.35-.77-.58-1.64-.7-2.61-.12-.98-.17-1.98-.17-3.02zm66.935 4.32c-.104.78-.35 1.416-.74 1.91-.388.493-.855.882-1.4 1.17s-1.127.486-1.75.602c-.622.117-1.218.175-1.788.175-.674 0-1.33-.07-1.964-.21-.636-.14-1.2-.36-1.692-.66-.493-.3-.882-.66-1.167-1.09-.286-.43-.43-.91-.43-1.46 0-1.06.053-2.04.157-2.94s.26-1.8.467-2.7c.67-3.04 1.29-5.86 1.85-8.47.57-2.61 1.23-5.06 1.98-7.34.75-2.28 1.25-4.53 1.5-6.74l.76-6.62s.36-4.5.32-6.9l-.13-7.68v-.9c0-.36-.03-.71-.11-1.04-.07-.32-.2-.6-.39-.83-.18-.23-.46-.35-.83-.35-.59 0-1.31.22-2.16.65-.85.43-1.74 1.01-2.68 1.74-.93.73-1.87 1.58-2.8 2.55s-1.8 2.02-2.58 3.14c-.15.39-.38.67-.7.84-.32.17-.67.25-1.07.25-.12 0-.25-.11-.39-.33-.13-.22-.26-.49-.37-.8-.11-.31-.2-.64-.27-.99s-.11-.67-.11-.95c0-.15.06-.28.16-.39.94-3.06 2-5.62 3.18-7.69 1.18-2.06 2.43-3.71 3.74-4.94s2.65-2.11 4.01-2.63c1.37-.52 2.67-.78 3.92-.78 1.61 0 2.95.31 4.01.92 1.07.61 1.91 1.47 2.53 2.57.63 1.11 1.06 2.44 1.31 4s.37 3.28.37 5.18c0 1.45-.14 3.16-.43 5.12l-.89 6.18c-.31 2.17-.71 4.32-1.2 6.45-.48 2.13-.95 4.12-1.41 5.97.84-3.45 1.84-6.77 2.98-9.95 1.15-3.18 2.39-6.15 3.75-8.92 1.35-2.76 2.79-5.27 4.32-7.52 1.52-2.24 3.09-4.17 4.71-5.78 1.61-1.61 3.25-2.85 4.91-3.74 1.65-.88 3.3-1.32 4.93-1.32 1.19 0 2.29.26 3.31.78 1.01.52 1.88 1.32 2.6 2.42.73 1.09 1.29 2.47 1.7 4.13.4 1.67.6 3.64.6 5.92 0 .21-.02.54-.06.98s-.09.95-.15 1.52c-.06.57-.14 1.19-.23 1.85-.09.66-.17 1.32-.25 1.97-.21 1.56-.43 3.24-.66 5.06l.82-.04c1.01-3.84 2.25-7.29 3.73-10.36 1.48-3.06 3.13-5.66 4.98-7.81 1.84-2.14 3.82-3.78 5.95-4.92 2.13-1.14 4.33-1.71 6.61-1.71 1.57 0 2.97.47 4.19 1.41 1.23.94 2.25 2.2 3.07 3.8.82 1.6 1.46 3.47 1.9 5.61.44 2.14.66 4.4.66 6.79 0 2.23-.22 4.57-.65 7.01s-.87 4.87-1.302 7.28c-.44 2.41-.86 4.79-1.28 7.12-.42 2.33-.82 4.55-1.19 6.64-.38 2.09-.72 4.02-1.03 5.77-.31 1.76-.46 3.09-.46 4 0 1.14.28 1.96.83 2.47.56.51 1.37.76 2.42.76.6 0 1.23-.16 1.89-.484.66-.325 1.33-.75 1.99-1.286.666-.53 1.32-1.14 1.97-1.83.65-.69 1.27-1.4 1.87-2.12 1.38-1.66 2.74-3.57 4.09-5.73 0 .025.12.3.35.82.186.44.48 1.19.9 2.26.41 1.06 1 2.593 1.75 4.592-1.3 2.28-2.64 4.22-4.01 5.8-1.374 1.585-2.78 2.88-4.204 3.876-1.43 1-2.874 1.72-4.34 2.17-1.465.44-2.92.66-4.364.66-1.406 0-2.77-.246-4.11-.74-1.34-.49-2.52-1.226-3.56-2.2-1.046-.97-1.87-2.18-2.49-3.62-.63-1.44-.94-3.1-.94-4.97 0-.206.01-.426.02-.66.01-.23.03-.47.06-.7.1-1.74.33-3.6.69-5.59l1.106-6.18c.38-2.13.77-4.29 1.16-6.487.4-2.193.79-4.383 1.18-6.564l1.15-6.43c.38-2.103.56-3.94.56-5.51 0-1.17-.04-2.226-.11-3.174s-.23-1.757-.47-2.42-.57-1.18-1.02-1.54c-.44-.36-1.03-.543-1.76-.543-1.47 0-2.85.48-4.16 1.44-1.3.96-2.54 2.274-3.7 3.96s-2.26 3.67-3.27 5.973c-1.013 2.31-1.97 4.8-2.872 7.47-.9 2.68-1.665 5.49-2.3 8.42-.63 2.93-1.32 5.97-2.07 9.1s-1.34 6.11-1.74 8.91c-.4 2.8-.85 5.5-1.36 8.08-.18.73-.452 1.35-.83 1.86-.37.504-.8.914-1.29 1.23-.48.31-1 .54-1.54.68s-1.09.21-1.63.21-1.083-.1-1.614-.31c-.53-.21-1-.54-1.4-.99-.4-.46-.727-1.03-.97-1.736-.248-.7-.37-1.56-.37-2.57-.5-.68-.598-1.84-.28-3.5s.69-3.62 1.14-5.9c.44-2.28.96-4.82 1.55-7.623.6-2.804 1.14-5.6 1.62-8.39s1.01-5.575 1.56-8.355c.55-2.78.83-5.33.83-7.67 0-1.61-.04-3.05-.12-4.32-.08-1.27-.27-2.35-.57-3.23-.296-.886-.72-1.56-1.27-2.027-.55-.466-1.286-.7-2.2-.7-.76 0-1.62.494-2.587 1.48-.97.985-2.01 2.35-3.13 4.09-1.115 1.74-2.266 3.783-3.448 6.132-1.18 2.35-2.36 4.88-3.53 7.61-1.17 2.73-2.3 5.58-3.39 8.55-1.09 2.97-2.003 5.97-2.74 8.99-.74 3.02-1.455 5.95-2.15 8.8-.7 2.84-1.34 5.46-1.927 7.86z"/>
    <path d="M321.23 74.053c-2.404 0-4.516-.44-6.33-1.324-1.817-.89-3.34-2.07-4.568-3.55-1.228-1.48-2.156-3.2-2.783-5.14-.63-1.95-.94-3.98-.94-6.08 0-1.51.26-3.31.78-5.42s1.09-3.94 1.7-5.51c.61-1.57 1.37-3.07 2.27-4.5.9-1.43 1.94-2.68 3.13-3.76s2.51-1.94 3.97-2.57c1.46-.64 3.06-.96 4.81-.96 1.57 0 3.03.23 4.37.68 1.34.45 2.49 1.08 3.44 1.89.95.8 1.7 1.76 2.23 2.86.53 1.1.81 2.29.81 3.56 0 .88-.13 1.75-.39 2.61-.25.85-.74 1.86-1.48 3.02s-1.44 1.94-2.13 2.35c-.69.42-1.47.62-2.34.62-1.32 0-2.16-.32-2.55-.98-.63-1.01-.83-1.91-.6-2.69.07-.42.31-1.38.69-2.88.05-.2.06-.67.04-1.4 0-.62-.07-1.14-.19-1.56-.13-.41-.42-.62-.86-.62-1.06 0-1.97.25-2.72.76s-1.39 1.17-1.92 1.99c-.53.82-1.06 1.97-1.57 3.47-.52 1.49-.89 2.74-1.11 3.76-.22 1.01-.36 1.98-.41 2.9-.05.92-.08 1.69-.08 2.31 0 .94.08 1.91.25 2.92s.5 1.94 1.01 2.79 1.16 1.54 1.96 2.1 1.83.84 3.1.84c1.25 0 2.62-.39 4.13-1.15 1.5-.77 3.02-1.73 4.53-2.9 1.52-1.17 2.97-2.46 4.35-3.86 1.38-1.4 2.56-2.73 3.55-3.98l2.69 4.52c-1.95 2.78-4.05 5.26-6.31 7.44-.96.94-2.01 1.85-3.14 2.73-1.13.88-2.31 1.67-3.55 2.35-1.23.69-2.52 1.25-3.86 1.68-1.34.43-2.7.64-4.07.64z"/>
    <path d="M406.27 65.33c-.546.57-1.24 1.22-2.083 1.945-.845.73-1.79 1.46-2.844 2.2-1.052.74-2.188 1.46-3.408 2.163-1.22.7-2.467 1.324-3.737 1.87-1.272.544-2.552.978-3.837 1.304s-2.51.487-3.69.487c-.82 0-1.64-.15-2.48-.43-.83-.29-1.58-.81-2.26-1.58-.68-.77-1.23-1.83-1.67-3.18-.43-1.35-.65-3.11-.65-5.26 0-.91.07-1.89.2-2.94s.3-2.19.5-3.41c-1.45 2.93-3.09 5.74-4.92 8.43-1.83 2.68-3.77 4.79-5.84 6.31-2.06 1.52-4.19 2.67-6.4 3.44-2.21.78-4.41 1.17-6.62 1.17-2.41 0-4.71-.42-6.87-1.27-2.17-.85-4.08-2.11-5.74-3.78-1.66-1.68-2.98-3.76-3.95-6.25-.97-2.5-1.46-5.85-1.46-10.05 0-2.52.29-5.15.88-7.91.59-2.75 1.44-5.53 2.55-8.34 1.12-2.81 2.46-5.59 4.05-8.34 1.58-2.76 3.39-5.37 5.41-7.85 2.03-2.48 4.24-4.78 6.64-6.9 2.4-2.12 4.96-3.95 7.69-5.49 2.72-1.54 5.59-2.76 8.6-3.64 3.01-.89 6.13-1.33 9.37-1.33.87 0 1.57.07 2.1.21.52.14.92.32 1.19.54.27.22.44.45.52.68.08.23.12.44.12.62 0 .13-.01.24-.02.35-.013.1-.02.18-.02.23v.2c.71.41 1.43.67 2.167.76.74.09 1.46.17 2.17.23s1.38.2 2.01.41c.63.21 1.186.62 1.66 1.23.47.61.845 1.49 1.12 2.66s.41 2.75.41 4.75c0 1.56-.13 3.32-.4 5.28-.27 1.95-.64 3.99-1.13 6.12-.487 2.13-1.037 4.29-1.647 6.48-.61 2.18-1.23 4.3-1.853 6.33s-1.21 3.97-1.78 5.79c-.56 1.82-1.08 3.41-1.56 4.75-.1 1.14-.18 2.2-.25 3.19s-.09 2.01-.09 3.07c0 .83.02 1.51.06 2.04.04.53.11.95.218 1.26.1.31.245.53.43.64.18.11.41.17.7.17.52 0 1.17-.14 1.966-.41.79-.27 1.64-.62 2.53-1.05.9-.43 1.83-.91 2.81-1.44.97-.54 1.906-1.07 2.8-1.6.9-.53 1.73-1.02 2.51-1.46.78-.44 1.43-.81 1.95-1.09l1.987 7.59zm-18.303-50.36c-.915-.26-1.86-.448-2.84-.564-.98-.117-1.93-.176-2.843-.176-2.102 0-4.176.403-6.225 1.208-2.05.806-4.04 1.902-5.98 3.29-1.94 1.39-3.78 3.026-5.53 4.908-1.75 1.883-3.39 3.908-4.9 6.076-1.52 2.168-2.89 4.42-4.11 6.757-1.22 2.33-2.27 4.66-3.15 6.99-.89 2.32-1.56 4.58-2.03 6.77-.47 2.19-.7 4.21-.7 6.05 0 4.54.73 7.82 2.2 9.83 1.47 2.01 3.74 3.02 6.83 3.02 1.92 0 3.74-.4 5.47-1.21 1.73-.81 3.33-1.86 4.81-3.18 1.48-1.31 2.84-3.01 4.07-5.1s2.31-3.98 3.23-5.67c.92-1.69 1.68-3.32 2.28-4.89.6-1.57 1.02-2.93 1.28-4.07l8.1-30.07z"/>
    <path d="M399.066 75.52c0-.13.03-.92.098-2.37.064-1.448.205-3.378.422-5.787.217-2.408.47-5.192.752-8.353.284-3.16.686-6.49 1.2-9.994.52-3.502 1.128-7.095 1.83-10.78.702-3.683 1.54-7.27 2.507-10.76.967-3.488 2.075-6.777 3.32-9.867 1.246-3.09 2.646-5.8 4.195-8.11 1.553-2.32 3.28-4.15 5.19-5.49 1.91-1.34 4.005-2.01 6.286-2.01.88 0 1.807.15 2.778.45s1.857.79 2.66 1.48c.805.68 1.472 1.58 2.002 2.71.53 1.12.798 2.51.798 4.15 0 1.52-.248 3.28-.742 5.26-.493 1.98-1.187 4.1-2.083 6.35-.9 2.25-1.95 4.6-3.17 7.03s-2.55 4.86-3.99 7.28c-1.44 2.42-2.96 4.81-4.55 7.15-1.59 2.35-3.22 4.54-4.87 6.59l-.08.62c.54-.23.95-.37 1.23-.44.27-.07.56-.1.86-.1.36 0 .65.03.87.08.22.06.42.12.6.19s.37.13.56.19c.19.06.43.08.71.08 2.57 0 4.84-.31 6.81-.92 1.97-.61 3.63-1.29 4.98-2.04 1.58-.86 2.96-1.86 4.13-3l-.86 9.49c-1.72.94-3.51 1.68-5.38 2.2-1.87.52-3.6.92-5.18 1.18-1.85.29-3.7.47-5.57.55 1 1.71 1.9 3.49 2.71 5.32.7 1.58 1.33 3.35 1.9 5.3.57 1.95.86 3.93.86 5.93 0 .23-.04.72-.11 1.48-.07.75-.19 1.67-.35 2.76s-.4 2.29-.7 3.61c-.3 1.32-.69 2.65-1.17 4s-1.06 2.65-1.73 3.9c-.68 1.25-1.48 2.37-2.39 3.34-.91.97-1.96 1.75-3.14 2.35-1.19.59-2.52.89-4.02.89-1.42 0-2.66-.33-3.72-.98-1.06-.65-1.96-1.52-2.71-2.62s-1.37-2.38-1.87-3.84c-.5-1.47-.89-3.01-1.18-4.64-.28-1.64-.48-3.3-.6-4.99-.1-1.7-.16-3.34-.16-4.92zm10.3-20.47c-.103 0-.222.296-.353.89-.132.593-.234 1.337-.306 2.234-.07.896-.174 2.174-.306 3.83-.13 1.66-.24 3.017-.32 4.075-.08 1.05-.15 2.06-.2 3.01-.05.94-.08 1.69-.08 2.24 0 3.81.07 6.85.22 9.11s.33 3.97.55 5.14.47 1.92.75 2.27c.27.35.56.52.84.52.89 0 1.6-.41 2.14-1.21s.94-1.83 1.22-3.06c.28-1.24.46-2.59.55-4.05.09-1.47.14-2.88.14-4.23 0-.91-.02-2.03-.08-3.35-.05-1.33-.13-2.76-.23-4.29s-.32-3.27-.65-5.21c-.32-1.94-.78-3.4-1.38-4.37-.59-.98-1.07-1.82-1.43-2.53-.37-.71-.71-1.06-1.03-1.06zm9.86-40.71c-1.53 3.446-2.786 6.725-3.77 9.834-.9 2.85-1.577 5.377-2.026 7.58-.45 2.203-.77 4.14-.964 5.812-.19 1.672-.38 3.22-.562 4.646 1.666-2.98 3.386-5.883 5.162-8.708 1.774-2.825 3.328-5.475 4.66-7.95 1.332-2.474 2.472-4.865 3.416-7.17.946-2.307 1.42-3.953 1.42-4.94 0-1.373-.193-2.376-.578-3.012-.387-.635-1.028-.953-1.928-.953-1.42 0-2.376.31-2.867.93-.38.52-1.04 1.83-1.97 3.92z"/>
    <path d="M443.835 74.053c-2.425 0-4.546-.45-6.364-1.348-1.81-.898-3.33-2.107-4.54-3.626-1.21-1.52-2.12-3.28-2.73-5.28-.6-2-.91-4.09-.91-6.29 0-1.44.27-3.15.82-5.13.55-1.99 1.11-3.75 1.69-5.29.58-1.54 1.31-3.01 2.19-4.4.88-1.4 1.91-2.63 3.08-3.69 1.18-1.06 2.49-1.91 3.95-2.54 1.46-.63 3.08-.94 4.86-.94 1.46 0 2.81.23 4.06.7 1.25.47 2.34 1.12 3.26 1.96.92.84 1.65 1.86 2.17 3.05.52 1.19.78 2.53.78 4 0 1.58-.52 3.34-1.58 5.3-1.05 1.95-2.28 3.63-3.69 5.02-1.4 1.4-3.07 2.64-5.01 3.73-1.94 1.09-4.04 1.94-6.3 2.55.39.69.78 1.26 1.16 1.71s.76.81 1.15 1.06c.39.26.8.43 1.23.53.43.1.89.15 1.39.15 1.56 0 3.2-.31 4.93-.91 1.73-.61 3.41-1.37 5.05-2.29 1.64-.91 3.18-1.91 4.64-2.99 1.45-1.08 2.69-2.1 3.7-3.06l5.02 5.1c-2.29 2.43-4.71 4.58-7.28 6.46-1.12.8-2.32 1.59-3.6 2.36-1.28.77-2.63 1.46-4.05 2.06-1.41.6-2.88 1.08-4.4 1.44-1.51.36-3.05.54-4.61.54zm-5.2-18.55c.94 0 1.962-.233 3.07-.703 1.105-.47 2.136-1.073 3.088-1.81.95-.735 1.883-1.727 2.795-2.97.912-1.244 1.368-2.27 1.368-3.085 0-1.142-.215-2.082-.646-2.817-.43-.736-.958-1.104-1.584-1.104-1.12 0-2.077.203-2.873.61-.795.405-1.46.932-1.993 1.58-.534.646-.964 1.383-1.29 2.208-.326.824-.704 1.847-1.135 3.064-.43 1.22-.67 2.222-.723 3.008-.05.79-.076 1.46-.076 2.02z"/>
    <path d="M473.2 74.053c-2.425 0-4.546-.45-6.364-1.348s-3.334-2.107-4.546-3.626c-1.212-1.52-2.12-3.28-2.728-5.28-.605-2-.91-4.09-.91-6.29 0-1.44.272-3.15.813-5.13.543-1.99 1.104-3.75 1.687-5.29.58-1.54 1.31-3.01 2.188-4.4.877-1.4 1.904-2.63 3.08-3.69 1.175-1.06 2.49-1.91 3.95-2.54 1.46-.63 3.08-.94 4.862-.94 1.454 0 2.807.23 4.055.7 1.247.47 2.333 1.12 3.256 1.96.922.84 1.645 1.86 2.163 3.05.52 1.19.78 2.53.78 4 0 1.58-.526 3.34-1.58 5.3-1.056 1.95-2.284 3.63-3.69 5.02-1.403 1.4-3.076 2.64-5.015 3.73-1.93 1.09-4.03 1.94-6.3 2.55.39.69.78 1.26 1.15 1.71.38.46.77.81 1.16 1.06.39.26.8.43 1.23.53.43.1.9.15 1.39.15 1.56 0 3.2-.31 4.93-.91s3.41-1.37 5.05-2.29 3.18-1.91 4.64-2.99c1.46-1.08 2.69-2.1 3.7-3.06l5.03 5.1c-2.28 2.43-4.71 4.58-7.28 6.46-1.11.8-2.31 1.59-3.6 2.36-1.28.77-2.63 1.46-4.05 2.06-1.41.6-2.88 1.08-4.4 1.44-1.51.36-3.05.54-4.61.54zm-5.2-18.55c.94 0 1.962-.233 3.07-.703 1.105-.47 2.136-1.073 3.088-1.81.95-.735 1.883-1.727 2.795-2.97.912-1.244 1.368-2.27 1.368-3.085 0-1.142-.21-2.082-.64-2.817-.43-.736-.96-1.104-1.58-1.104-1.12 0-2.07.203-2.87.61s-1.46.932-1.99 1.58c-.53.646-.96 1.383-1.29 2.208-.32.824-.7 1.847-1.13 3.064-.43 1.22-.67 2.222-.72 3.008-.05.79-.07 1.46-.07 2.02z"/>
  </g>
</svg>
