<?xml version="1.0" encoding="UTF-8" standalone="no"?>
<svg width="20px" height="20px" viewBox="0 0 20 20" version="1.1" xmlns="http://www.w3.org/2000/svg" xmlns:xlink="http://www.w3.org/1999/xlink" xmlns:sketch="http://www.bohemiancoding.com/sketch/ns">
    <!-- Generator: Sketch 3.4 (15575) - http://www.bohemiancoding.com/sketch -->
    <title>active</title>
    <desc>Created with Sketch.</desc>
    <defs></defs>
    <g id="Page-1" stroke="none" stroke-width="1" fill="none" fill-rule="evenodd" sketch:type="MSPage">
        <g id="active" sketch:type="MSLayerGroup" fill="#9A9A9A">
            <g id="Group" sketch:type="MSShapeGroup">
                <path d="M9.96745098,6.53594771e-05 C4.47137255,6.53594771e-05 0,4.47137255 0,9.96738562 C0,15.4633987 4.47137255,19.9347059 9.96745098,19.9347059 C15.4634641,19.9347059 19.9347712,15.4633987 19.9347712,9.96738562 C19.9347712,4.47137255 15.4634641,6.53594771e-05 9.96745098,6.53594771e-05 L9.96745098,6.53594771e-05 Z M9.96745098,18.300719 C5.37235294,18.300719 1.63398693,14.5624837 1.63398693,9.96738562 C1.63398693,5.37235294 5.37235294,1.63405229 9.96745098,1.63405229 C14.5624837,1.63405229 18.3007843,5.37235294 18.3007843,9.96738562 C18.3007843,14.5624837 14.5624837,18.300719 9.96745098,18.300719 L9.96745098,18.300719 Z" id="Shape"></path>
                <path d="M14.279281,6.14183007 L8.36124183,12.0599346 L5.6554902,9.35418301 C5.33640523,9.0351634 4.81915033,9.0351634 4.50006536,9.35418301 C4.18104575,9.67326797 4.18104575,10.1905229 4.50006536,10.5096078 L7.78352941,13.7930719 C7.9430719,13.952549 8.15215686,14.0323529 8.36124183,14.0323529 C8.5703268,14.0323529 8.77941176,13.952549 8.93895425,13.7930719 L15.4347059,7.29732026 C15.7537255,6.97823529 15.7537255,6.46098039 15.4347059,6.14189542 C15.1156209,5.82281046 14.5983007,5.82281046 14.279281,6.14183007 L14.279281,6.14183007 Z" id="Shape"></path>
            </g>
        </g>
    </g>
</svg>