<?xml version="1.0" encoding="UTF-8" standalone="no"?>
<svg width="15px" height="23px" viewBox="0 0 15 23" version="1.1" xmlns="http://www.w3.org/2000/svg" xmlns:xlink="http://www.w3.org/1999/xlink" xmlns:sketch="http://www.bohemiancoding.com/sketch/ns">
    <!-- Generator: Sketch 3.4 (15575) - http://www.bohemiancoding.com/sketch -->
    <title>portfolio</title>
    <desc>Created with Sketch.</desc>
    <defs></defs>
    <g id="Page-1" stroke="none" stroke-width="1" fill="none" fill-rule="evenodd" sketch:type="MSPage">
        <g id="portfolio" sketch:type="MSLayerGroup" fill="#FFFFFF">
            <g id="Group" sketch:type="MSShapeGroup">
                <path d="M14.3676,0 L0.63325,0 C0.2881,0 0.00825,0.27985 0.00825,0.625 L0.00825,8.0916 C0.00825,8.17145 0.02355,8.25055 0.0533,8.32465 L1.70835,12.44355 C1.18085,13.40925 0.9026,14.4946 0.9026,15.60295 C0.9026,19.241 3.86235,22.2008 7.50045,22.2008 C11.1385,22.2008 14.0983,19.2411 14.0983,15.60295 C14.0983,14.4946 13.8201,13.40925 13.29255,12.44355 L14.94765,8.32465 C14.97745,8.25055 14.99265,8.17145 14.99265,8.0916 L14.99265,0.625 C14.9926,0.2798 14.7128,0 14.3676,0 L14.3676,0 Z M13.7426,1.25 L13.7426,6.844 L1.25825,6.844 L1.25825,1.25 L13.7426,1.25 L13.7426,1.25 Z M12.4353,11.2243 C11.9602,10.68945 11.39945,10.23195 10.777,9.87515 C9.78405,9.306 8.651,9.0052 7.50045,9.0052 C6.3499,9.0052 5.2169,9.30605 4.224,9.87515 C3.60145,10.232 3.0407,10.68945 2.5656,11.2243 L1.3078,8.094 L13.6931,8.094 L12.4353,11.2243 L12.4353,11.2243 Z M7.50045,20.9508 C4.5516,20.9508 2.1526,18.55185 2.1526,15.60295 C2.1526,14.61725 2.42295,13.6541 2.93445,12.8176 C3.9156,11.21305 5.62255,10.2551 7.50045,10.2551 C9.37835,10.2551 11.0853,11.21305 12.06645,12.8176 C12.5779,13.6541 12.8483,14.61725 12.8483,15.60295 C12.84825,18.5518 10.44925,20.9508 7.50045,20.9508 L7.50045,20.9508 Z" id="Shape"></path>
                <path d="M11.4887,13.56415 L9.1201,13.22 L8.06085,11.07375 C7.95565,10.8604 7.7383,10.72535 7.50045,10.72535 C7.26255,10.72535 7.04525,10.8604 6.94,11.07375 L5.8807,13.22 L3.5122,13.56415 C3.2768,13.59835 3.0812,13.7632 3.00765,13.9895 C2.93415,14.2157 2.9955,14.46415 3.16585,14.63015 L4.87975,16.3008 L4.4751,18.6597 C4.4349,18.89415 4.5313,19.1312 4.72375,19.27105 C4.91625,19.4109 5.17155,19.42935 5.38195,19.3186 L7.50045,18.2049 L9.6189,19.31865 C9.7104,19.36675 9.81015,19.39045 9.90965,19.39045 C10.0392,19.39045 10.1682,19.3502 10.2771,19.2711 C10.4696,19.13125 10.56585,18.89425 10.52575,18.65975 L10.12115,16.30085 L11.835,14.63025 C12.0053,14.46415 12.06675,14.2158 11.9932,13.98955 C11.91965,13.7633 11.72405,13.59835 11.4887,13.56415 L11.4887,13.56415 Z M9.0133,15.63505 C8.86605,15.7787 8.79875,15.98555 8.8335,16.18825 L9.0796,17.62285 L7.7912,16.94555 C7.7002,16.8976 7.6003,16.8737 7.5004,16.8737 C7.4005,16.8737 7.3006,16.89765 7.2096,16.94555 L5.9212,17.62285 L6.1673,16.18825 C6.20205,15.9855 6.13485,15.7786 5.9875,15.63505 L4.94515,14.6191 L6.3856,14.40975 C6.58915,14.38015 6.76515,14.2524 6.85615,14.06785 L7.5004,12.76265 L8.1445,14.06785 C8.2355,14.25225 8.41155,14.38015 8.6151,14.40975 L10.05565,14.61905 L9.0133,15.63505 L9.0133,15.63505 Z" id="Shape"></path>
            </g>
        </g>
    </g>
</svg>